<svg width="806" height="672" viewBox="0 0 806 672" fill="none" xmlns="http://www.w3.org/2000/svg">
<path d="M592.183 160.412C646.315 168.399 684.991 139.75 729.82 106.557C767.324 78.7866 809.443 47.6457 867.896 33.4308C811.86 -8.77428 735.607 -15.0757 647.56 62.3003C557.829 141.215 486.703 62.3735 431.106 71.3128C463.336 74.0239 484.286 92.855 506.407 112.639C529.335 133.302 553.141 154.624 592.183 160.412Z" fill="#FFF0F0"/>
<path d="M610.423 166.934C604.27 166.934 597.97 166.494 591.451 165.542C550.87 159.533 526.551 137.698 502.965 116.595C479.525 95.5662 457.403 75.7093 421.657 76.2222C419.68 76.2222 417.775 76.3687 415.871 76.5153C415.065 76.9549 414.186 77.3945 413.38 77.9074C362.545 108.316 373.532 147.81 340.789 160.925C363.497 175.287 380.93 195.877 398.95 217.126C427.517 250.831 457.11 285.709 511.462 301.609C586.836 323.518 647.267 290.472 717.294 252.15C781.095 217.272 853.393 177.705 950.815 174.115C953.086 174.041 955.43 173.968 957.701 173.895C943.124 122.457 913.824 70.5069 873.17 37.5342C813.618 51.0164 770.913 82.5969 732.97 110.734C692.463 140.629 656.936 166.934 610.423 166.934Z" fill="#FFF0F0"/>
<path d="M606.101 516.371C570.501 534.396 536.88 551.396 502.672 560.775C484.213 565.83 466.706 568.395 449.639 568.395C431.107 568.395 413.087 565.391 394.848 559.456C339.544 541.357 310.61 504.941 282.702 469.697C254.647 434.379 228.204 400.967 177.368 393.053C130.708 385.799 80.3122 402.212 26.62 442C14.0942 491.605 8.16099 545.314 10.3585 600.855L968.102 610.307C968.102 610.307 968.102 543.775 968.102 467.425C925.398 453.357 882.253 446.323 839.768 446.469C743.444 446.836 670.487 483.765 606.101 516.371Z" fill="#FFF0F0"/>
<path d="M901.005 315.237C797.063 315.677 718.32 352.606 648.805 385.139C610.422 403.165 574.164 420.164 537.246 429.543C517.395 434.599 498.57 437.09 480.184 437.09C460.26 437.09 440.849 434.086 421.218 428.151C361.592 410.125 330.461 373.709 300.282 338.465C270.03 303.074 241.462 269.662 186.451 261.748C162.206 258.231 137.008 260.283 110.931 267.683C74.4521 312.599 45.9579 369.752 28.6709 434.086C81.6306 396.13 131.66 380.67 178.174 387.924C230.987 396.13 258.09 430.275 286.731 466.472C314.199 501.13 342.62 536.961 396.459 554.546C471.101 578.873 532.558 547.805 603.757 511.755C668.656 478.929 742.199 441.706 839.622 441.266C840.134 441.266 840.72 441.266 841.233 441.266C883.205 441.266 925.837 448.227 968.029 461.929C968.029 413.203 968.029 361.106 968.029 320C946.2 316.776 924.372 315.164 902.69 315.164C902.104 315.237 901.518 315.237 901.005 315.237Z" fill="#FFF0F0"/>
<path d="M719.712 256.619C684.698 275.743 651.662 293.842 617.748 304.32C597.457 310.621 578.339 313.699 559.441 313.699C542.886 313.699 526.551 311.281 509.924 306.445C454.034 290.178 424.001 254.714 394.921 220.422C376.242 198.367 358.15 177.045 334.197 162.977C327.458 164.662 319.254 165.541 308.926 165.321C303.359 165.175 297.865 165.321 292.444 165.614C284.094 177.265 275.743 190.014 267.466 203.863C266.953 204.669 266.148 205.108 265.269 205.108C264.829 205.108 264.39 204.962 263.95 204.742C262.705 204.009 262.339 202.471 263.071 201.225C270.616 188.622 278.161 176.898 285.852 166.054C221.392 171.769 162.938 206.574 116.571 260.869C140.817 254.787 164.403 253.395 187.184 256.692C244.026 264.899 273.253 299.044 304.164 335.167C333.831 369.825 364.522 405.656 422.683 423.241C503.331 447.641 569.769 416.5 646.681 380.45C716.635 347.624 795.965 310.475 901.005 310.035C923.273 309.962 945.688 311.574 968.102 314.798C968.102 273.838 968.102 245.042 968.102 243.577C968.102 223.28 965.026 201.225 959.093 178.95C956.382 179.023 953.672 179.023 950.962 179.17C854.785 182.687 783 221.961 719.712 256.619Z" fill="#FFF0F0"/>
<path d="M931.184 671.783H0.25V618.733C0.25 587.812 25.3015 562.68 56.2863 562.68H890.311L931.184 671.783Z" fill="#BBD3F9"/>
<path d="M543.838 210.678H569.256C568.816 209.139 568.597 207.527 568.597 205.842C568.597 196.17 576.508 188.33 586.103 188.33H600.827C600.9 188.33 601.046 188.33 601.12 188.33C601.193 188.33 601.339 188.33 601.413 188.33H611.301C611.228 187.451 611.155 186.645 611.155 185.765C611.155 170.451 623.534 158.068 638.843 158.068C654.153 158.068 666.532 170.451 666.532 185.765C666.532 186.645 666.459 187.524 666.385 188.33H679.57C689.239 188.33 697.077 196.243 697.077 205.842C697.077 208.04 696.638 210.165 695.905 212.144H713.412C716.488 212.144 719.052 214.708 719.052 217.786C719.052 220.863 716.488 223.428 713.412 223.428H684.551H679.497H601.413H600.753H594.454H558.415H543.765C540.249 223.428 537.392 220.57 537.392 217.053C537.465 213.536 540.322 210.678 543.838 210.678Z" fill="#FFD7D7"/>
<path d="M66.9808 349.75H89.3953C89.0291 348.358 88.8093 346.965 88.8093 345.5C88.8093 337 95.7681 330.039 104.265 330.039H117.23C117.304 330.039 117.45 330.039 117.523 330.039C117.597 330.039 117.743 330.039 117.816 330.039H126.533C126.46 329.307 126.46 328.501 126.46 327.768C126.46 314.213 137.447 303.295 150.925 303.295C164.477 303.295 175.391 314.286 175.391 327.768C175.391 328.501 175.318 329.307 175.318 330.039H187.038C195.535 330.039 202.493 337 202.493 345.5C202.493 347.478 202.127 349.31 201.468 351.069H216.924C219.634 351.069 221.905 353.34 221.905 356.051C221.905 358.762 219.634 361.034 216.924 361.034H191.433H187.038H117.89H117.304H111.737H79.9461H66.9808C63.9043 361.034 61.3406 358.543 61.3406 355.392C61.4138 352.314 63.9043 349.75 66.9808 349.75Z" fill="#FFD7D7"/>
<path d="M866.797 126.708H850.316C850.609 125.682 850.756 124.656 850.756 123.557C850.756 117.329 845.628 112.2 839.402 112.2H829.879C829.806 112.2 829.733 112.2 829.66 112.2C829.586 112.2 829.513 112.2 829.44 112.2H822.994C823.067 111.687 823.067 111.101 823.067 110.514C823.067 100.549 815.01 92.4893 805.048 92.4893C795.086 92.4893 787.028 100.549 787.028 110.514C787.028 111.101 787.028 111.613 787.101 112.2H778.531C772.305 112.2 767.177 117.329 767.177 123.557C767.177 125.022 767.47 126.341 767.91 127.66H756.556C754.578 127.66 752.894 129.272 752.894 131.324C752.894 133.302 754.505 134.987 756.556 134.987H775.235H778.531H829.293H829.733H833.835H857.202H866.724C868.995 134.987 870.826 133.156 870.826 130.884C870.973 128.539 869.068 126.708 866.797 126.708Z" fill="#FFD7D7"/>
<path d="M580.61 377.667H837.644V36.8018L580.61 377.667Z" fill="white"/>
<path d="M580.61 377.666H942.172" stroke="#0B1E5B" stroke-width="2.5" stroke-miterlimit="10" stroke-linecap="round" stroke-linejoin="round"/>
<path d="M302.406 493.876L282.995 345.499L374.264 291.717L434.622 478.929L302.406 493.876Z" fill="#0B1E5B"/>
<path d="M288.049 342.568L265.488 158.873L326.139 153.231L368.844 294.941L288.049 342.568Z" fill="#BBD3F9"/>
<path d="M322.403 197.562L235.456 209.945L229.962 171.477L316.91 159.094C325.773 157.848 331.267 196.317 322.403 197.562Z" fill="#F77777"/>
<path d="M384.007 182.98L303.798 194.411L299.989 167.373L380.198 155.943C386.058 155.137 389.94 182.101 384.007 182.98Z" fill="#F77777"/>
<path d="M422.609 171.99L352.802 181.955L350.312 164.589L420.119 154.624C424.294 154.038 426.785 171.403 422.609 171.99Z" fill="#F77777"/>
<path d="M458.355 162.831L414.479 169.059L413.014 158.874L456.89 152.646C460.113 152.206 461.578 162.391 458.355 162.831Z" fill="#F77777"/>
<path d="M236.138 214.521C245.15 213.238 250.935 201.513 249.059 188.332C247.184 175.151 238.359 165.506 229.347 166.789C220.336 168.072 214.551 179.797 216.426 192.978C218.302 206.159 227.127 215.804 236.138 214.521Z" fill="#F77777"/>
<path d="M234.9 205.816C240.627 205.001 244.304 197.552 243.113 189.179C241.922 180.806 236.313 174.679 230.586 175.494C224.859 176.31 221.182 183.758 222.373 192.132C223.564 200.505 229.173 206.631 234.9 205.816Z" fill="white"/>
<path d="M322.916 165.322C322.916 165.322 327.677 178.365 326.285 189.282" stroke="#0B1E5B" stroke-width="2.5" stroke-miterlimit="10" stroke-linecap="round" stroke-linejoin="round"/>
<path d="M248.421 175.946C248.421 175.946 253.182 188.989 251.79 199.906" stroke="#0B1E5B" stroke-width="2.5" stroke-miterlimit="10" stroke-linecap="round" stroke-linejoin="round"/>
<path d="M385.325 162.83C385.325 162.83 387.596 169.058 386.937 174.261" stroke="#0B1E5B" stroke-width="2.5" stroke-miterlimit="10" stroke-linecap="round" stroke-linejoin="round"/>
<path d="M423.781 159.46C423.781 159.46 425.246 163.417 424.807 166.714" stroke="#0B1E5B" stroke-width="2.5" stroke-miterlimit="10" stroke-linecap="round" stroke-linejoin="round"/>
<path d="M267.466 164.223L274.498 175.58C277.941 181.149 284.606 183.786 290.906 182.101L326.725 179.903C335.515 177.558 340.496 160.559 336.834 152.206L330.388 137.478C327.311 130.371 319.18 126.854 311.855 129.418L275.084 142.387C266.221 145.611 262.485 156.163 267.466 164.223Z" fill="#BBD3F9"/>
<path d="M325.26 131.25L349.433 160.193L329.582 163.05L325.26 131.25Z" fill="#BBD3F9"/>
<path d="M282.995 153.671L290.833 174.554L292.664 181.295" stroke="#0B1E5B" stroke-width="2.5" stroke-miterlimit="10" stroke-linecap="round" stroke-linejoin="round"/>
<path d="M300.428 149.935L310.464 180.782" stroke="#0B1E5B" stroke-width="2.5" stroke-miterlimit="10" stroke-linecap="round" stroke-linejoin="round"/>
<path d="M314.932 146.051L320.426 159.02C322.77 164.589 323.868 170.597 323.575 176.606L323.429 180.123" stroke="#0B1E5B" stroke-width="2.5" stroke-miterlimit="10" stroke-linecap="round" stroke-linejoin="round"/>
<path d="M333.244 144.292L338.079 161.804" stroke="#0B1E5B" stroke-width="2.5" stroke-miterlimit="10" stroke-linecap="round" stroke-linejoin="round"/>
<path d="M310.464 359.275L363.79 329.893" stroke="#BBD3F9" stroke-width="2.5" stroke-miterlimit="10" stroke-linecap="round" stroke-linejoin="round"/>
<path d="M480.33 200.859C505.382 183.787 533.29 181.515 564.568 196.902L611.594 470.576H471.98L480.33 200.859Z" fill="white"/>
<path d="M343.719 472.115H494.834L485.531 195.804C485.531 195.804 460.553 208.48 425.759 260.064L377.195 332.164C338.079 397.011 343.719 472.115 343.719 472.115Z" fill="#0B1E5B"/>
<path d="M441.362 324.617L445.83 403.898" stroke="#0B1E5B" stroke-width="1.5" stroke-miterlimit="10" stroke-linecap="round" stroke-linejoin="round"/>
<path d="M541.787 188.696L546.036 471.089H744.104C744.104 471.016 709.603 219.324 541.787 188.696Z" fill="#0B1E5B"/>
<path d="M469.343 235.664L471.98 314.652" stroke="#BBD3F9" stroke-width="2.5" stroke-miterlimit="10" stroke-linecap="round" stroke-linejoin="round"/>
<path d="M572.333 287.248L604.856 377.667" stroke="#BBD3F9" stroke-width="2.5" stroke-miterlimit="10" stroke-linecap="round" stroke-linejoin="round"/>
<path d="M564.202 308.351L586.103 325.57" stroke="#BBD3F9" stroke-width="2.5" stroke-miterlimit="10" stroke-linecap="round" stroke-linejoin="round"/>
<path d="M530.8 132.422C531.606 133.594 532.045 135.133 532.045 137.038C531.752 144.659 528.236 149.714 528.236 149.714L479.012 155.503C479.012 155.503 467.219 147.883 477.401 127.366L530.8 132.422Z" fill="#F77777"/>
<path d="M521.79 163.05C527.138 162.244 531.166 157.481 530.8 151.839C530.507 146.93 526.698 142.826 521.864 142.094C519.373 141.727 517.029 142.24 515.051 143.339C511.682 140.262 507.287 138.43 502.672 138.21L484.579 137.478C484.579 137.478 483.554 139.896 482.382 143.559C481.796 143.413 481.21 143.339 480.551 143.339C474.691 143.266 469.856 147.956 469.783 153.817C469.71 158.873 473.152 163.123 477.84 164.222C477.547 169.058 478.06 173.454 480.038 176.459C487.143 187.156 498.57 180.049 498.57 180.049L498.717 199.246C498.717 203.276 500.694 209.724 507.58 209.724C519.813 209.724 526.918 198.221 529.701 188.622L521.79 163.05Z" fill="#BBD3F9"/>
<path d="M493.663 149.201L489.487 159.093L492.857 159.166" stroke="#0B1E5B" stroke-width="2" stroke-miterlimit="10" stroke-linecap="round" stroke-linejoin="round"/>
<path d="M497.178 164.149C495.567 165.761 493.589 166.641 490.806 166.348" stroke="#0B1E5B" stroke-width="2" stroke-miterlimit="10" stroke-linecap="round" stroke-linejoin="round"/>
<path d="M518.274 151.18C518.274 151.18 519.666 148.542 524.94 148.616" stroke="#0B1E5B" stroke-width="2" stroke-miterlimit="10" stroke-linecap="round" stroke-linejoin="round"/>
<path d="M522.157 155.21C522.157 155.21 524.208 151.254 519.593 149.861" stroke="#0B1E5B" stroke-width="2" stroke-miterlimit="10" stroke-linecap="round" stroke-linejoin="round"/>
<path d="M479.818 153.085C479.818 153.085 479.452 150.154 474.471 148.396" stroke="#0B1E5B" stroke-width="2" stroke-miterlimit="10" stroke-linecap="round" stroke-linejoin="round"/>
<path d="M474.691 155.503C474.691 155.503 474.178 151.107 478.939 151.4" stroke="#0B1E5B" stroke-width="2" stroke-miterlimit="10" stroke-linecap="round" stroke-linejoin="round"/>
<path d="M498.351 180.049C498.351 180.049 504.211 176.825 507.653 171.843C507.653 171.843 505.676 185.032 498.644 185.838L498.351 180.049Z" fill="#0B1E5B"/>
<path d="M502.452 147.809C502.452 147.809 499.888 146.49 496.958 146.71" stroke="#0B1E5B" stroke-width="2" stroke-miterlimit="10" stroke-linecap="round" stroke-linejoin="round"/>
<path d="M489.121 149.715C489.121 149.715 487.436 149.129 485.605 149.788" stroke="#0B1E5B" stroke-width="2" stroke-miterlimit="10" stroke-linecap="round" stroke-linejoin="round"/>
<path d="M489.194 149.054C489.194 149.054 488.095 147.662 486.191 147.223" stroke="#0B1E5B" stroke-width="2" stroke-miterlimit="10" stroke-linecap="round" stroke-linejoin="round"/>
<path d="M499.449 153.525C500.46 153.525 501.28 152.705 501.28 151.693C501.28 150.681 500.46 149.861 499.449 149.861C498.438 149.861 497.618 150.681 497.618 151.693C497.618 152.705 498.438 153.525 499.449 153.525Z" fill="#0B1E5B"/>
<path d="M469.49 127.293C469.49 127.293 460.041 99.0101 488.388 100.549C516.663 102.161 507.507 119.6 521.278 121.358C535.049 123.117 534.975 137.918 534.975 137.918L469.49 127.293Z" fill="white"/>
<path d="M465.9 128.392L469.49 127.293L534.975 137.991C534.975 137.991 485.238 141.581 465.827 135.426C462.311 134.254 462.384 129.418 465.9 128.392Z" fill="#0B1E5B"/>
<path d="M534.169 138.211C534.096 138.211 534.023 138.211 533.95 138.211L468.464 127.513C467.658 127.367 467.146 126.634 467.292 125.901C467.439 125.095 468.171 124.583 468.904 124.729L534.389 135.427C535.195 135.573 535.708 136.306 535.561 137.039C535.488 137.772 534.829 138.211 534.169 138.211Z" fill="#BBD3F9"/>
<path d="M483.114 121.505C485.622 121.505 487.656 119.471 487.656 116.962C487.656 114.453 485.622 112.419 483.114 112.419C480.606 112.419 478.573 114.453 478.573 116.962C478.573 119.471 480.606 121.505 483.114 121.505Z" fill="#FFD7D7"/>
<path d="M535.854 452.258H501.646C500.255 426.466 490.146 402.945 474.178 384.627L497.984 360.813C500.474 358.322 500.474 354.292 497.984 351.801C495.493 349.309 491.465 349.309 488.974 351.801L465.314 375.468C447.148 358.835 423.562 348.137 397.558 346.305V313.919C397.558 310.402 394.701 307.544 391.185 307.544C387.669 307.544 384.813 310.402 384.813 313.919V346.159C358.369 347.258 334.27 357.589 315.591 374.002L293.397 351.801C290.906 349.309 286.877 349.309 284.387 351.801C281.896 354.292 281.896 358.322 284.387 360.813L306.508 382.942C289.588 401.48 278.893 425.66 277.501 452.258H246.37C242.854 452.258 239.997 455.115 239.997 458.632C239.997 462.149 242.854 465.007 246.37 465.007H277.501C279.113 491.532 289.881 515.565 306.728 533.957L284.24 556.451C281.75 558.943 281.75 562.973 284.24 565.464C286.731 567.955 290.76 567.955 293.25 565.464L315.811 542.896C334.417 559.089 358.369 569.274 384.666 570.447V603.419C384.666 606.936 387.523 609.794 391.039 609.794C394.555 609.794 397.412 606.936 397.412 603.419V570.3C423.269 568.468 446.709 557.917 464.802 541.504L488.828 565.537C491.318 568.029 495.347 568.029 497.837 565.537C500.328 563.046 500.328 559.016 497.837 556.525L473.738 532.418C489.707 514.246 499.962 490.799 501.5 465.08H535.708C539.224 465.08 542.08 462.223 542.08 458.706C542.227 455.115 539.37 452.258 535.854 452.258ZM488.461 452.258H418.874C418.141 449.107 416.896 446.176 415.285 443.538L464.875 393.933C478.426 409.833 487.143 430.056 488.461 452.258ZM455.938 384.773L406.275 434.452C403.638 432.767 400.708 431.521 397.558 430.862V359.494C419.899 361.326 440.19 370.559 455.938 384.773ZM384.739 359.275V430.789C381.59 431.521 378.66 432.767 376.023 434.379L324.894 383.235C341.082 369.24 361.885 360.447 384.739 359.275ZM315.738 392.247L366.94 443.465C365.255 446.103 364.01 449.034 363.35 452.184H290.686C292.078 429.25 301.308 408.441 315.738 392.247ZM290.76 465.007H363.35C364.083 468.158 365.328 471.089 366.94 473.726L316.031 524.651C301.601 508.678 292.298 487.868 290.76 465.007ZM325.26 533.59L376.023 482.812C378.66 484.498 381.59 485.743 384.739 486.403V557.257C362.105 556.158 341.449 547.439 325.26 533.59ZM397.558 557.038V486.403C400.708 485.67 403.638 484.424 406.275 482.812L455.572 532.125C439.897 546.193 419.753 555.279 397.558 557.038ZM464.509 523.039L415.285 473.8C416.969 471.162 418.215 468.231 418.874 465.08H488.388C486.923 487.135 478.206 507.212 464.509 523.039Z" fill="#F77777"/>
<path d="M466.779 343.888L493.589 319.415C496.738 316.557 499.961 316.85 505.968 321.027C513.806 326.449 515.417 312.967 532.045 330.699L551.603 352.534L739.196 493.95L605.954 516.225L464.582 372.537C457.623 364.038 458.575 351.435 466.779 343.888Z" fill="#BBD3F9"/>
<path d="M463.336 347.698L478.353 363.086" stroke="#0B1E5B" stroke-width="2.5" stroke-miterlimit="10" stroke-linecap="round" stroke-linejoin="round"/>
<path d="M474.763 336.634L489.779 352.021" stroke="#0B1E5B" stroke-width="2.5" stroke-miterlimit="10" stroke-linecap="round" stroke-linejoin="round"/>
<path d="M488.314 324.397L503.331 339.858" stroke="#0B1E5B" stroke-width="2.5" stroke-miterlimit="10" stroke-linecap="round" stroke-linejoin="round"/>
<path d="M505.968 321.026L523.987 333.922" stroke="#0B1E5B" stroke-width="2.5" stroke-miterlimit="10" stroke-linecap="round" stroke-linejoin="round"/>
<path d="M969.787 671.783L268.858 666.287C161.034 666.287 73.6465 578.873 73.6465 471.016H967.004L969.787 671.783Z" fill="#7DACEF"/>
<path d="M102.8 519.01H499.815" stroke="#0B1E5B" stroke-width="2.5" stroke-miterlimit="10" stroke-linecap="round" stroke-linejoin="round"/>
<path d="M566.766 518.569H917.487" stroke="#0B1E5B" stroke-width="2.5" stroke-miterlimit="10" stroke-linecap="round" stroke-linejoin="round"/>
<path d="M346.796 566.93H591.158" stroke="#0B1E5B" stroke-width="2.5" stroke-miterlimit="10" stroke-linecap="round" stroke-linejoin="round"/>
<path d="M706.6 566.93H790.471" stroke="#0B1E5B" stroke-width="2.5" stroke-miterlimit="10" stroke-linecap="round" stroke-linejoin="round"/>
<path d="M188.283 614.851H483.407" stroke="#0B1E5B" stroke-width="2.5" stroke-miterlimit="10" stroke-linecap="round" stroke-linejoin="round"/>
<path d="M567.938 614.851H671.22" stroke="#0B1E5B" stroke-width="2.5" stroke-miterlimit="10" stroke-linecap="round" stroke-linejoin="round"/>
<path d="M974.109 470.649H58.6301" stroke="#0B1E5B" stroke-width="2.5" stroke-miterlimit="10" stroke-linecap="round" stroke-linejoin="round"/>
<path d="M15.9255 645.698C15.9255 645.698 63.0985 589.864 157.371 617.195C251.644 644.452 289.661 588.545 368.258 609.648C446.855 630.824 486.117 668.046 544.497 632.069C602.805 596.092 672.905 599.609 740.807 622.177C800.799 642.108 853.027 574.623 938.509 604.812C992.495 623.863 1025.75 671.783 1025.75 671.783H0.25L15.9255 645.698Z" fill="#BBD3F9"/>
</svg>
