<svg width="30" height="30" viewBox="0 0 30 30" fill="none" xmlns="http://www.w3.org/2000/svg">
<g id="vuesax/bulk/arrow-circle-right">
<g id="arrow-circle-right">
<path id="Vector" opacity="0.4" d="M14.8783 27.5C21.7259 27.5 27.2771 21.9036 27.2771 15C27.2771 8.09644 21.7259 2.5 14.8783 2.5C8.03062 2.5 2.47949 8.09644 2.47949 15C2.47949 21.9036 8.03062 27.5 14.8783 27.5Z" fill="#1A1A1A"/>
<path id="Vector_2" d="M13.3165 20.35C13.0809 20.35 12.8453 20.2625 12.6593 20.075C12.2998 19.7125 12.2998 19.1125 12.6593 18.75L16.379 15L12.6593 11.25C12.2998 10.8875 12.2998 10.2875 12.6593 9.92495C13.0189 9.56245 13.614 9.56245 13.9736 9.92495L18.3504 14.3375C18.7099 14.7 18.7099 15.3 18.3504 15.6625L13.9736 20.075C13.7876 20.2625 13.552 20.35 13.3165 20.35Z" fill="#1A1A1A"/>
</g>
</g>
</svg>

