<?xml version="1.0" encoding="UTF-8"?>
<svg id="Layer_1" data-name="Layer 1" xmlns="http://www.w3.org/2000/svg" version="1.1" viewBox="0 0 735.4 958.3">
  <defs>
    <style>
      .cls-1 {
        stroke: #ffce17;
      }

      .cls-1, .cls-2, .cls-3, .cls-4 {
        fill: none;
        stroke-miterlimit: 10;
        stroke-width: 7px;
      }

      .cls-5 {
        fill: #231f20;
        stroke-width: 0px;
      }

      .cls-2 {
        stroke: #000;
      }

      .cls-3 {
        stroke: #231f20;
      }

      .cls-4 {
        stroke: #010101;
      }
    </style>
  </defs>
  <path class="cls-1" d="M530.9,502.2v42.2c-12.9-6.7-26.9-12.4-42.8-16.3v-.9c16.8-6.4,31-14.9,42.8-25h0Z"/>
  <path class="cls-4" d="M364.3,954.6c2.2,0,4.5-.3,6.9-.3,5.1-18,10.2-35.8,15.9-56.1h-38.9c5.8,20.6,11,38.6,16.1,56.4h0Z"/>
  <path class="cls-1" d="M488.1,664c0,24.4-9.3,42.8-28.2,55.5-18.7,12.7-44.1,19-76.1,19h-94.3v-150.6h95.2c34.2,0,60,6.7,77.4,20.3,17.4,13.4,26,32.1,26,55.8h0Z"/>
  <path class="cls-4" d="M459.5,838.7c-26.9,30.2-58.3,47.6-91.9,47.6s-63.2-16.5-89.5-45.1h140.5c14.5,0,28-.9,40.9-2.5Z"/>
  <path class="cls-1" d="M461.7,424.9c0,22.6-8.6,39.9-25.7,51.7-17.1,11.8-38,17.8-62.9,17.8h-83.5v-138.3h76.2c64,0,96,22.9,96,68.8h0Z"/>
  <path class="cls-2" d="M487.3,37.5c-2.9.6-72.4,15.5-72.4,69.4l-.3,3.4c20.3,9.2,37.5,24.1,49.7,42.7,17.4,26.5,18.6,51.8,19.2,64.5,1.2,24.5-5.4,38.4-6.9,41.3-1.1,2.2-2.2,4-2.9,5.2-29.9-6.4-67.7-11.9-111.4-12.1-39.2-.1-73.4,4-101.3,9.3-6.1-10.9-12.1-25.7-12.9-43.6-2.9-62.5,60.2-102.5,64.3-105-.7-1.8-1-3.7-1-5.6,0-54.3-71.7-69.2-72.4-69.4-9.2-2.2-15.1-11.5-12.8-20.8,2-8.9,10.7-14.6,19.5-13.1,33.8,6.7,96.6,35.6,100,97.7,6.6-1,13.1-1.6,20-1.6s9.9.3,14.9.9c4.1-61.7,66.7-90.4,99.9-97.2,2.4-.5,18.2,4.3,19.9,14.2,1.2,6.6-4.2,14.2-13.1,19.8Z"/>
  <path class="cls-3" d="M192.6,280.3c.1,5.3-2,13.4-6.6,24.2-13.7,32.1-33.7,58.9-63.4,77.7-10.8,6.9-21.9,10.8-32.6,12.4h0c-.4,0-.7.1-1.2.1-3.2.4-6.3.6-9.3.6-26.2.1-51-13.7-68.8-36.6-5-6.4-7.1-12.7-7.1-18.5s2.5-12.5,8.3-19c9.3-9.9,20.6-18.8,32.4-25.1,34.3-18.5,71.5-27.7,104.1-29.9,1.3-.1,2.5-.3,3.7-.3h5.6c3.2,0,6.3,0,9,.3,9.5.4,16.2,1.9,20,4,2.5,1.1,3.8,2.5,4.7,3.9.7,1.5,1.3,3.2,1.3,6.3h0Z"/>
  <path class="cls-3" d="M731.9,340.2h-.1c0,5.8-2.2,12.1-7.2,18.5-3.8,4.8-7.7,9.2-12.1,13.1-16.2,15-36.1,23.7-56.7,23.5-3.7,0-7.2-.3-10.8-.7-10.8-1.6-21.6-5.5-32.6-12.4-21.3-13.6-37.5-31.1-49.9-51.8-.3-.3-.4-.6-.4-.9-1.6-3.2-3.4-6.1-5.3-9.1-2.8-5.1-5.3-10.4-7.6-15.9-4.5-10.8-6.7-19-6.7-24.2s.6-4.8,1.5-6.3c1.2-2,3.7-4.1,9.2-5.7,1-.3,2.2-.6,3.4-.7h44.8c28.9,3.7,60.5,12.7,89.7,28.5,11.8,6.3,23.1,15.2,32.3,25.1,6,6.4,8.5,12.7,8.5,19Z"/>
  <path class="cls-5" d="M556.8,320.4c1.9,3,3.7,5.9,5.3,9.1-1.9-2.9-3.7-6-5.3-9.1Z"/>
  <path class="cls-5" d="M601.4,267.6h-44.8c5.3-1.2,12.4-1.8,21-1.8h5.7c5.8.3,12,.9,18.1,1.8Z"/>
</svg>