<?xml version="1.0" encoding="UTF-8"?>
<svg id="Layer_1" data-name="Layer 1" xmlns="http://www.w3.org/2000/svg" version="1.1" viewBox="0 0 728.3 951.3">
  <defs>
    <style>
      .cls-1 {
        fill: #010101;
      }

      .cls-1, .cls-2, .cls-3 {
        stroke-width: 0px;
      }

      .cls-2 {
        fill: #ffce17;
      }

      .cls-3 {
        fill: #231f20;
      }
    </style>
  </defs>
  <path class="cls-2" d="M527.4,498.9v42.2c-12.9-6.7-26.9-12.4-42.8-16.3v-.9c16.8-6.4,31-14.9,42.8-25Z"/>
  <path class="cls-3" d="M728.3,336.9c0,5.8-2.2,12.1-7.2,18.5-3.8,4.8-7.7,9.2-12.1,13.1h-67.5v22.8c-10.8-1.6-21.6-5.5-32.6-12.4-21.3-13.6-37.5-31.1-49.9-51.8-.3-.3-.4-.6-.4-.9-1.6-3.2-3.4-6.1-5.3-9.1-2.8-5.1-5.3-10.4-7.6-15.9-4.5-10.8-6.7-19-6.7-24.2s.6-4.8,1.5-6.3c1.2-2,3.7-4.1,9.2-5.7,1-.3,2.2-.6,3.4-.7h44.8c28.9,3.7,60.5,12.7,89.7,28.5,11.8,6.3,23.1,15.2,32.3,25.1,6,6.4,8.5,12.7,8.5,19Z"/>
  <path class="cls-1" d="M360.8,951.3c2.2-.1,4.5-.3,6.9-.3,5.1-18,10.2-35.8,15.9-56.1h-38.9c5.8,20.6,11,38.6,16.1,56.4Z"/>
  <path class="cls-2" d="M484.6,660.7c0,24.4-9.3,42.8-28.2,55.5-18.7,12.7-44.1,19-76.1,19h-94.3v-150.6h95.2c34.2,0,60,6.7,77.4,20.3,17.4,13.4,26,32.1,26,55.8Z"/>
  <path class="cls-1" d="M456,835.4c-26.9,30.2-58.3,47.6-91.9,47.6s-63.2-16.5-89.5-45.1h140.5c14.5,0,28-.9,40.9-2.5Z"/>
  <path class="cls-2" d="M458.2,421.6c0,22.6-8.6,39.9-25.7,51.7-17.1,11.8-38,17.8-62.9,17.8h-83.5v-138.3h76.2c64,0,96,22.9,96,68.8Z"/>
  <path class="cls-1" d="M483.8,34.2c-2.9.6-72.4,15.5-72.4,69.4l-.3,3.4c40.6,18.5,68.9,59.6,68.9,107.2s-3.7,32.1-9.8,46.5c-2.9-.7-5.8-1.5-8.9-2.2-4.7-1-9.3-2.2-14.2-3-19.1-3.4-40.3-5-63.4-5h-133.1c-3.8-11.5-6-23.5-6-36.2,0-45.7,26.2-85.4,64.3-105-.7-1.8-1-3.7-1-5.6,0-54.3-71.7-69.2-72.4-69.4-9.2-2.2-15.1-11.5-12.8-20.8,2-8.9,10.7-14.6,19.5-13.1,33.8,6.7,96.6,35.6,100,97.7,6.6-1,13.1-1.6,20-1.6s9.9.3,14.9.9C381.2,35.7,443.8,7,477,.2c9.4-1.6,18.2,4.7,19.9,14.2,1.6,8.9-4.1,17.7-13.1,19.7Z"/>
  <path class="cls-3" d="M189.1,277c.1,5.3-2,13.4-6.6,24.2-13.7,32.1-33.7,58.9-63.4,77.7-10.8,6.9-21.9,10.8-32.6,12.4h-.1c-.4,0-.7.1-1.2.1-3.2.4-6.3.6-9.3.6-26.2.1-51-13.7-68.8-36.6-5-6.4-7.1-12.7-7.1-18.5s2.5-12.5,8.3-19c9.3-9.9,20.6-18.8,32.4-25.1,34.3-18.5,71.5-27.7,104.1-29.9,1.3-.1,2.5-.3,3.7-.3h5.6c3.2,0,6.3,0,9,.3,9.5.4,16.2,1.9,20,4,2.5,1.1,3.8,2.5,4.7,3.9.7,1.5,1.3,3.2,1.3,6.3Z"/>
  <path class="cls-3" d="M728.3,336.9c0,5.8-2.2,12.1-7.2,18.5-3.8,4.8-7.7,9.2-12.1,13.1-16.2,15-36.1,23.7-56.7,23.5-3.7,0-7.2-.3-10.8-.7-10.8-1.6-21.6-5.5-32.6-12.4-21.3-13.6-37.5-31.1-49.9-51.8-.3-.3-.4-.6-.4-.9-1.9-2.9-3.7-6-5.3-9.1-2.8-5.1-5.3-10.4-7.6-15.9-4.5-10.8-6.7-19-6.7-24.2s.6-4.8,1.5-6.3c1.2-2,3.7-4.1,9.2-5.7,1-.3,2.2-.6,3.4-.7,5.3-1.2,12.4-1.8,21-1.8h5.7c5.8.3,12,.9,18.1,1.8,28.9,3.7,60.5,12.7,89.7,28.5,11.8,6.3,23.1,15.2,32.3,25.1,6,6.4,8.5,12.7,8.5,19Z"/>
</svg>