<?xml version="1.0" encoding="utf-8"?>
<!-- Generator: Adobe Illustrator 25.2.3, SVG Export Plug-In . SVG Version: 6.00 Build 0)  -->
<svg version="1.1" id="Layer_1" xmlns="http://www.w3.org/2000/svg" xmlns:xlink="http://www.w3.org/1999/xlink" x="0px" y="0px"
	 viewBox="0 0 408.6 660.4" style="enable-background:new 0 0 408.6 660.4;" xml:space="preserve">
<style type="text/css">
	.st0{opacity:0.5;}
	.st1{fill-rule:evenodd;clip-rule:evenodd;fill:#FFFFFF;filter:url(#Adobe_OpacityMaskFilter);}
	.st2{mask:url(#path-1-inside-1_137_1487_1_);fill:url(#SVGID_1_);}
	.st3{fill:none;stroke:url(#SVGID_2_);}
</style>
<g class="st0">
	<defs>
		<filter id="Adobe_OpacityMaskFilter" filterUnits="userSpaceOnUse" x="0" y="0" width="408.6" height="564.4">
			<feColorMatrix  type="matrix" values="1 0 0 0 0  0 1 0 0 0  0 0 1 0 0  0 0 0 1 0"/>
		</filter>
	</defs>
	<mask maskUnits="userSpaceOnUse" x="0" y="0" width="408.6" height="564.4" id="path-1-inside-1_137_1487_1_">
		<path class="st1" d="M213.6,16.4l172.7,170.7c38.2,43.1,14.5,76.4,9.2,83.8c-0.7,0.9-1,1.4-1,1.5l-59.8,60.9L129.6,129.6
			c-20.3-27.8-26.5-58-13.5-90.6l16.4-14.9C175.9-22.9,213.6,16.4,213.6,16.4z M13.3,462.8l129.8-133.3l51.1,50.4
			c24.6,24.9,24.6,64.7,0,89.7l-76.7,75.3c-19.8,20.1-50.7,24-74.8,11l-20.7-23C-19.5,489.2,13.3,462.8,13.3,462.8z"/>
	</mask>
	
		<linearGradient id="SVGID_1_" gradientUnits="userSpaceOnUse" x1="-101.8236" y1="416.57" x2="398.3471" y2="594.5359" gradientTransform="matrix(1 0 0 -1 0 780.0005)">
		<stop  offset="0" style="stop-color:#02ED5E"/>
		<stop  offset="1" style="stop-color:#0B76E0"/>
	</linearGradient>
	<path class="st2" d="M386.3,187.1l0.7-0.7l0,0l0,0L386.3,187.1z M213.6,16.4l-0.7,0.7l0,0l0,0L213.6,16.4z M395.5,270.9l-0.8-0.6
		L395.5,270.9z M394.5,272.5l0.7,0.7l0.5-0.5l-0.3-0.6L394.5,272.5z M334.7,333.4l-0.7,0.7l0.7,0.7l0.7-0.7L334.7,333.4z
		 M129.6,129.6l-0.8,0.6l0,0.1l0.1,0.1L129.6,129.6z M116.1,38.9l-0.7-0.7l-0.2,0.2l-0.1,0.2L116.1,38.9z M132.5,24.1l0.7,0.7l0,0
		l0,0L132.5,24.1z M143.1,329.5l0.7-0.7l-0.7-0.7l-0.7,0.7L143.1,329.5z M13.3,462.8l0.6,0.8l0,0l0,0L13.3,462.8z M194.3,379.9
		l0.7-0.7l0,0l0,0L194.3,379.9z M194.3,469.6l0.7,0.7l0,0l0,0L194.3,469.6z M117.5,544.8l-0.7-0.7l0,0l0,0L117.5,544.8z M42.7,555.9
		l-0.7,0.7l0.1,0.1l0.2,0.1L42.7,555.9z M22,532.9l0.7-0.7l0,0l0,0L22,532.9z M387,186.4L214.3,15.7l-1.4,1.4l172.7,170.7L387,186.4
		z M396.3,271.5c2.7-3.7,10.1-14.1,11.9-29c1.9-14.9-1.9-34.3-21.2-56.1l-1.5,1.3c19,21.4,22.5,40.2,20.7,54.5
		c-1.8,14.4-8.9,24.4-11.6,28.1L396.3,271.5z M395.4,272c0.1,0.2,0.1,0.3,0.1,0.4c0,0.1,0,0.2,0,0.2c0,0.1,0,0.1,0,0.1
		c0,0,0-0.1,0.1-0.2c0.2-0.2,0.4-0.6,0.7-1l-1.6-1.2c-0.3,0.4-0.6,0.8-0.8,1.1c-0.1,0.1-0.2,0.3-0.2,0.4c0,0.1-0.1,0.2-0.1,0.3
		c0,0.1-0.1,0.4,0.1,0.7L395.4,272z M335.4,334.1l59.8-60.9l-1.4-1.4L334,332.7L335.4,334.1z M128.9,130.3L334,334.1l1.4-1.4
		L130.3,128.9L128.9,130.3z M115.2,38.6c-13.2,33-6.8,63.5,13.6,91.6l1.6-1.2c-20.1-27.6-26.3-57.4-13.4-89.7L115.2,38.6z
		 M131.8,23.3l-16.4,14.9l1.3,1.5l16.4-14.9L131.8,23.3z M213.6,16.4c0.7-0.7,0.7-0.7,0.7-0.7c0,0,0,0,0,0c0,0,0,0,0,0c0,0,0,0,0,0
		c0,0-0.1-0.1-0.1-0.1c-0.1-0.1-0.2-0.2-0.3-0.3c-0.3-0.3-0.7-0.7-1.3-1.2c-1.1-1-2.8-2.4-4.9-3.9c-4.3-3-10.4-6.5-18-8.5
		c-7.6-2-16.5-2.5-26.4,0.4c-9.8,3-20.5,9.4-31.4,21.3l1.5,1.4C144,13.1,154.3,6.9,163.8,4c9.4-2.9,18-2.4,25.3-0.4
		c7.3,1.9,13.2,5.3,17.4,8.2c2.1,1.5,3.7,2.8,4.8,3.7c0.5,0.5,1,0.9,1.2,1.1c0.1,0.1,0.2,0.2,0.3,0.3c0,0,0.1,0.1,0.1,0.1
		c0,0,0,0,0,0c0,0,0,0,0,0c0,0,0,0,0,0C212.8,17.1,212.8,17.1,213.6,16.4z M142.4,328.8L12.6,462.2l1.4,1.4l129.8-133.3L142.4,328.8
		z M195,379.2l-51.1-50.4l-1.4,1.4l51.1,50.4L195,379.2z M195,470.3c25-25.3,25-65.8,0-91.1l-1.4,1.4c24.2,24.5,24.2,63.7,0,88.3
		L195,470.3z M118.2,545.6l76.7-75.3l-1.4-1.4l-76.7,75.3L118.2,545.6z M42.3,556.8c24.5,13.1,55.9,9.3,76-11.2l-1.4-1.4
		C97.4,564,67,567.7,43.2,555L42.3,556.8z M21.3,533.5l20.7,23l1.5-1.3l-20.7-23L21.3,533.5z M13.3,462.8c-0.6-0.8-0.6-0.8-0.6-0.8
		c0,0,0,0,0,0c0,0,0,0,0,0c0,0,0,0,0,0c0,0,0,0-0.1,0.1c-0.1,0.1-0.2,0.1-0.3,0.2c-0.2,0.2-0.6,0.5-1,0.9c-0.8,0.8-2,2.1-3.2,3.7
		c-2.5,3.2-5.4,8-6.9,14.2c-3.1,12.5-0.8,30.3,20.1,52.3l1.4-1.4C2.2,510.5,0.2,493.4,3.1,481.7c1.5-5.9,4.2-10.4,6.6-13.5
		c1.2-1.5,2.3-2.7,3.1-3.5c0.4-0.4,0.7-0.7,0.9-0.9c0.1-0.1,0.2-0.2,0.2-0.2c0,0,0,0,0.1,0c0,0,0,0,0,0c0,0,0,0,0,0c0,0,0,0,0,0
		C13.9,463.6,13.9,463.6,13.3,462.8z"/>
	
		<linearGradient id="SVGID_2_" gradientUnits="userSpaceOnUse" x1="-97.1114" y1="352.1799" x2="405.6833" y2="510.9895" gradientTransform="matrix(1 0 0 -1 0 780.0005)">
		<stop  offset="0" style="stop-color:#02ED5E"/>
		<stop  offset="1" style="stop-color:#0B76E0"/>
	</linearGradient>
	<path class="st3" d="M41.6,227.5L41.6,227.5L193.8,379l0,0c24.8,25.1,24.8,65.2,0,90.4l0,0l-75.8,75.3l0,0
		c-20.1,19.5-49.6,23.8-73.5,12.2l85.6,84.9c24.4,24.3,64.7,24.3,89.1,0l0,0l168.6-166.9l0,0 M41.6,227.5l-15.4-14.9c0,0,0,0,0,0
		c-24.4-24.7-24.4-64.7,0-89L46.9,103l8.7-8.1l0,0l0,0L74,76.7l40.9-36.9 M387.7,474.9c24.9-24.7,24.9-64.7,0-89l0,0L129.3,129.4
		l0,0l0,0c-20-27.4-26.9-57.1-14.4-89.6 M114.9,39.7 M387.7,474.9"/>
</g>
</svg>
