<svg width="1063" height="480" viewBox="0 0 1063 480" fill="none" xmlns="http://www.w3.org/2000/svg">
<rect x="61.5" y="62.5" width="1000" height="395" stroke="#ECECEC"/>
<path d="M60.6123 260H1062.15" stroke="#ECECEC"/>
<path d="M60.6123 194H1062.15" stroke="#ECECEC"/>
<path d="M60.6123 128H1061.61" stroke="#ECECEC"/>
<path d="M60.6123 326H1062.15" stroke="#ECECEC"/>
<path d="M60.6123 392H1062.15" stroke="#ECECEC"/>
<path d="M14.0268 73.14C13.1961 73.14 12.4681 72.944 11.8428 72.552C11.2175 72.16 10.7928 71.628 10.5688 70.956L11.6888 70.382C11.8661 70.9327 12.1461 71.3573 12.5288 71.656C12.9115 71.9453 13.4481 72.09 14.1388 72.09C14.7361 72.09 15.2028 71.9313 15.5388 71.614C15.8748 71.2967 16.0428 70.8813 16.0428 70.368C16.0428 69.8547 15.8981 69.4767 15.6088 69.234C15.3195 68.9913 14.8481 68.87 14.1948 68.87C13.9895 68.87 13.7515 68.884 13.4808 68.912V67.792C13.5928 67.8013 13.7468 67.806 13.9428 67.806C14.6148 67.806 15.0955 67.6753 15.3848 67.414C15.6835 67.1433 15.8328 66.7233 15.8328 66.154C15.8328 65.678 15.6835 65.314 15.3848 65.062C15.0861 64.8007 14.6615 64.67 14.1108 64.67C13.5508 64.67 13.1121 64.7913 12.7948 65.034C12.4775 65.2767 12.2255 65.6313 12.0388 66.098L10.9748 65.594C11.2081 64.9967 11.6048 64.516 12.1648 64.152C12.7248 63.788 13.3828 63.606 14.1388 63.606C14.7548 63.606 15.2775 63.7133 15.7068 63.928C16.1361 64.1427 16.4581 64.432 16.6728 64.796C16.8875 65.16 16.9948 65.566 16.9948 66.014C16.9948 66.6487 16.8268 67.1713 16.4908 67.582C16.1548 67.9927 15.7441 68.2353 15.2588 68.31V68.338C15.6508 68.3473 15.9915 68.4453 16.2808 68.632C16.5795 68.8187 16.8081 69.066 16.9668 69.374C17.1255 69.6727 17.2048 69.9993 17.2048 70.354C17.2048 70.8953 17.0695 71.376 16.7988 71.796C16.5375 72.216 16.1641 72.5473 15.6788 72.79C15.2028 73.0233 14.6521 73.14 14.0268 73.14ZM22.4829 73.14C21.4189 73.14 20.5789 72.7293 19.9629 71.908C19.3469 71.0773 19.0389 69.9013 19.0389 68.38C19.0389 66.8587 19.3469 65.6873 19.9629 64.866C20.5789 64.0353 21.4189 63.62 22.4829 63.62C23.5469 63.62 24.3869 64.0353 25.0029 64.866C25.6189 65.6873 25.9269 66.8587 25.9269 68.38C25.9269 69.9013 25.6189 71.0773 25.0029 71.908C24.3869 72.7293 23.5469 73.14 22.4829 73.14ZM22.4829 72.132C23.2202 72.132 23.7849 71.8147 24.1769 71.18C24.5689 70.536 24.7649 69.6027 24.7649 68.38C24.7649 67.1573 24.5689 66.2287 24.1769 65.594C23.7849 64.95 23.2202 64.628 22.4829 64.628C21.7456 64.628 21.1809 64.95 20.7889 65.594C20.3969 66.2287 20.2009 67.1573 20.2009 68.38C20.2009 69.6027 20.3969 70.536 20.7889 71.18C21.1809 71.8147 21.7456 72.132 22.4829 72.132ZM28.3581 71.32C28.6848 71.32 28.9414 71.446 29.1281 71.698C29.3148 71.95 29.4081 72.2767 29.4081 72.678C29.4081 73.1727 29.2821 73.63 29.0301 74.05C28.7781 74.47 28.3954 74.8013 27.8821 75.044L27.2941 74.498C27.6581 74.3767 27.9614 74.1853 28.2041 73.924C28.4468 73.6627 28.6008 73.378 28.6661 73.07L28.6101 73.042C28.5261 73.1073 28.3954 73.14 28.2181 73.14C28.0221 73.14 27.8448 73.0653 27.6861 72.916C27.5274 72.7573 27.4481 72.538 27.4481 72.258C27.4481 72.006 27.5368 71.7867 27.7141 71.6C27.8914 71.4133 28.1061 71.32 28.3581 71.32ZM34.227 73.14C33.163 73.14 32.323 72.7293 31.707 71.908C31.091 71.0773 30.783 69.9013 30.783 68.38C30.783 66.8587 31.091 65.6873 31.707 64.866C32.323 64.0353 33.163 63.62 34.227 63.62C35.291 63.62 36.131 64.0353 36.747 64.866C37.363 65.6873 37.671 66.8587 37.671 68.38C37.671 69.9013 37.363 71.0773 36.747 71.908C36.131 72.7293 35.291 73.14 34.227 73.14ZM34.227 72.132C34.9644 72.132 35.529 71.8147 35.921 71.18C36.313 70.536 36.509 69.6027 36.509 68.38C36.509 67.1573 36.313 66.2287 35.921 65.594C35.529 64.95 34.9644 64.628 34.227 64.628C33.4897 64.628 32.925 64.95 32.533 65.594C32.141 66.2287 31.945 67.1573 31.945 68.38C31.945 69.6027 32.141 70.536 32.533 71.18C32.925 71.8147 33.4897 72.132 34.227 72.132ZM42.936 73.14C41.872 73.14 41.032 72.7293 40.416 71.908C39.8 71.0773 39.492 69.9013 39.492 68.38C39.492 66.8587 39.8 65.6873 40.416 64.866C41.032 64.0353 41.872 63.62 42.936 63.62C44 63.62 44.84 64.0353 45.456 64.866C46.072 65.6873 46.38 66.8587 46.38 68.38C46.38 69.9013 46.072 71.0773 45.456 71.908C44.84 72.7293 44 73.14 42.936 73.14ZM42.936 72.132C43.6734 72.132 44.238 71.8147 44.63 71.18C45.022 70.536 45.218 69.6027 45.218 68.38C45.218 67.1573 45.022 66.2287 44.63 65.594C44.238 64.95 43.6734 64.628 42.936 64.628C42.1987 64.628 41.634 64.95 41.242 65.594C40.85 66.2287 40.654 67.1573 40.654 68.38C40.654 69.6027 40.85 70.536 41.242 71.18C41.634 71.8147 42.1987 72.132 42.936 72.132ZM51.645 73.14C50.581 73.14 49.741 72.7293 49.125 71.908C48.509 71.0773 48.201 69.9013 48.201 68.38C48.201 66.8587 48.509 65.6873 49.125 64.866C49.741 64.0353 50.581 63.62 51.645 63.62C52.709 63.62 53.549 64.0353 54.165 64.866C54.781 65.6873 55.089 66.8587 55.089 68.38C55.089 69.9013 54.781 71.0773 54.165 71.908C53.549 72.7293 52.709 73.14 51.645 73.14ZM51.645 72.132C52.3823 72.132 52.947 71.8147 53.339 71.18C53.731 70.536 53.927 69.6027 53.927 68.38C53.927 67.1573 53.731 66.2287 53.339 65.594C52.947 64.95 52.3823 64.628 51.645 64.628C50.9077 64.628 50.343 64.95 49.951 65.594C49.559 66.2287 49.363 67.1573 49.363 68.38C49.363 69.6027 49.559 70.536 49.951 71.18C50.343 71.8147 50.9077 72.132 51.645 72.132Z" fill="#1A1A1A"/>
<path d="M11.2215 133.09C12.5002 132.147 13.4802 131.373 14.1615 130.766C14.8429 130.15 15.3282 129.595 15.6175 129.1C15.9162 128.596 16.0655 128.069 16.0655 127.518C16.0655 126.967 15.8882 126.524 15.5335 126.188C15.1789 125.843 14.7029 125.67 14.1055 125.67C13.4802 125.67 12.9715 125.875 12.5795 126.286C12.1969 126.697 11.9729 127.252 11.9075 127.952L10.9275 127.364C11.0489 126.533 11.3849 125.871 11.9355 125.376C12.4955 124.872 13.2329 124.62 14.1475 124.62C14.7635 124.62 15.3049 124.741 15.7715 124.984C16.2475 125.227 16.6115 125.567 16.8635 126.006C17.1155 126.445 17.2415 126.949 17.2415 127.518C17.2415 128.115 17.0969 128.689 16.8075 129.24C16.5275 129.791 16.0655 130.369 15.4215 130.976C14.7775 131.583 13.9095 132.25 12.8175 132.978V132.992C13.4335 132.964 13.8955 132.95 14.2035 132.95H17.4375V134H11.2215V133.09ZM22.3657 134.14C21.563 134.14 20.9097 133.963 20.4057 133.608C19.9017 133.244 19.5097 132.717 19.2297 132.026L20.3217 131.452C20.4803 131.984 20.7183 132.39 21.0357 132.67C21.3623 132.95 21.815 133.09 22.3937 133.09C23.0283 133.09 23.5277 132.917 23.8917 132.572C24.265 132.227 24.4517 131.751 24.4517 131.144C24.4517 130.491 24.2837 129.991 23.9477 129.646C23.6117 129.301 23.1263 129.128 22.4917 129.128C21.5303 129.128 20.8443 129.427 20.4337 130.024L19.4537 129.842L19.9997 124.76H25.1937V125.81H20.9517L20.5877 128.722L20.5597 128.848H20.5877C21.0823 128.335 21.787 128.078 22.7017 128.078C23.579 128.078 24.2837 128.353 24.8157 128.904C25.3477 129.445 25.6137 130.164 25.6137 131.06C25.6137 131.685 25.4783 132.231 25.2077 132.698C24.937 133.165 24.5543 133.524 24.0597 133.776C23.565 134.019 23.0003 134.14 22.3657 134.14ZM28.3581 132.32C28.6848 132.32 28.9414 132.446 29.1281 132.698C29.3148 132.95 29.4081 133.277 29.4081 133.678C29.4081 134.173 29.2821 134.63 29.0301 135.05C28.7781 135.47 28.3954 135.801 27.8821 136.044L27.2941 135.498C27.6581 135.377 27.9614 135.185 28.2041 134.924C28.4468 134.663 28.6008 134.378 28.6661 134.07L28.6101 134.042C28.5261 134.107 28.3954 134.14 28.2181 134.14C28.0221 134.14 27.8448 134.065 27.6861 133.916C27.5274 133.757 27.4481 133.538 27.4481 133.258C27.4481 133.006 27.5368 132.787 27.7141 132.6C27.8914 132.413 28.1061 132.32 28.3581 132.32ZM34.227 134.14C33.163 134.14 32.323 133.729 31.707 132.908C31.091 132.077 30.783 130.901 30.783 129.38C30.783 127.859 31.091 126.687 31.707 125.866C32.323 125.035 33.163 124.62 34.227 124.62C35.291 124.62 36.131 125.035 36.747 125.866C37.363 126.687 37.671 127.859 37.671 129.38C37.671 130.901 37.363 132.077 36.747 132.908C36.131 133.729 35.291 134.14 34.227 134.14ZM34.227 133.132C34.9644 133.132 35.529 132.815 35.921 132.18C36.313 131.536 36.509 130.603 36.509 129.38C36.509 128.157 36.313 127.229 35.921 126.594C35.529 125.95 34.9644 125.628 34.227 125.628C33.4897 125.628 32.925 125.95 32.533 126.594C32.141 127.229 31.945 128.157 31.945 129.38C31.945 130.603 32.141 131.536 32.533 132.18C32.925 132.815 33.4897 133.132 34.227 133.132ZM42.936 134.14C41.872 134.14 41.032 133.729 40.416 132.908C39.8 132.077 39.492 130.901 39.492 129.38C39.492 127.859 39.8 126.687 40.416 125.866C41.032 125.035 41.872 124.62 42.936 124.62C44 124.62 44.84 125.035 45.456 125.866C46.072 126.687 46.38 127.859 46.38 129.38C46.38 130.901 46.072 132.077 45.456 132.908C44.84 133.729 44 134.14 42.936 134.14ZM42.936 133.132C43.6734 133.132 44.238 132.815 44.63 132.18C45.022 131.536 45.218 130.603 45.218 129.38C45.218 128.157 45.022 127.229 44.63 126.594C44.238 125.95 43.6734 125.628 42.936 125.628C42.1987 125.628 41.634 125.95 41.242 126.594C40.85 127.229 40.654 128.157 40.654 129.38C40.654 130.603 40.85 131.536 41.242 132.18C41.634 132.815 42.1987 133.132 42.936 133.132ZM51.645 134.14C50.581 134.14 49.741 133.729 49.125 132.908C48.509 132.077 48.201 130.901 48.201 129.38C48.201 127.859 48.509 126.687 49.125 125.866C49.741 125.035 50.581 124.62 51.645 124.62C52.709 124.62 53.549 125.035 54.165 125.866C54.781 126.687 55.089 127.859 55.089 129.38C55.089 130.901 54.781 132.077 54.165 132.908C53.549 133.729 52.709 134.14 51.645 134.14ZM51.645 133.132C52.3823 133.132 52.947 132.815 53.339 132.18C53.731 131.536 53.927 130.603 53.927 129.38C53.927 128.157 53.731 127.229 53.339 126.594C52.947 125.95 52.3823 125.628 51.645 125.628C50.9077 125.628 50.343 125.95 49.951 126.594C49.559 127.229 49.363 128.157 49.363 129.38C49.363 130.603 49.559 131.536 49.951 132.18C50.343 132.815 50.9077 133.132 51.645 133.132Z" fill="#1A1A1A"/>
<path d="M11.0028 198.09C12.2815 197.147 13.2615 196.373 13.9428 195.766C14.6241 195.15 15.1095 194.595 15.3988 194.1C15.6975 193.596 15.8468 193.069 15.8468 192.518C15.8468 191.967 15.6695 191.524 15.3148 191.188C14.9601 190.843 14.4841 190.67 13.8868 190.67C13.2615 190.67 12.7528 190.875 12.3608 191.286C11.9781 191.697 11.7541 192.252 11.6888 192.952L10.7088 192.364C10.8301 191.533 11.1661 190.871 11.7168 190.376C12.2768 189.872 13.0141 189.62 13.9288 189.62C14.5448 189.62 15.0861 189.741 15.5528 189.984C16.0288 190.227 16.3928 190.567 16.6448 191.006C16.8968 191.445 17.0228 191.949 17.0228 192.518C17.0228 193.115 16.8781 193.689 16.5888 194.24C16.3088 194.791 15.8468 195.369 15.2028 195.976C14.5588 196.583 13.6908 197.25 12.5988 197.978V197.992C13.2148 197.964 13.6768 197.95 13.9848 197.95H17.2188V199H11.0028V198.09ZM22.4829 199.14C21.4189 199.14 20.5789 198.729 19.9629 197.908C19.3469 197.077 19.0389 195.901 19.0389 194.38C19.0389 192.859 19.3469 191.687 19.9629 190.866C20.5789 190.035 21.4189 189.62 22.4829 189.62C23.5469 189.62 24.3869 190.035 25.0029 190.866C25.6189 191.687 25.9269 192.859 25.9269 194.38C25.9269 195.901 25.6189 197.077 25.0029 197.908C24.3869 198.729 23.5469 199.14 22.4829 199.14ZM22.4829 198.132C23.2202 198.132 23.7849 197.815 24.1769 197.18C24.5689 196.536 24.7649 195.603 24.7649 194.38C24.7649 193.157 24.5689 192.229 24.1769 191.594C23.7849 190.95 23.2202 190.628 22.4829 190.628C21.7456 190.628 21.1809 190.95 20.7889 191.594C20.3969 192.229 20.2009 193.157 20.2009 194.38C20.2009 195.603 20.3969 196.536 20.7889 197.18C21.1809 197.815 21.7456 198.132 22.4829 198.132ZM28.3581 197.32C28.6848 197.32 28.9414 197.446 29.1281 197.698C29.3148 197.95 29.4081 198.277 29.4081 198.678C29.4081 199.173 29.2821 199.63 29.0301 200.05C28.7781 200.47 28.3954 200.801 27.8821 201.044L27.2941 200.498C27.6581 200.377 27.9614 200.185 28.2041 199.924C28.4468 199.663 28.6008 199.378 28.6661 199.07L28.6101 199.042C28.5261 199.107 28.3954 199.14 28.2181 199.14C28.0221 199.14 27.8448 199.065 27.6861 198.916C27.5274 198.757 27.4481 198.538 27.4481 198.258C27.4481 198.006 27.5368 197.787 27.7141 197.6C27.8914 197.413 28.1061 197.32 28.3581 197.32ZM34.227 199.14C33.163 199.14 32.323 198.729 31.707 197.908C31.091 197.077 30.783 195.901 30.783 194.38C30.783 192.859 31.091 191.687 31.707 190.866C32.323 190.035 33.163 189.62 34.227 189.62C35.291 189.62 36.131 190.035 36.747 190.866C37.363 191.687 37.671 192.859 37.671 194.38C37.671 195.901 37.363 197.077 36.747 197.908C36.131 198.729 35.291 199.14 34.227 199.14ZM34.227 198.132C34.9644 198.132 35.529 197.815 35.921 197.18C36.313 196.536 36.509 195.603 36.509 194.38C36.509 193.157 36.313 192.229 35.921 191.594C35.529 190.95 34.9644 190.628 34.227 190.628C33.4897 190.628 32.925 190.95 32.533 191.594C32.141 192.229 31.945 193.157 31.945 194.38C31.945 195.603 32.141 196.536 32.533 197.18C32.925 197.815 33.4897 198.132 34.227 198.132ZM42.936 199.14C41.872 199.14 41.032 198.729 40.416 197.908C39.8 197.077 39.492 195.901 39.492 194.38C39.492 192.859 39.8 191.687 40.416 190.866C41.032 190.035 41.872 189.62 42.936 189.62C44 189.62 44.84 190.035 45.456 190.866C46.072 191.687 46.38 192.859 46.38 194.38C46.38 195.901 46.072 197.077 45.456 197.908C44.84 198.729 44 199.14 42.936 199.14ZM42.936 198.132C43.6734 198.132 44.238 197.815 44.63 197.18C45.022 196.536 45.218 195.603 45.218 194.38C45.218 193.157 45.022 192.229 44.63 191.594C44.238 190.95 43.6734 190.628 42.936 190.628C42.1987 190.628 41.634 190.95 41.242 191.594C40.85 192.229 40.654 193.157 40.654 194.38C40.654 195.603 40.85 196.536 41.242 197.18C41.634 197.815 42.1987 198.132 42.936 198.132ZM51.645 199.14C50.581 199.14 49.741 198.729 49.125 197.908C48.509 197.077 48.201 195.901 48.201 194.38C48.201 192.859 48.509 191.687 49.125 190.866C49.741 190.035 50.581 189.62 51.645 189.62C52.709 189.62 53.549 190.035 54.165 190.866C54.781 191.687 55.089 192.859 55.089 194.38C55.089 195.901 54.781 197.077 54.165 197.908C53.549 198.729 52.709 199.14 51.645 199.14ZM51.645 198.132C52.3823 198.132 52.947 197.815 53.339 197.18C53.731 196.536 53.927 195.603 53.927 194.38C53.927 193.157 53.731 192.229 53.339 191.594C52.947 190.95 52.3823 190.628 51.645 190.628C50.9077 190.628 50.343 190.95 49.951 191.594C49.559 192.229 49.363 193.157 49.363 194.38C49.363 195.603 49.559 196.536 49.951 197.18C50.343 197.815 50.9077 198.132 51.645 198.132Z" fill="#1A1A1A"/>
<path d="M15.8046 258.224C15.8046 258.028 15.8139 257.669 15.8326 257.146C15.5152 257.454 15.1466 257.725 14.7266 257.958C14.3066 258.182 13.8772 258.345 13.4386 258.448L13.1446 257.426C13.3686 257.398 13.6719 257.295 14.0546 257.118C14.4372 256.931 14.8059 256.717 15.1606 256.474C15.5152 256.222 15.7766 255.984 15.9446 255.76H16.9246V265H15.8046V258.224ZM22.3657 265.14C21.563 265.14 20.9097 264.963 20.4057 264.608C19.9017 264.244 19.5097 263.717 19.2297 263.026L20.3217 262.452C20.4803 262.984 20.7183 263.39 21.0357 263.67C21.3623 263.95 21.815 264.09 22.3937 264.09C23.0283 264.09 23.5277 263.917 23.8917 263.572C24.265 263.227 24.4517 262.751 24.4517 262.144C24.4517 261.491 24.2837 260.991 23.9477 260.646C23.6117 260.301 23.1263 260.128 22.4917 260.128C21.5303 260.128 20.8443 260.427 20.4337 261.024L19.4537 260.842L19.9997 255.76H25.1937V256.81H20.9517L20.5877 259.722L20.5597 259.848H20.5877C21.0823 259.335 21.787 259.078 22.7017 259.078C23.579 259.078 24.2837 259.353 24.8157 259.904C25.3477 260.445 25.6137 261.164 25.6137 262.06C25.6137 262.685 25.4783 263.231 25.2077 263.698C24.937 264.165 24.5543 264.524 24.0597 264.776C23.565 265.019 23.0003 265.14 22.3657 265.14ZM28.3581 263.32C28.6848 263.32 28.9414 263.446 29.1281 263.698C29.3148 263.95 29.4081 264.277 29.4081 264.678C29.4081 265.173 29.2821 265.63 29.0301 266.05C28.7781 266.47 28.3954 266.801 27.8821 267.044L27.2941 266.498C27.6581 266.377 27.9614 266.185 28.2041 265.924C28.4468 265.663 28.6008 265.378 28.6661 265.07L28.6101 265.042C28.5261 265.107 28.3954 265.14 28.2181 265.14C28.0221 265.14 27.8448 265.065 27.6861 264.916C27.5274 264.757 27.4481 264.538 27.4481 264.258C27.4481 264.006 27.5368 263.787 27.7141 263.6C27.8914 263.413 28.1061 263.32 28.3581 263.32ZM34.227 265.14C33.163 265.14 32.323 264.729 31.707 263.908C31.091 263.077 30.783 261.901 30.783 260.38C30.783 258.859 31.091 257.687 31.707 256.866C32.323 256.035 33.163 255.62 34.227 255.62C35.291 255.62 36.131 256.035 36.747 256.866C37.363 257.687 37.671 258.859 37.671 260.38C37.671 261.901 37.363 263.077 36.747 263.908C36.131 264.729 35.291 265.14 34.227 265.14ZM34.227 264.132C34.9644 264.132 35.529 263.815 35.921 263.18C36.313 262.536 36.509 261.603 36.509 260.38C36.509 259.157 36.313 258.229 35.921 257.594C35.529 256.95 34.9644 256.628 34.227 256.628C33.4897 256.628 32.925 256.95 32.533 257.594C32.141 258.229 31.945 259.157 31.945 260.38C31.945 261.603 32.141 262.536 32.533 263.18C32.925 263.815 33.4897 264.132 34.227 264.132ZM42.936 265.14C41.872 265.14 41.032 264.729 40.416 263.908C39.8 263.077 39.492 261.901 39.492 260.38C39.492 258.859 39.8 257.687 40.416 256.866C41.032 256.035 41.872 255.62 42.936 255.62C44 255.62 44.84 256.035 45.456 256.866C46.072 257.687 46.38 258.859 46.38 260.38C46.38 261.901 46.072 263.077 45.456 263.908C44.84 264.729 44 265.14 42.936 265.14ZM42.936 264.132C43.6734 264.132 44.238 263.815 44.63 263.18C45.022 262.536 45.218 261.603 45.218 260.38C45.218 259.157 45.022 258.229 44.63 257.594C44.238 256.95 43.6734 256.628 42.936 256.628C42.1987 256.628 41.634 256.95 41.242 257.594C40.85 258.229 40.654 259.157 40.654 260.38C40.654 261.603 40.85 262.536 41.242 263.18C41.634 263.815 42.1987 264.132 42.936 264.132ZM51.645 265.14C50.581 265.14 49.741 264.729 49.125 263.908C48.509 263.077 48.201 261.901 48.201 260.38C48.201 258.859 48.509 257.687 49.125 256.866C49.741 256.035 50.581 255.62 51.645 255.62C52.709 255.62 53.549 256.035 54.165 256.866C54.781 257.687 55.089 258.859 55.089 260.38C55.089 261.901 54.781 263.077 54.165 263.908C53.549 264.729 52.709 265.14 51.645 265.14ZM51.645 264.132C52.3823 264.132 52.947 263.815 53.339 263.18C53.731 262.536 53.927 261.603 53.927 260.38C53.927 259.157 53.731 258.229 53.339 257.594C52.947 256.95 52.3823 256.628 51.645 256.628C50.9077 256.628 50.343 256.95 49.951 257.594C49.559 258.229 49.363 259.157 49.363 260.38C49.363 261.603 49.559 262.536 49.951 263.18C50.343 263.815 50.9077 264.132 51.645 264.132Z" fill="#1A1A1A"/>
<path d="M15.5858 325.224C15.5858 325.028 15.5952 324.669 15.6138 324.146C15.2965 324.454 14.9278 324.725 14.5078 324.958C14.0878 325.182 13.6585 325.345 13.2198 325.448L12.9258 324.426C13.1498 324.398 13.4532 324.295 13.8358 324.118C14.2185 323.931 14.5872 323.717 14.9418 323.474C15.2965 323.222 15.5578 322.984 15.7258 322.76H16.7058V332H15.5858V325.224ZM22.4829 332.14C21.4189 332.14 20.5789 331.729 19.9629 330.908C19.3469 330.077 19.0389 328.901 19.0389 327.38C19.0389 325.859 19.3469 324.687 19.9629 323.866C20.5789 323.035 21.4189 322.62 22.4829 322.62C23.5469 322.62 24.3869 323.035 25.0029 323.866C25.6189 324.687 25.9269 325.859 25.9269 327.38C25.9269 328.901 25.6189 330.077 25.0029 330.908C24.3869 331.729 23.5469 332.14 22.4829 332.14ZM22.4829 331.132C23.2202 331.132 23.7849 330.815 24.1769 330.18C24.5689 329.536 24.7649 328.603 24.7649 327.38C24.7649 326.157 24.5689 325.229 24.1769 324.594C23.7849 323.95 23.2202 323.628 22.4829 323.628C21.7456 323.628 21.1809 323.95 20.7889 324.594C20.3969 325.229 20.2009 326.157 20.2009 327.38C20.2009 328.603 20.3969 329.536 20.7889 330.18C21.1809 330.815 21.7456 331.132 22.4829 331.132ZM28.3581 330.32C28.6848 330.32 28.9414 330.446 29.1281 330.698C29.3148 330.95 29.4081 331.277 29.4081 331.678C29.4081 332.173 29.2821 332.63 29.0301 333.05C28.7781 333.47 28.3954 333.801 27.8821 334.044L27.2941 333.498C27.6581 333.377 27.9614 333.185 28.2041 332.924C28.4468 332.663 28.6008 332.378 28.6661 332.07L28.6101 332.042C28.5261 332.107 28.3954 332.14 28.2181 332.14C28.0221 332.14 27.8448 332.065 27.6861 331.916C27.5274 331.757 27.4481 331.538 27.4481 331.258C27.4481 331.006 27.5368 330.787 27.7141 330.6C27.8914 330.413 28.1061 330.32 28.3581 330.32ZM34.227 332.14C33.163 332.14 32.323 331.729 31.707 330.908C31.091 330.077 30.783 328.901 30.783 327.38C30.783 325.859 31.091 324.687 31.707 323.866C32.323 323.035 33.163 322.62 34.227 322.62C35.291 322.62 36.131 323.035 36.747 323.866C37.363 324.687 37.671 325.859 37.671 327.38C37.671 328.901 37.363 330.077 36.747 330.908C36.131 331.729 35.291 332.14 34.227 332.14ZM34.227 331.132C34.9644 331.132 35.529 330.815 35.921 330.18C36.313 329.536 36.509 328.603 36.509 327.38C36.509 326.157 36.313 325.229 35.921 324.594C35.529 323.95 34.9644 323.628 34.227 323.628C33.4897 323.628 32.925 323.95 32.533 324.594C32.141 325.229 31.945 326.157 31.945 327.38C31.945 328.603 32.141 329.536 32.533 330.18C32.925 330.815 33.4897 331.132 34.227 331.132ZM42.936 332.14C41.872 332.14 41.032 331.729 40.416 330.908C39.8 330.077 39.492 328.901 39.492 327.38C39.492 325.859 39.8 324.687 40.416 323.866C41.032 323.035 41.872 322.62 42.936 322.62C44 322.62 44.84 323.035 45.456 323.866C46.072 324.687 46.38 325.859 46.38 327.38C46.38 328.901 46.072 330.077 45.456 330.908C44.84 331.729 44 332.14 42.936 332.14ZM42.936 331.132C43.6734 331.132 44.238 330.815 44.63 330.18C45.022 329.536 45.218 328.603 45.218 327.38C45.218 326.157 45.022 325.229 44.63 324.594C44.238 323.95 43.6734 323.628 42.936 323.628C42.1987 323.628 41.634 323.95 41.242 324.594C40.85 325.229 40.654 326.157 40.654 327.38C40.654 328.603 40.85 329.536 41.242 330.18C41.634 330.815 42.1987 331.132 42.936 331.132ZM51.645 332.14C50.581 332.14 49.741 331.729 49.125 330.908C48.509 330.077 48.201 328.901 48.201 327.38C48.201 325.859 48.509 324.687 49.125 323.866C49.741 323.035 50.581 322.62 51.645 322.62C52.709 322.62 53.549 323.035 54.165 323.866C54.781 324.687 55.089 325.859 55.089 327.38C55.089 328.901 54.781 330.077 54.165 330.908C53.549 331.729 52.709 332.14 51.645 332.14ZM51.645 331.132C52.3823 331.132 52.947 330.815 53.339 330.18C53.731 329.536 53.927 328.603 53.927 327.38C53.927 326.157 53.731 325.229 53.339 324.594C52.947 323.95 52.3823 323.628 51.645 323.628C50.9077 323.628 50.343 323.95 49.951 324.594C49.559 325.229 49.363 326.157 49.363 327.38C49.363 328.603 49.559 329.536 49.951 330.18C50.343 330.815 50.9077 331.132 51.645 331.132Z" fill="#1A1A1A"/>
<path d="M22.366 396.14C21.5634 396.14 20.91 395.963 20.406 395.608C19.902 395.244 19.51 394.717 19.23 394.026L20.322 393.452C20.4807 393.984 20.7187 394.39 21.036 394.67C21.3627 394.95 21.8154 395.09 22.394 395.09C23.0287 395.09 23.528 394.917 23.892 394.572C24.2654 394.227 24.452 393.751 24.452 393.144C24.452 392.491 24.284 391.991 23.948 391.646C23.612 391.301 23.1267 391.128 22.492 391.128C21.5307 391.128 20.8447 391.427 20.434 392.024L19.454 391.842L20 386.76H25.194V387.81H20.952L20.588 390.722L20.56 390.848H20.588C21.0827 390.335 21.7874 390.078 22.702 390.078C23.5794 390.078 24.284 390.353 24.816 390.904C25.348 391.445 25.614 392.164 25.614 393.06C25.614 393.685 25.4787 394.231 25.208 394.698C24.9374 395.165 24.5547 395.524 24.06 395.776C23.5654 396.019 23.0007 396.14 22.366 396.14ZM28.3585 394.32C28.6851 394.32 28.9418 394.446 29.1285 394.698C29.3151 394.95 29.4085 395.277 29.4085 395.678C29.4085 396.173 29.2825 396.63 29.0305 397.05C28.7785 397.47 28.3958 397.801 27.8825 398.044L27.2945 397.498C27.6585 397.377 27.9618 397.185 28.2045 396.924C28.4471 396.663 28.6011 396.378 28.6665 396.07L28.6105 396.042C28.5265 396.107 28.3958 396.14 28.2185 396.14C28.0225 396.14 27.8451 396.065 27.6865 395.916C27.5278 395.757 27.4485 395.538 27.4485 395.258C27.4485 395.006 27.5371 394.787 27.7145 394.6C27.8918 394.413 28.1065 394.32 28.3585 394.32ZM34.2274 396.14C33.1634 396.14 32.3234 395.729 31.7074 394.908C31.0914 394.077 30.7834 392.901 30.7834 391.38C30.7834 389.859 31.0914 388.687 31.7074 387.866C32.3234 387.035 33.1634 386.62 34.2274 386.62C35.2914 386.62 36.1314 387.035 36.7474 387.866C37.3634 388.687 37.6714 389.859 37.6714 391.38C37.6714 392.901 37.3634 394.077 36.7474 394.908C36.1314 395.729 35.2914 396.14 34.2274 396.14ZM34.2274 395.132C34.9648 395.132 35.5294 394.815 35.9214 394.18C36.3134 393.536 36.5094 392.603 36.5094 391.38C36.5094 390.157 36.3134 389.229 35.9214 388.594C35.5294 387.95 34.9648 387.628 34.2274 387.628C33.4901 387.628 32.9254 387.95 32.5334 388.594C32.1414 389.229 31.9454 390.157 31.9454 391.38C31.9454 392.603 32.1414 393.536 32.5334 394.18C32.9254 394.815 33.4901 395.132 34.2274 395.132ZM42.9364 396.14C41.8724 396.14 41.0324 395.729 40.4164 394.908C39.8004 394.077 39.4924 392.901 39.4924 391.38C39.4924 389.859 39.8004 388.687 40.4164 387.866C41.0324 387.035 41.8724 386.62 42.9364 386.62C44.0004 386.62 44.8404 387.035 45.4564 387.866C46.0724 388.687 46.3804 389.859 46.3804 391.38C46.3804 392.901 46.0724 394.077 45.4564 394.908C44.8404 395.729 44.0004 396.14 42.9364 396.14ZM42.9364 395.132C43.6737 395.132 44.2384 394.815 44.6304 394.18C45.0224 393.536 45.2184 392.603 45.2184 391.38C45.2184 390.157 45.0224 389.229 44.6304 388.594C44.2384 387.95 43.6737 387.628 42.9364 387.628C42.1991 387.628 41.6344 387.95 41.2424 388.594C40.8504 389.229 40.6544 390.157 40.6544 391.38C40.6544 392.603 40.8504 393.536 41.2424 394.18C41.6344 394.815 42.1991 395.132 42.9364 395.132ZM51.6454 396.14C50.5814 396.14 49.7414 395.729 49.1254 394.908C48.5094 394.077 48.2014 392.901 48.2014 391.38C48.2014 389.859 48.5094 388.687 49.1254 387.866C49.7414 387.035 50.5814 386.62 51.6454 386.62C52.7094 386.62 53.5494 387.035 54.1654 387.866C54.7814 388.687 55.0894 389.859 55.0894 391.38C55.0894 392.901 54.7814 394.077 54.1654 394.908C53.5494 395.729 52.7094 396.14 51.6454 396.14ZM51.6454 395.132C52.3827 395.132 52.9474 394.815 53.3394 394.18C53.7314 393.536 53.9274 392.603 53.9274 391.38C53.9274 390.157 53.7314 389.229 53.3394 388.594C52.9474 387.95 52.3827 387.628 51.6454 387.628C50.9081 387.628 50.3434 387.95 49.9514 388.594C49.5594 389.229 49.3634 390.157 49.3634 391.38C49.3634 392.603 49.5594 393.536 49.9514 394.18C50.3434 394.815 50.9081 395.132 51.6454 395.132Z" fill="#1A1A1A"/>
<path d="M51.6454 458.697C50.5814 458.697 49.7414 458.287 49.1254 457.465C48.5094 456.635 48.2014 455.459 48.2014 453.937C48.2014 452.416 48.5094 451.245 49.1254 450.423C49.7414 449.593 50.5814 449.177 51.6454 449.177C52.7094 449.177 53.5494 449.593 54.1654 450.423C54.7814 451.245 55.0894 452.416 55.0894 453.937C55.0894 455.459 54.7814 456.635 54.1654 457.465C53.5494 458.287 52.7094 458.697 51.6454 458.697ZM51.6454 457.689C52.3827 457.689 52.9474 457.372 53.3394 456.737C53.7314 456.093 53.9274 455.16 53.9274 453.937C53.9274 452.715 53.7314 451.786 53.3394 451.151C52.9474 450.507 52.3827 450.185 51.6454 450.185C50.9081 450.185 50.3434 450.507 49.9514 451.151C49.5594 451.786 49.3634 452.715 49.3634 453.937C49.3634 455.16 49.5594 456.093 49.9514 456.737C50.3434 457.372 50.9081 457.689 51.6454 457.689Z" fill="#1A1A1A"/>
<path d="M487.397 11.2473L485.237 7.95931H483.341V11.2473H482.381V3.32731H485.381C486.189 3.32731 486.837 3.53531 487.325 3.95131C487.813 4.36731 488.057 4.93131 488.057 5.64331C488.057 6.20331 487.897 6.67131 487.577 7.04731C487.265 7.41531 486.833 7.66731 486.281 7.80331L488.537 11.2473H487.397ZM483.341 7.05931H485.369C486.489 7.05931 487.049 6.58731 487.049 5.64331C487.049 4.69931 486.489 4.22731 485.369 4.22731H483.341V7.05931ZM495.082 7.85131C495.082 8.07531 495.066 8.29931 495.034 8.52331H490.51C490.558 9.15531 490.754 9.64731 491.098 9.99931C491.442 10.3513 491.898 10.5273 492.466 10.5273C493.266 10.5273 493.846 10.2153 494.206 9.59131L494.962 10.0353C494.73 10.4513 494.402 10.7793 493.978 11.0193C493.554 11.2513 493.058 11.3673 492.49 11.3673C491.922 11.3673 491.414 11.2433 490.966 10.9953C490.526 10.7393 490.182 10.3793 489.934 9.91531C489.686 9.44331 489.562 8.88731 489.562 8.24731C489.562 7.61531 489.682 7.06331 489.922 6.59131C490.17 6.11931 490.51 5.75931 490.942 5.51131C491.374 5.25531 491.87 5.12731 492.43 5.12731C492.974 5.12731 493.446 5.24731 493.846 5.48731C494.246 5.71931 494.55 6.04331 494.758 6.45931C494.974 6.87531 495.082 7.33931 495.082 7.85131ZM492.406 5.96731C491.902 5.96731 491.486 6.11931 491.158 6.42331C490.83 6.71931 490.626 7.13531 490.546 7.67131H494.122C494.106 7.13531 493.942 6.71931 493.63 6.42331C493.318 6.11931 492.91 5.96731 492.406 5.96731ZM501.828 10.5153C501.98 10.5153 502.128 10.4953 502.272 10.4553L502.224 11.2113C502.064 11.2913 501.856 11.3313 501.6 11.3313C501.296 11.3313 501.036 11.2593 500.82 11.1153C500.612 10.9633 500.48 10.7433 500.424 10.4553C500.224 10.7513 499.948 10.9793 499.596 11.1393C499.244 11.2913 498.88 11.3673 498.504 11.3673C497.936 11.3673 497.464 11.2273 497.088 10.9473C496.712 10.6593 496.524 10.2553 496.524 9.73531C496.524 9.28731 496.672 8.91931 496.968 8.63131C497.264 8.34331 497.684 8.14331 498.228 8.03131L500.412 7.59931V7.37131C500.412 6.92331 500.292 6.57931 500.052 6.33931C499.812 6.09131 499.472 5.96731 499.032 5.96731C498.16 5.96731 497.596 6.34731 497.34 7.10731L496.56 6.62731C496.728 6.16331 497.028 5.79931 497.46 5.53531C497.892 5.26331 498.424 5.12731 499.056 5.12731C499.744 5.12731 500.3 5.30331 500.724 5.65531C501.156 5.99931 501.372 6.50731 501.372 7.17931V10.0833C501.372 10.3713 501.524 10.5153 501.828 10.5153ZM498.636 10.5273C499.132 10.5273 499.552 10.3993 499.896 10.1433C500.24 9.88731 500.412 9.51531 500.412 9.02731V8.39131L498.672 8.75131C498.264 8.83931 497.968 8.95531 497.784 9.09931C497.6 9.23531 497.508 9.43131 497.508 9.68731C497.508 9.93531 497.608 10.1393 497.808 10.2993C498.008 10.4513 498.284 10.5273 498.636 10.5273ZM506.189 5.12731C506.789 5.12731 507.293 5.26731 507.701 5.54731C508.117 5.81931 508.441 6.21131 508.673 6.72331L507.761 7.15531C507.505 6.36331 506.973 5.96731 506.165 5.96731C505.565 5.96731 505.093 6.17131 504.749 6.57931C504.413 6.97931 504.245 7.53531 504.245 8.24731C504.245 8.95931 504.413 9.51931 504.749 9.92731C505.093 10.3273 505.565 10.5273 506.165 10.5273C506.629 10.5273 507.001 10.4233 507.281 10.2153C507.569 9.99931 507.757 9.69131 507.845 9.29131L508.733 9.60331C508.525 10.1633 508.205 10.5993 507.773 10.9113C507.341 11.2153 506.813 11.3673 506.189 11.3673C505.621 11.3673 505.117 11.2433 504.677 10.9953C504.245 10.7393 503.905 10.3753 503.657 9.90331C503.409 9.43131 503.285 8.87931 503.285 8.24731C503.285 7.61531 503.409 7.06331 503.657 6.59131C503.905 6.11931 504.245 5.75931 504.677 5.51131C505.117 5.25531 505.621 5.12731 506.189 5.12731ZM510.42 2.48731H511.38V6.14731C511.58 5.80331 511.848 5.54731 512.184 5.37931C512.528 5.21131 512.912 5.12731 513.336 5.12731C514.016 5.12731 514.576 5.32331 515.016 5.71531C515.456 6.10731 515.676 6.67131 515.676 7.40731V11.2473H514.716V7.74331C514.716 7.11931 514.58 6.66731 514.308 6.38731C514.044 6.10731 513.688 5.96731 513.24 5.96731C512.928 5.96731 512.628 6.03931 512.34 6.18331C512.06 6.32731 511.828 6.55931 511.644 6.87931C511.468 7.19131 511.38 7.58731 511.38 8.06731V11.2473H510.42V2.48731Z" fill="#1A1A1A"/>
<rect x="451" y="4.12927" width="20.3801" height="7.76384" fill="#165BAA"/>
<path d="M570.924 3.98V6.536H574.5V7.436H570.924V11H569.964V3.08H575.508V3.98H570.924ZM578.936 4.88C579.504 4.88 580.004 5.008 580.436 5.264C580.876 5.512 581.22 5.872 581.468 6.344C581.716 6.816 581.84 7.368 581.84 8C581.84 8.632 581.716 9.184 581.468 9.656C581.22 10.128 580.876 10.492 580.436 10.748C580.004 10.996 579.504 11.12 578.936 11.12C578.368 11.12 577.864 10.996 577.424 10.748C576.992 10.492 576.652 10.128 576.404 9.656C576.156 9.184 576.032 8.632 576.032 8C576.032 7.368 576.156 6.816 576.404 6.344C576.652 5.872 576.992 5.512 577.424 5.264C577.864 5.008 578.368 4.88 578.936 4.88ZM578.936 5.708C578.328 5.708 577.852 5.912 577.508 6.32C577.164 6.728 576.992 7.288 576.992 8C576.992 8.712 577.164 9.272 577.508 9.68C577.852 10.088 578.328 10.292 578.936 10.292C579.544 10.292 580.02 10.088 580.364 9.68C580.708 9.272 580.88 8.712 580.88 8C580.88 7.288 580.708 6.728 580.364 6.32C580.02 5.912 579.544 5.708 578.936 5.708ZM584.559 9.476C584.559 9.772 584.611 9.98 584.715 10.1C584.827 10.22 585.011 10.28 585.267 10.28C585.427 10.28 585.559 10.272 585.663 10.256C585.767 10.232 585.907 10.184 586.083 10.112L585.927 10.952C585.663 11.064 585.367 11.12 585.039 11.12C584.551 11.12 584.187 10.988 583.947 10.724C583.715 10.46 583.599 10.056 583.599 9.512V2.24H584.559V9.476ZM588.227 9.476C588.227 9.772 588.279 9.98 588.383 10.1C588.495 10.22 588.679 10.28 588.935 10.28C589.095 10.28 589.227 10.272 589.331 10.256C589.435 10.232 589.575 10.184 589.751 10.112L589.595 10.952C589.331 11.064 589.035 11.12 588.707 11.12C588.219 11.12 587.855 10.988 587.615 10.724C587.383 10.46 587.267 10.056 587.267 9.512V2.24H588.227V9.476ZM593.467 4.88C594.035 4.88 594.535 5.008 594.967 5.264C595.407 5.512 595.751 5.872 595.999 6.344C596.247 6.816 596.371 7.368 596.371 8C596.371 8.632 596.247 9.184 595.999 9.656C595.751 10.128 595.407 10.492 594.967 10.748C594.535 10.996 594.035 11.12 593.467 11.12C592.899 11.12 592.395 10.996 591.955 10.748C591.523 10.492 591.183 10.128 590.935 9.656C590.687 9.184 590.563 8.632 590.563 8C590.563 7.368 590.687 6.816 590.935 6.344C591.183 5.872 591.523 5.512 591.955 5.264C592.395 5.008 592.899 4.88 593.467 4.88ZM593.467 5.708C592.859 5.708 592.383 5.912 592.039 6.32C591.695 6.728 591.523 7.288 591.523 8C591.523 8.712 591.695 9.272 592.039 9.68C592.383 10.088 592.859 10.292 593.467 10.292C594.075 10.292 594.551 10.088 594.895 9.68C595.239 9.272 595.411 8.712 595.411 8C595.411 7.288 595.239 6.728 594.895 6.32C594.551 5.912 594.075 5.708 593.467 5.708ZM606.583 5L604.495 11H603.535L601.843 6.224L600.247 11H599.287L597.199 5H598.267L599.779 9.884L601.411 5H602.371L604.003 9.884L605.515 5H606.583ZM612.935 7.604C612.935 7.828 612.919 8.052 612.887 8.276H608.363C608.411 8.908 608.607 9.4 608.951 9.752C609.295 10.104 609.751 10.28 610.319 10.28C611.119 10.28 611.699 9.968 612.059 9.344L612.815 9.788C612.583 10.204 612.255 10.532 611.831 10.772C611.407 11.004 610.911 11.12 610.343 11.12C609.775 11.12 609.267 10.996 608.819 10.748C608.379 10.492 608.035 10.132 607.787 9.668C607.539 9.196 607.415 8.64 607.415 8C607.415 7.368 607.535 6.816 607.775 6.344C608.023 5.872 608.363 5.512 608.795 5.264C609.227 5.008 609.723 4.88 610.283 4.88C610.827 4.88 611.299 5 611.699 5.24C612.099 5.472 612.403 5.796 612.611 6.212C612.827 6.628 612.935 7.092 612.935 7.604ZM610.259 5.72C609.755 5.72 609.339 5.872 609.011 6.176C608.683 6.472 608.479 6.888 608.399 7.424H611.975C611.959 6.888 611.795 6.472 611.483 6.176C611.171 5.872 610.763 5.72 610.259 5.72ZM614.761 5H615.541L615.673 5.984C616.009 5.248 616.649 4.88 617.593 4.88C617.881 4.88 618.101 4.92 618.253 5L618.085 5.876C617.893 5.812 617.649 5.78 617.353 5.78C617.089 5.78 616.829 5.856 616.573 6.008C616.325 6.152 616.121 6.376 615.961 6.68C615.801 6.976 615.721 7.336 615.721 7.76V11H614.761V5ZM621.561 11.12C620.969 11.12 620.429 10.996 619.941 10.748C619.453 10.492 619.077 10.14 618.813 9.692L619.629 9.104C619.805 9.48 620.065 9.772 620.409 9.98C620.753 10.18 621.161 10.28 621.633 10.28C622.049 10.28 622.377 10.2 622.617 10.04C622.865 9.872 622.989 9.656 622.989 9.392C622.989 8.992 622.729 8.736 622.209 8.624L620.769 8.324C620.201 8.204 619.785 8.008 619.521 7.736C619.265 7.456 619.137 7.104 619.137 6.68C619.137 6.352 619.233 6.052 619.425 5.78C619.617 5.508 619.889 5.292 620.241 5.132C620.593 4.964 620.997 4.88 621.453 4.88C622.037 4.88 622.533 4.996 622.941 5.228C623.357 5.46 623.665 5.788 623.865 6.212L623.061 6.74C622.933 6.404 622.721 6.152 622.425 5.984C622.129 5.808 621.805 5.72 621.453 5.72C621.029 5.72 620.693 5.808 620.445 5.984C620.205 6.152 620.085 6.372 620.085 6.644C620.085 7.068 620.369 7.336 620.937 7.448L622.437 7.76C622.973 7.872 623.357 8.052 623.589 8.3C623.829 8.548 623.949 8.864 623.949 9.248C623.949 9.816 623.729 10.272 623.289 10.616C622.849 10.952 622.273 11.12 621.561 11.12Z" fill="#1A1A1A"/>
<rect x="538.344" y="4.12915" width="20.3801" height="7.76384" fill="#FA7E1E"/>
<path d="M177.538 466.81V469.792H181.71V470.842H177.538V475H176.418V465.76H182.886V466.81H177.538ZM189.782 474.146C189.96 474.146 190.132 474.123 190.3 474.076L190.244 474.958C190.058 475.051 189.815 475.098 189.516 475.098C189.162 475.098 188.858 475.014 188.606 474.846C188.364 474.669 188.21 474.412 188.144 474.076C187.911 474.421 187.589 474.687 187.178 474.874C186.768 475.051 186.343 475.14 185.904 475.14C185.242 475.14 184.691 474.977 184.252 474.65C183.814 474.314 183.594 473.843 183.594 473.236C183.594 472.713 183.767 472.284 184.112 471.948C184.458 471.612 184.948 471.379 185.582 471.248L188.13 470.744V470.478C188.13 469.955 187.99 469.554 187.71 469.274C187.43 468.985 187.034 468.84 186.52 468.84C185.503 468.84 184.845 469.283 184.546 470.17L183.636 469.61C183.832 469.069 184.182 468.644 184.686 468.336C185.19 468.019 185.811 467.86 186.548 467.86C187.351 467.86 188 468.065 188.494 468.476C188.998 468.877 189.25 469.47 189.25 470.254V473.642C189.25 473.978 189.428 474.146 189.782 474.146ZM186.058 474.16C186.637 474.16 187.127 474.011 187.528 473.712C187.93 473.413 188.13 472.979 188.13 472.41V471.668L186.1 472.088C185.624 472.191 185.279 472.326 185.064 472.494C184.85 472.653 184.742 472.881 184.742 473.18C184.742 473.469 184.859 473.707 185.092 473.894C185.326 474.071 185.648 474.16 186.058 474.16ZM194.87 467.86C195.57 467.86 196.158 468.023 196.634 468.35C197.119 468.667 197.497 469.125 197.768 469.722L196.704 470.226C196.405 469.302 195.785 468.84 194.842 468.84C194.142 468.84 193.591 469.078 193.19 469.554C192.798 470.021 192.602 470.669 192.602 471.5C192.602 472.331 192.798 472.984 193.19 473.46C193.591 473.927 194.142 474.16 194.842 474.16C195.383 474.16 195.817 474.039 196.144 473.796C196.48 473.544 196.699 473.185 196.802 472.718L197.838 473.082C197.595 473.735 197.222 474.244 196.718 474.608C196.214 474.963 195.598 475.14 194.87 475.14C194.207 475.14 193.619 474.995 193.106 474.706C192.602 474.407 192.205 473.983 191.916 473.432C191.627 472.881 191.482 472.237 191.482 471.5C191.482 470.763 191.627 470.119 191.916 469.568C192.205 469.017 192.602 468.597 193.106 468.308C193.619 468.009 194.207 467.86 194.87 467.86ZM205.756 471.038C205.756 471.299 205.737 471.561 205.7 471.822H200.422C200.478 472.559 200.707 473.133 201.108 473.544C201.509 473.955 202.041 474.16 202.704 474.16C203.637 474.16 204.314 473.796 204.734 473.068L205.616 473.586C205.345 474.071 204.963 474.454 204.468 474.734C203.973 475.005 203.395 475.14 202.732 475.14C202.069 475.14 201.477 474.995 200.954 474.706C200.441 474.407 200.039 473.987 199.75 473.446C199.461 472.895 199.316 472.247 199.316 471.5C199.316 470.763 199.456 470.119 199.736 469.568C200.025 469.017 200.422 468.597 200.926 468.308C201.43 468.009 202.009 467.86 202.662 467.86C203.297 467.86 203.847 468 204.314 468.28C204.781 468.551 205.135 468.929 205.378 469.414C205.63 469.899 205.756 470.441 205.756 471.038ZM202.634 468.84C202.046 468.84 201.561 469.017 201.178 469.372C200.795 469.717 200.557 470.203 200.464 470.828H204.636C204.617 470.203 204.426 469.717 204.062 469.372C203.698 469.017 203.222 468.84 202.634 468.84ZM211.33 467.86C211.918 467.86 212.455 468.009 212.94 468.308C213.425 468.597 213.808 469.017 214.088 469.568C214.377 470.119 214.522 470.763 214.522 471.5C214.522 472.237 214.377 472.881 214.088 473.432C213.799 473.983 213.411 474.407 212.926 474.706C212.441 474.995 211.904 475.14 211.316 475.14C210.793 475.14 210.317 475.019 209.888 474.776C209.468 474.524 209.151 474.193 208.936 473.782L208.866 475H207.886V464.78H209.006V469.092C209.23 468.719 209.547 468.42 209.958 468.196C210.369 467.972 210.826 467.86 211.33 467.86ZM211.204 474.16C211.895 474.16 212.431 473.922 212.814 473.446C213.206 472.961 213.402 472.312 213.402 471.5C213.402 470.688 213.206 470.044 212.814 469.568C212.431 469.083 211.899 468.84 211.218 468.84C210.555 468.84 210.019 469.087 209.608 469.582C209.207 470.077 209.006 470.725 209.006 471.528C209.006 472.331 209.207 472.97 209.608 473.446C210.009 473.922 210.541 474.16 211.204 474.16ZM219.561 467.86C220.224 467.86 220.807 468.009 221.311 468.308C221.825 468.597 222.226 469.017 222.515 469.568C222.805 470.119 222.949 470.763 222.949 471.5C222.949 472.237 222.805 472.881 222.515 473.432C222.226 473.983 221.825 474.407 221.311 474.706C220.807 474.995 220.224 475.14 219.561 475.14C218.899 475.14 218.311 474.995 217.797 474.706C217.293 474.407 216.897 473.983 216.607 473.432C216.318 472.881 216.173 472.237 216.173 471.5C216.173 470.763 216.318 470.119 216.607 469.568C216.897 469.017 217.293 468.597 217.797 468.308C218.311 468.009 218.899 467.86 219.561 467.86ZM219.561 468.826C218.852 468.826 218.297 469.064 217.895 469.54C217.494 470.016 217.293 470.669 217.293 471.5C217.293 472.331 217.494 472.984 217.895 473.46C218.297 473.936 218.852 474.174 219.561 474.174C220.271 474.174 220.826 473.936 221.227 473.46C221.629 472.984 221.829 472.331 221.829 471.5C221.829 470.669 221.629 470.016 221.227 469.54C220.826 469.064 220.271 468.826 219.561 468.826ZM227.956 467.86C228.619 467.86 229.202 468.009 229.706 468.308C230.219 468.597 230.621 469.017 230.91 469.568C231.199 470.119 231.344 470.763 231.344 471.5C231.344 472.237 231.199 472.881 230.91 473.432C230.621 473.983 230.219 474.407 229.706 474.706C229.202 474.995 228.619 475.14 227.956 475.14C227.293 475.14 226.705 474.995 226.192 474.706C225.688 474.407 225.291 473.983 225.002 473.432C224.713 472.881 224.568 472.237 224.568 471.5C224.568 470.763 224.713 470.119 225.002 469.568C225.291 469.017 225.688 468.597 226.192 468.308C226.705 468.009 227.293 467.86 227.956 467.86ZM227.956 468.826C227.247 468.826 226.691 469.064 226.29 469.54C225.889 470.016 225.688 470.669 225.688 471.5C225.688 472.331 225.889 472.984 226.29 473.46C226.691 473.936 227.247 474.174 227.956 474.174C228.665 474.174 229.221 473.936 229.622 473.46C230.023 472.984 230.224 472.331 230.224 471.5C230.224 470.669 230.023 470.016 229.622 469.54C229.221 469.064 228.665 468.826 227.956 468.826ZM236.056 471.542L234.572 473.026V475H233.452V464.78H234.572V471.626L238.184 468H239.598L236.868 470.73L239.766 475H238.408L236.056 471.542Z" fill="#1A1A1A"/>
<rect x="129" y="215" width="75" height="242" fill="#165BAA"/>
<rect x="210" y="399" width="75" height="58" fill="#FA7E1E"/>
<path d="M150.983 201.224C150.983 201.028 150.993 200.669 151.011 200.146C150.694 200.454 150.325 200.725 149.905 200.958C149.485 201.182 149.056 201.345 148.617 201.448L148.323 200.426C148.547 200.398 148.851 200.295 149.233 200.118C149.616 199.931 149.985 199.717 150.339 199.474C150.694 199.222 150.955 198.984 151.123 198.76H152.103V208H150.983V201.224ZM157.838 198.634C158.734 198.634 159.448 198.853 159.98 199.292C160.512 199.721 160.778 200.309 160.778 201.056C160.778 201.532 160.662 201.952 160.428 202.316C160.204 202.671 159.887 202.941 159.476 203.128V203.142C160.018 203.347 160.438 203.651 160.736 204.052C161.044 204.453 161.198 204.939 161.198 205.508C161.198 206.04 161.058 206.507 160.778 206.908C160.508 207.3 160.116 207.603 159.602 207.818C159.098 208.033 158.51 208.14 157.838 208.14C157.166 208.14 156.578 208.033 156.074 207.818C155.57 207.603 155.178 207.3 154.898 206.908C154.618 206.507 154.478 206.04 154.478 205.508C154.478 204.948 154.628 204.463 154.926 204.052C155.234 203.641 155.664 203.338 156.214 203.142V203.128C155.804 202.951 155.482 202.68 155.248 202.316C155.015 201.952 154.898 201.532 154.898 201.056C154.898 200.309 155.164 199.721 155.696 199.292C156.228 198.853 156.942 198.634 157.838 198.634ZM157.838 199.684C157.288 199.684 156.854 199.815 156.536 200.076C156.219 200.337 156.06 200.701 156.06 201.168C156.06 201.616 156.224 201.975 156.55 202.246C156.877 202.507 157.306 202.638 157.838 202.638C158.37 202.638 158.8 202.507 159.126 202.246C159.453 201.975 159.616 201.616 159.616 201.168C159.616 200.701 159.458 200.337 159.14 200.076C158.823 199.815 158.389 199.684 157.838 199.684ZM157.838 207.09C158.52 207.09 159.056 206.941 159.448 206.642C159.84 206.334 160.036 205.919 160.036 205.396C160.036 204.864 159.836 204.449 159.434 204.15C159.042 203.842 158.51 203.688 157.838 203.688C157.176 203.688 156.644 203.842 156.242 204.15C155.841 204.458 155.64 204.873 155.64 205.396C155.64 205.919 155.836 206.334 156.228 206.642C156.63 206.941 157.166 207.09 157.838 207.09ZM168.957 198.76V199.81C167.809 201.014 166.969 202.283 166.437 203.618C165.914 204.953 165.653 206.413 165.653 208H164.505C164.505 206.488 164.775 205.037 165.317 203.646C165.867 202.246 166.675 200.967 167.739 199.81H162.153V198.76H168.957ZM176.804 198.76V199.81C175.656 201.014 174.816 202.283 174.284 203.618C173.762 204.953 173.5 206.413 173.5 208H172.352C172.352 206.488 172.623 205.037 173.164 203.646C173.715 202.246 174.522 200.967 175.586 199.81H170V198.76H176.804ZM181.446 198.62C182.202 198.62 182.846 198.821 183.378 199.222C183.919 199.623 184.325 200.183 184.596 200.902C184.876 201.611 185.016 202.437 185.016 203.38C185.016 204.929 184.713 206.11 184.106 206.922C183.499 207.734 182.617 208.14 181.46 208.14C180.685 208.14 180.023 207.963 179.472 207.608C178.921 207.253 178.515 206.735 178.254 206.054L179.36 205.466C179.687 206.549 180.401 207.09 181.502 207.09C182.417 207.09 183.061 206.745 183.434 206.054C183.807 205.354 183.994 204.337 183.994 203.002V202.876H183.938C183.779 203.464 183.457 203.903 182.972 204.192C182.487 204.472 181.95 204.612 181.362 204.612C180.755 204.612 180.219 204.495 179.752 204.262C179.285 204.019 178.921 203.683 178.66 203.254C178.399 202.815 178.268 202.307 178.268 201.728C178.268 200.776 178.548 200.02 179.108 199.46C179.677 198.9 180.457 198.62 181.446 198.62ZM181.46 199.698C180.807 199.698 180.307 199.875 179.962 200.23C179.617 200.585 179.444 201.089 179.444 201.742C179.444 202.293 179.626 202.731 179.99 203.058C180.354 203.375 180.844 203.534 181.46 203.534C182.057 203.534 182.543 203.357 182.916 203.002C183.289 202.647 183.476 202.19 183.476 201.63C183.476 201.051 183.289 200.585 182.916 200.23C182.552 199.875 182.067 199.698 181.46 199.698Z" fill="#165BAA"/>
<path d="M236.226 389.578H231.718V388.752L235.932 382.76H237.346V388.612H238.984V389.578H237.346V392H236.226V389.578ZM236.226 388.612V385.154C236.226 384.949 236.235 384.65 236.254 384.258C236.272 383.997 236.282 383.801 236.282 383.67H236.254C236.02 384.146 235.712 384.659 235.33 385.21L232.908 388.612H236.226ZM244.014 392.14C242.95 392.14 242.11 391.729 241.494 390.908C240.878 390.077 240.57 388.901 240.57 387.38C240.57 385.859 240.878 384.687 241.494 383.866C242.11 383.035 242.95 382.62 244.014 382.62C245.078 382.62 245.918 383.035 246.534 383.866C247.15 384.687 247.458 385.859 247.458 387.38C247.458 388.901 247.15 390.077 246.534 390.908C245.918 391.729 245.078 392.14 244.014 392.14ZM244.014 391.132C244.751 391.132 245.316 390.815 245.708 390.18C246.1 389.536 246.296 388.603 246.296 387.38C246.296 386.157 246.1 385.229 245.708 384.594C245.316 383.95 244.751 383.628 244.014 383.628C243.277 383.628 242.712 383.95 242.32 384.594C241.928 385.229 241.732 386.157 241.732 387.38C241.732 388.603 241.928 389.536 242.32 390.18C242.712 390.815 243.277 391.132 244.014 391.132ZM252.156 392.14C251.325 392.14 250.597 391.944 249.972 391.552C249.346 391.16 248.922 390.628 248.698 389.956L249.818 389.382C249.995 389.933 250.275 390.357 250.658 390.656C251.04 390.945 251.577 391.09 252.268 391.09C252.865 391.09 253.332 390.931 253.668 390.614C254.004 390.297 254.172 389.881 254.172 389.368C254.172 388.855 254.027 388.477 253.738 388.234C253.448 387.991 252.977 387.87 252.324 387.87C252.118 387.87 251.88 387.884 251.61 387.912V386.792C251.722 386.801 251.876 386.806 252.072 386.806C252.744 386.806 253.224 386.675 253.514 386.414C253.812 386.143 253.962 385.723 253.962 385.154C253.962 384.678 253.812 384.314 253.514 384.062C253.215 383.801 252.79 383.67 252.24 383.67C251.68 383.67 251.241 383.791 250.924 384.034C250.606 384.277 250.354 384.631 250.168 385.098L249.104 384.594C249.337 383.997 249.734 383.516 250.294 383.152C250.854 382.788 251.512 382.606 252.268 382.606C252.884 382.606 253.406 382.713 253.836 382.928C254.265 383.143 254.587 383.432 254.802 383.796C255.016 384.16 255.124 384.566 255.124 385.014C255.124 385.649 254.956 386.171 254.62 386.582C254.284 386.993 253.873 387.235 253.388 387.31V387.338C253.78 387.347 254.12 387.445 254.41 387.632C254.708 387.819 254.937 388.066 255.096 388.374C255.254 388.673 255.334 388.999 255.334 389.354C255.334 389.895 255.198 390.376 254.928 390.796C254.666 391.216 254.293 391.547 253.808 391.79C253.332 392.023 252.781 392.14 252.156 392.14ZM260.416 382.62C261.172 382.62 261.816 382.821 262.348 383.222C262.889 383.623 263.295 384.183 263.566 384.902C263.846 385.611 263.986 386.437 263.986 387.38C263.986 388.929 263.682 390.11 263.076 390.922C262.469 391.734 261.587 392.14 260.43 392.14C259.655 392.14 258.992 391.963 258.442 391.608C257.891 391.253 257.485 390.735 257.224 390.054L258.33 389.466C258.656 390.549 259.37 391.09 260.472 391.09C261.386 391.09 262.03 390.745 262.404 390.054C262.777 389.354 262.964 388.337 262.964 387.002V386.876H262.908C262.749 387.464 262.427 387.903 261.942 388.192C261.456 388.472 260.92 388.612 260.332 388.612C259.725 388.612 259.188 388.495 258.722 388.262C258.255 388.019 257.891 387.683 257.63 387.254C257.368 386.815 257.238 386.307 257.238 385.728C257.238 384.776 257.518 384.02 258.078 383.46C258.647 382.9 259.426 382.62 260.416 382.62ZM260.43 383.698C259.776 383.698 259.277 383.875 258.932 384.23C258.586 384.585 258.414 385.089 258.414 385.742C258.414 386.293 258.596 386.731 258.96 387.058C259.324 387.375 259.814 387.534 260.43 387.534C261.027 387.534 261.512 387.357 261.886 387.002C262.259 386.647 262.446 386.19 262.446 385.63C262.446 385.051 262.259 384.585 261.886 384.23C261.522 383.875 261.036 383.698 260.43 383.698Z" fill="#FA7E1E"/>
<path d="M529.048 475H527.928V465.76H529.048V475ZM535.194 467.86C535.988 467.86 536.641 468.089 537.154 468.546C537.668 469.003 537.924 469.661 537.924 470.52V475H536.804V470.912C536.804 470.184 536.646 469.657 536.328 469.33C536.02 469.003 535.605 468.84 535.082 468.84C534.709 468.84 534.359 468.924 534.032 469.092C533.706 469.251 533.435 469.517 533.22 469.89C533.015 470.254 532.912 470.716 532.912 471.276V475H531.792V468H532.772L532.842 469.092C533.076 468.672 533.398 468.364 533.808 468.168C534.219 467.963 534.681 467.86 535.194 467.86ZM542.98 475.14C542.29 475.14 541.66 474.995 541.09 474.706C540.521 474.407 540.082 473.997 539.774 473.474L540.726 472.788C540.932 473.227 541.235 473.567 541.636 473.81C542.038 474.043 542.514 474.16 543.064 474.16C543.55 474.16 543.932 474.067 544.212 473.88C544.502 473.684 544.646 473.432 544.646 473.124C544.646 472.657 544.343 472.359 543.736 472.228L542.056 471.878C541.394 471.738 540.908 471.509 540.6 471.192C540.302 470.865 540.152 470.455 540.152 469.96C540.152 469.577 540.264 469.227 540.488 468.91C540.712 468.593 541.03 468.341 541.44 468.154C541.851 467.958 542.322 467.86 542.854 467.86C543.536 467.86 544.114 467.995 544.59 468.266C545.076 468.537 545.435 468.919 545.668 469.414L544.73 470.03C544.581 469.638 544.334 469.344 543.988 469.148C543.643 468.943 543.265 468.84 542.854 468.84C542.36 468.84 541.968 468.943 541.678 469.148C541.398 469.344 541.258 469.601 541.258 469.918C541.258 470.413 541.59 470.725 542.252 470.856L544.002 471.22C544.628 471.351 545.076 471.561 545.346 471.85C545.626 472.139 545.766 472.508 545.766 472.956C545.766 473.619 545.51 474.151 544.996 474.552C544.483 474.944 543.811 475.14 542.98 475.14ZM552.169 474.51C551.702 474.93 551.11 475.14 550.391 475.14C549.803 475.14 549.322 474.991 548.949 474.692C548.576 474.384 548.384 473.908 548.375 473.264V468.966H546.975V468H548.375V466.32L549.495 466.012V468H552.043V468.966H549.495V473.068C549.495 473.404 549.588 473.661 549.775 473.838C549.971 474.006 550.228 474.09 550.545 474.09C550.806 474.09 551.035 474.048 551.231 473.964C551.427 473.871 551.609 473.74 551.777 473.572L552.169 474.51ZM559.448 474.146C559.626 474.146 559.798 474.123 559.966 474.076L559.91 474.958C559.724 475.051 559.481 475.098 559.182 475.098C558.828 475.098 558.524 475.014 558.272 474.846C558.03 474.669 557.876 474.412 557.81 474.076C557.577 474.421 557.255 474.687 556.844 474.874C556.434 475.051 556.009 475.14 555.57 475.14C554.908 475.14 554.357 474.977 553.918 474.65C553.48 474.314 553.26 473.843 553.26 473.236C553.26 472.713 553.433 472.284 553.778 471.948C554.124 471.612 554.614 471.379 555.248 471.248L557.796 470.744V470.478C557.796 469.955 557.656 469.554 557.376 469.274C557.096 468.985 556.7 468.84 556.186 468.84C555.169 468.84 554.511 469.283 554.212 470.17L553.302 469.61C553.498 469.069 553.848 468.644 554.352 468.336C554.856 468.019 555.477 467.86 556.214 467.86C557.017 467.86 557.666 468.065 558.16 468.476C558.664 468.877 558.916 469.47 558.916 470.254V473.642C558.916 473.978 559.094 474.146 559.448 474.146ZM555.724 474.16C556.303 474.16 556.793 474.011 557.194 473.712C557.596 473.413 557.796 472.979 557.796 472.41V471.668L555.766 472.088C555.29 472.191 554.945 472.326 554.73 472.494C554.516 472.653 554.408 472.881 554.408 473.18C554.408 473.469 554.525 473.707 554.758 473.894C554.992 474.071 555.314 474.16 555.724 474.16ZM565.404 474.104C566.067 474.104 566.585 474.253 566.958 474.552C567.331 474.851 567.518 475.257 567.518 475.77C567.518 476.218 567.369 476.61 567.07 476.946C566.771 477.291 566.365 477.553 565.852 477.73C565.339 477.917 564.765 478.01 564.13 478.01C563.421 478.01 562.819 477.926 562.324 477.758C561.829 477.59 561.456 477.361 561.204 477.072C560.961 476.783 560.84 476.461 560.84 476.106C560.84 475.77 560.933 475.471 561.12 475.21C561.307 474.958 561.596 474.781 561.988 474.678C561.484 474.454 561.232 474.067 561.232 473.516C561.232 473.217 561.316 472.951 561.484 472.718C561.661 472.485 561.913 472.303 562.24 472.172C561.885 471.967 561.615 471.696 561.428 471.36C561.241 471.024 561.148 470.646 561.148 470.226C561.148 469.769 561.269 469.363 561.512 469.008C561.755 468.644 562.095 468.364 562.534 468.168C562.973 467.963 563.467 467.86 564.018 467.86C564.606 467.86 565.133 467.977 565.6 468.21C565.665 467.753 565.875 467.389 566.23 467.118C566.594 466.847 567.028 466.712 567.532 466.712L567.784 467.692C566.813 467.692 566.309 468.028 566.272 468.7C566.683 469.129 566.888 469.638 566.888 470.226C566.888 470.683 566.767 471.094 566.524 471.458C566.281 471.813 565.941 472.093 565.502 472.298C565.063 472.494 564.569 472.592 564.018 472.592C563.719 472.592 563.397 472.559 563.052 472.494C562.781 472.578 562.581 472.695 562.45 472.844C562.329 472.984 562.268 473.147 562.268 473.334C562.268 473.847 562.632 474.104 563.36 474.104H565.404ZM564.018 468.77C563.533 468.77 563.127 468.905 562.8 469.176C562.473 469.447 562.31 469.797 562.31 470.226C562.31 470.655 562.473 471.005 562.8 471.276C563.127 471.547 563.533 471.682 564.018 471.682C564.503 471.682 564.909 471.547 565.236 471.276C565.563 471.005 565.726 470.655 565.726 470.226C565.726 469.797 565.563 469.447 565.236 469.176C564.909 468.905 564.503 468.77 564.018 468.77ZM564.116 477.072C564.881 477.072 565.465 476.96 565.866 476.736C566.277 476.512 566.482 476.232 566.482 475.896C566.482 475.625 566.375 475.42 566.16 475.28C565.955 475.14 565.6 475.07 565.096 475.07H562.94C562.632 475.07 562.375 475.149 562.17 475.308C561.974 475.467 561.876 475.677 561.876 475.938C561.876 476.283 562.077 476.559 562.478 476.764C562.879 476.969 563.425 477.072 564.116 477.072ZM569.089 468H569.999L570.153 469.148C570.545 468.289 571.292 467.86 572.393 467.86C572.729 467.86 572.986 467.907 573.163 468L572.967 469.022C572.743 468.947 572.458 468.91 572.113 468.91C571.805 468.91 571.502 468.999 571.203 469.176C570.914 469.344 570.676 469.605 570.489 469.96C570.302 470.305 570.209 470.725 570.209 471.22V475H569.089V468ZM580.353 474.146C580.53 474.146 580.703 474.123 580.871 474.076L580.815 474.958C580.628 475.051 580.385 475.098 580.087 475.098C579.732 475.098 579.429 475.014 579.177 474.846C578.934 474.669 578.78 474.412 578.715 474.076C578.481 474.421 578.159 474.687 577.749 474.874C577.338 475.051 576.913 475.14 576.475 475.14C575.812 475.14 575.261 474.977 574.823 474.65C574.384 474.314 574.165 473.843 574.165 473.236C574.165 472.713 574.337 472.284 574.683 471.948C575.028 471.612 575.518 471.379 576.153 471.248L578.701 470.744V470.478C578.701 469.955 578.561 469.554 578.281 469.274C578.001 468.985 577.604 468.84 577.091 468.84C576.073 468.84 575.415 469.283 575.117 470.17L574.207 469.61C574.403 469.069 574.753 468.644 575.257 468.336C575.761 468.019 576.381 467.86 577.119 467.86C577.921 467.86 578.57 468.065 579.065 468.476C579.569 468.877 579.821 469.47 579.821 470.254V473.642C579.821 473.978 579.998 474.146 580.353 474.146ZM576.629 474.16C577.207 474.16 577.697 474.011 578.099 473.712C578.5 473.413 578.701 472.979 578.701 472.41V471.668L576.671 472.088C576.195 472.191 575.849 472.326 575.635 472.494C575.42 472.653 575.313 472.881 575.313 473.18C575.313 473.469 575.429 473.707 575.663 473.894C575.896 474.071 576.218 474.16 576.629 474.16ZM582.542 468H583.522L583.592 469.092C583.835 468.681 584.152 468.373 584.544 468.168C584.946 467.963 585.375 467.86 585.832 467.86C586.346 467.86 586.817 467.977 587.246 468.21C587.685 468.443 588.016 468.784 588.24 469.232C588.446 468.784 588.782 468.443 589.248 468.21C589.715 467.977 590.191 467.86 590.676 467.86C591.143 467.86 591.577 467.958 591.978 468.154C592.389 468.341 592.72 468.635 592.972 469.036C593.224 469.437 593.35 469.932 593.35 470.52V475H592.23V470.632C592.23 470.025 592.076 469.577 591.768 469.288C591.47 468.989 591.073 468.84 590.578 468.84C590.205 468.84 589.86 468.933 589.542 469.12C589.234 469.297 588.982 469.563 588.786 469.918C588.6 470.263 588.506 470.679 588.506 471.164V475H587.386V470.632C587.386 470.025 587.232 469.577 586.924 469.288C586.626 468.989 586.229 468.84 585.734 468.84C585.398 468.84 585.072 468.929 584.754 469.106C584.437 469.274 584.176 469.54 583.97 469.904C583.765 470.268 583.662 470.721 583.662 471.262V475H582.542V468Z" fill="#1A1A1A"/>
<rect x="482" y="411" width="75" height="46" fill="#165BAA"/>
<rect x="563" y="238" width="75" height="219" fill="#FA7E1E"/>
<path d="M506.532 403.14C505.701 403.14 504.973 402.944 504.348 402.552C503.722 402.16 503.298 401.628 503.074 400.956L504.194 400.382C504.371 400.933 504.651 401.357 505.034 401.656C505.416 401.945 505.953 402.09 506.644 402.09C507.241 402.09 507.708 401.931 508.044 401.614C508.38 401.297 508.548 400.881 508.548 400.368C508.548 399.855 508.403 399.477 508.114 399.234C507.824 398.991 507.353 398.87 506.7 398.87C506.494 398.87 506.256 398.884 505.986 398.912V397.792C506.098 397.801 506.252 397.806 506.448 397.806C507.12 397.806 507.6 397.675 507.89 397.414C508.188 397.143 508.338 396.723 508.338 396.154C508.338 395.678 508.188 395.314 507.89 395.062C507.591 394.801 507.166 394.67 506.616 394.67C506.056 394.67 505.617 394.791 505.3 395.034C504.982 395.277 504.73 395.631 504.544 396.098L503.48 395.594C503.713 394.997 504.11 394.516 504.67 394.152C505.23 393.788 505.888 393.606 506.644 393.606C507.26 393.606 507.782 393.713 508.212 393.928C508.641 394.143 508.963 394.432 509.178 394.796C509.392 395.16 509.5 395.566 509.5 396.014C509.5 396.649 509.332 397.171 508.996 397.582C508.66 397.993 508.249 398.235 507.764 398.31V398.338C508.156 398.347 508.496 398.445 508.786 398.632C509.084 398.819 509.313 399.066 509.472 399.374C509.63 399.673 509.71 399.999 509.71 400.354C509.71 400.895 509.574 401.376 509.304 401.796C509.042 402.216 508.669 402.547 508.184 402.79C507.708 403.023 507.157 403.14 506.532 403.14ZM515.758 400.578H511.25V399.752L515.464 393.76H516.878V399.612H518.516V400.578H516.878V403H515.758V400.578ZM515.758 399.612V396.154C515.758 395.949 515.767 395.65 515.786 395.258C515.804 394.997 515.814 394.801 515.814 394.67H515.786C515.552 395.146 515.244 395.659 514.862 396.21L512.44 399.612H515.758ZM523.546 403.14C522.482 403.14 521.642 402.729 521.026 401.908C520.41 401.077 520.102 399.901 520.102 398.38C520.102 396.859 520.41 395.687 521.026 394.866C521.642 394.035 522.482 393.62 523.546 393.62C524.61 393.62 525.45 394.035 526.066 394.866C526.682 395.687 526.99 396.859 526.99 398.38C526.99 399.901 526.682 401.077 526.066 401.908C525.45 402.729 524.61 403.14 523.546 403.14ZM523.546 402.132C524.284 402.132 524.848 401.815 525.24 401.18C525.632 400.536 525.828 399.603 525.828 398.38C525.828 397.157 525.632 396.229 525.24 395.594C524.848 394.95 524.284 394.628 523.546 394.628C522.809 394.628 522.244 394.95 521.852 395.594C521.46 396.229 521.264 397.157 521.264 398.38C521.264 399.603 521.46 400.536 521.852 401.18C522.244 401.815 522.809 402.132 523.546 402.132ZM532.213 393.634C533.109 393.634 533.823 393.853 534.355 394.292C534.887 394.721 535.153 395.309 535.153 396.056C535.153 396.532 535.037 396.952 534.803 397.316C534.579 397.671 534.262 397.941 533.851 398.128V398.142C534.393 398.347 534.813 398.651 535.111 399.052C535.419 399.453 535.573 399.939 535.573 400.508C535.573 401.04 535.433 401.507 535.153 401.908C534.883 402.3 534.491 402.603 533.977 402.818C533.473 403.033 532.885 403.14 532.213 403.14C531.541 403.14 530.953 403.033 530.449 402.818C529.945 402.603 529.553 402.3 529.273 401.908C528.993 401.507 528.853 401.04 528.853 400.508C528.853 399.948 529.003 399.463 529.301 399.052C529.609 398.641 530.039 398.338 530.589 398.142V398.128C530.179 397.951 529.857 397.68 529.623 397.316C529.39 396.952 529.273 396.532 529.273 396.056C529.273 395.309 529.539 394.721 530.071 394.292C530.603 393.853 531.317 393.634 532.213 393.634ZM532.213 394.684C531.663 394.684 531.229 394.815 530.911 395.076C530.594 395.337 530.435 395.701 530.435 396.168C530.435 396.616 530.599 396.975 530.925 397.246C531.252 397.507 531.681 397.638 532.213 397.638C532.745 397.638 533.175 397.507 533.501 397.246C533.828 396.975 533.991 396.616 533.991 396.168C533.991 395.701 533.833 395.337 533.515 395.076C533.198 394.815 532.764 394.684 532.213 394.684ZM532.213 402.09C532.895 402.09 533.431 401.941 533.823 401.642C534.215 401.334 534.411 400.919 534.411 400.396C534.411 399.864 534.211 399.449 533.809 399.15C533.417 398.842 532.885 398.688 532.213 398.688C531.551 398.688 531.019 398.842 530.617 399.15C530.216 399.458 530.015 399.873 530.015 400.396C530.015 400.919 530.211 401.334 530.603 401.642C531.005 401.941 531.541 402.09 532.213 402.09Z" fill="#165BAA"/>
<path d="M585.072 223.224C585.072 223.028 585.081 222.669 585.1 222.146C584.783 222.454 584.414 222.725 583.994 222.958C583.574 223.182 583.145 223.345 582.706 223.448L582.412 222.426C582.636 222.398 582.939 222.295 583.322 222.118C583.705 221.931 584.073 221.717 584.428 221.474C584.783 221.222 585.044 220.984 585.212 220.76H586.192V230H585.072V223.224ZM594.979 220.76V221.81C593.831 223.014 592.991 224.283 592.459 225.618C591.937 226.953 591.675 228.413 591.675 230H590.527C590.527 228.488 590.798 227.037 591.339 225.646C591.89 224.246 592.697 222.967 593.761 221.81H588.175V220.76H594.979ZM599.621 220.62C600.377 220.62 601.021 220.821 601.553 221.222C602.094 221.623 602.5 222.183 602.771 222.902C603.051 223.611 603.191 224.437 603.191 225.38C603.191 226.929 602.888 228.11 602.281 228.922C601.674 229.734 600.792 230.14 599.635 230.14C598.86 230.14 598.198 229.963 597.647 229.608C597.096 229.253 596.69 228.735 596.429 228.054L597.535 227.466C597.862 228.549 598.576 229.09 599.677 229.09C600.592 229.09 601.236 228.745 601.609 228.054C601.982 227.354 602.169 226.337 602.169 225.002V224.876H602.113C601.954 225.464 601.632 225.903 601.147 226.192C600.662 226.472 600.125 226.612 599.537 226.612C598.93 226.612 598.394 226.495 597.927 226.262C597.46 226.019 597.096 225.683 596.835 225.254C596.574 224.815 596.443 224.307 596.443 223.728C596.443 222.776 596.723 222.02 597.283 221.46C597.852 220.9 598.632 220.62 599.621 220.62ZM599.635 221.698C598.982 221.698 598.482 221.875 598.137 222.23C597.792 222.585 597.619 223.089 597.619 223.742C597.619 224.293 597.801 224.731 598.165 225.058C598.529 225.375 599.019 225.534 599.635 225.534C600.232 225.534 600.718 225.357 601.091 225.002C601.464 224.647 601.651 224.19 601.651 223.63C601.651 223.051 601.464 222.585 601.091 222.23C600.727 221.875 600.242 221.698 599.635 221.698ZM611.194 220.76V221.81C610.046 223.014 609.206 224.283 608.674 225.618C608.151 226.953 607.89 228.413 607.89 230H606.742C606.742 228.488 607.013 227.037 607.554 225.646C608.105 224.246 608.912 222.967 609.976 221.81H604.39V220.76H611.194ZM615.738 230.14C614.907 230.14 614.179 229.944 613.554 229.552C612.928 229.16 612.504 228.628 612.28 227.956L613.4 227.382C613.577 227.933 613.857 228.357 614.24 228.656C614.622 228.945 615.159 229.09 615.85 229.09C616.447 229.09 616.914 228.931 617.25 228.614C617.586 228.297 617.754 227.881 617.754 227.368C617.754 226.855 617.609 226.477 617.32 226.234C617.03 225.991 616.559 225.87 615.906 225.87C615.7 225.87 615.462 225.884 615.192 225.912V224.792C615.304 224.801 615.458 224.806 615.654 224.806C616.326 224.806 616.806 224.675 617.096 224.414C617.394 224.143 617.544 223.723 617.544 223.154C617.544 222.678 617.394 222.314 617.096 222.062C616.797 221.801 616.372 221.67 615.822 221.67C615.262 221.67 614.823 221.791 614.506 222.034C614.188 222.277 613.936 222.631 613.75 223.098L612.686 222.594C612.919 221.997 613.316 221.516 613.876 221.152C614.436 220.788 615.094 220.606 615.85 220.606C616.466 220.606 616.988 220.713 617.418 220.928C617.847 221.143 618.169 221.432 618.384 221.796C618.598 222.16 618.706 222.566 618.706 223.014C618.706 223.649 618.538 224.171 618.202 224.582C617.866 224.993 617.455 225.235 616.97 225.31V225.338C617.362 225.347 617.702 225.445 617.992 225.632C618.29 225.819 618.519 226.066 618.678 226.374C618.836 226.673 618.916 226.999 618.916 227.354C618.916 227.895 618.78 228.376 618.51 228.796C618.248 229.216 617.875 229.547 617.39 229.79C616.914 230.023 616.363 230.14 615.738 230.14Z" fill="#FA7E1E"/>
<path d="M889.365 471.388V475H888.245V471.388L884.941 465.76H886.271L888.805 470.24L891.339 465.76H892.669L889.365 471.388ZM896.001 467.86C896.663 467.86 897.247 468.009 897.751 468.308C898.264 468.597 898.665 469.017 898.955 469.568C899.244 470.119 899.389 470.763 899.389 471.5C899.389 472.237 899.244 472.881 898.955 473.432C898.665 473.983 898.264 474.407 897.751 474.706C897.247 474.995 896.663 475.14 896.001 475.14C895.338 475.14 894.75 474.995 894.237 474.706C893.733 474.407 893.336 473.983 893.047 473.432C892.757 472.881 892.613 472.237 892.613 471.5C892.613 470.763 892.757 470.119 893.047 469.568C893.336 469.017 893.733 468.597 894.237 468.308C894.75 468.009 895.338 467.86 896.001 467.86ZM896.001 468.826C895.291 468.826 894.736 469.064 894.335 469.54C893.933 470.016 893.733 470.669 893.733 471.5C893.733 472.331 893.933 472.984 894.335 473.46C894.736 473.936 895.291 474.174 896.001 474.174C896.71 474.174 897.265 473.936 897.667 473.46C898.068 472.984 898.269 472.331 898.269 471.5C898.269 470.669 898.068 470.016 897.667 469.54C897.265 469.064 896.71 468.826 896.001 468.826ZM904.031 475.14C903.285 475.14 902.664 474.93 902.169 474.51C901.675 474.09 901.427 473.451 901.427 472.592V468H902.547V472.298C902.547 472.979 902.692 473.46 902.981 473.74C903.28 474.02 903.723 474.16 904.311 474.16C904.89 474.16 905.385 473.964 905.795 473.572C906.206 473.171 906.411 472.583 906.411 471.808V468H907.531V475H906.551L906.481 473.936C906.015 474.739 905.198 475.14 904.031 475.14ZM914.464 474.51C913.997 474.93 913.405 475.14 912.686 475.14C912.098 475.14 911.617 474.991 911.244 474.692C910.871 474.384 910.679 473.908 910.67 473.264V468.966H909.27V468H910.67V466.32L911.79 466.012V468H914.338V468.966H911.79V473.068C911.79 473.404 911.883 473.661 912.07 473.838C912.266 474.006 912.523 474.09 912.84 474.09C913.101 474.09 913.33 474.048 913.526 473.964C913.722 473.871 913.904 473.74 914.072 473.572L914.464 474.51ZM918.537 475.14C917.791 475.14 917.17 474.93 916.675 474.51C916.181 474.09 915.933 473.451 915.933 472.592V468H917.053V472.298C917.053 472.979 917.198 473.46 917.487 473.74C917.786 474.02 918.229 474.16 918.817 474.16C919.396 474.16 919.891 473.964 920.301 473.572C920.712 473.171 920.917 472.583 920.917 471.808V468H922.037V475H921.057L920.987 473.936C920.521 474.739 919.704 475.14 918.537 475.14ZM928.088 467.86C928.676 467.86 929.212 468.009 929.698 468.308C930.183 468.597 930.566 469.017 930.846 469.568C931.135 470.119 931.28 470.763 931.28 471.5C931.28 472.237 931.135 472.881 930.846 473.432C930.556 473.983 930.169 474.407 929.684 474.706C929.198 474.995 928.662 475.14 928.074 475.14C927.551 475.14 927.075 475.019 926.646 474.776C926.226 474.524 925.908 474.193 925.694 473.782L925.624 475H924.644V464.78H925.764V469.092C925.988 468.719 926.305 468.42 926.716 468.196C927.126 467.972 927.584 467.86 928.088 467.86ZM927.962 474.16C928.652 474.16 929.189 473.922 929.572 473.446C929.964 472.961 930.16 472.312 930.16 471.5C930.16 470.688 929.964 470.044 929.572 469.568C929.189 469.083 928.657 468.84 927.976 468.84C927.313 468.84 926.776 469.087 926.366 469.582C925.964 470.077 925.764 470.725 925.764 471.528C925.764 472.331 925.964 472.97 926.366 473.446C926.767 473.922 927.299 474.16 927.962 474.16ZM939.371 471.038C939.371 471.299 939.352 471.561 939.315 471.822H934.037C934.093 472.559 934.322 473.133 934.723 473.544C935.124 473.955 935.656 474.16 936.319 474.16C937.252 474.16 937.929 473.796 938.349 473.068L939.231 473.586C938.96 474.071 938.578 474.454 938.083 474.734C937.588 475.005 937.01 475.14 936.347 475.14C935.684 475.14 935.092 474.995 934.569 474.706C934.056 474.407 933.654 473.987 933.365 473.446C933.076 472.895 932.931 472.247 932.931 471.5C932.931 470.763 933.071 470.119 933.351 469.568C933.64 469.017 934.037 468.597 934.541 468.308C935.045 468.009 935.624 467.86 936.277 467.86C936.912 467.86 937.462 468 937.929 468.28C938.396 468.551 938.75 468.929 938.993 469.414C939.245 469.899 939.371 470.441 939.371 471.038ZM936.249 468.84C935.661 468.84 935.176 469.017 934.793 469.372C934.41 469.717 934.172 470.203 934.079 470.828H938.251C938.232 470.203 938.041 469.717 937.677 469.372C937.313 469.017 936.837 468.84 936.249 468.84Z" fill="#1A1A1A"/>
<rect x="916" y="451" width="75" height="5" fill="#FA7E1E"/>
<path d="M946.153 445.09C947.432 444.147 948.412 443.373 949.093 442.766C949.775 442.15 950.26 441.595 950.549 441.1C950.848 440.596 950.997 440.069 950.997 439.518C950.997 438.967 950.82 438.524 950.465 438.188C950.111 437.843 949.635 437.67 949.037 437.67C948.412 437.67 947.903 437.875 947.511 438.286C947.129 438.697 946.905 439.252 946.839 439.952L945.859 439.364C945.981 438.533 946.317 437.871 946.867 437.376C947.427 436.872 948.165 436.62 949.079 436.62C949.695 436.62 950.237 436.741 950.703 436.984C951.179 437.227 951.543 437.567 951.795 438.006C952.047 438.445 952.173 438.949 952.173 439.518C952.173 440.115 952.029 440.689 951.739 441.24C951.459 441.791 950.997 442.369 950.353 442.976C949.709 443.583 948.841 444.25 947.749 444.978V444.992C948.365 444.964 948.827 444.95 949.135 444.95H952.369V446H946.153V445.09ZM957.297 446.14C956.495 446.14 955.841 445.963 955.337 445.608C954.833 445.244 954.441 444.717 954.161 444.026L955.253 443.452C955.412 443.984 955.65 444.39 955.967 444.67C956.294 444.95 956.747 445.09 957.325 445.09C957.96 445.09 958.459 444.917 958.823 444.572C959.197 444.227 959.383 443.751 959.383 443.144C959.383 442.491 959.215 441.991 958.879 441.646C958.543 441.301 958.058 441.128 957.423 441.128C956.462 441.128 955.776 441.427 955.365 442.024L954.385 441.842L954.931 436.76H960.125V437.81H955.883L955.519 440.722L955.491 440.848H955.519C956.014 440.335 956.719 440.078 957.633 440.078C958.511 440.078 959.215 440.353 959.747 440.904C960.279 441.445 960.545 442.164 960.545 443.06C960.545 443.685 960.41 444.231 960.139 444.698C959.869 445.165 959.486 445.524 958.991 445.776C958.497 446.019 957.932 446.14 957.297 446.14ZM964.34 439.224C964.34 439.028 964.349 438.669 964.368 438.146C964.05 438.454 963.682 438.725 963.262 438.958C962.842 439.182 962.412 439.345 961.974 439.448L961.68 438.426C961.904 438.398 962.207 438.295 962.59 438.118C962.972 437.931 963.341 437.717 963.696 437.474C964.05 437.222 964.312 436.984 964.48 436.76H965.46V446H964.34V439.224Z" fill="#FA7E1E"/>
<rect x="835" y="98" width="75" height="358" fill="#165BAA"/>
<path d="M848.339 90.09C849.617 89.1473 850.597 88.3727 851.279 87.766C851.96 87.15 852.445 86.5947 852.735 86.1C853.033 85.596 853.183 85.0687 853.183 84.518C853.183 83.9673 853.005 83.524 852.651 83.188C852.296 82.8427 851.82 82.67 851.223 82.67C850.597 82.67 850.089 82.8753 849.697 83.286C849.314 83.6967 849.09 84.252 849.025 84.952L848.045 84.364C848.166 83.5333 848.502 82.8707 849.053 82.376C849.613 81.872 850.35 81.62 851.265 81.62C851.881 81.62 852.422 81.7413 852.889 81.984C853.365 82.2267 853.729 82.5673 853.981 83.006C854.233 83.4447 854.359 83.9487 854.359 84.518C854.359 85.1153 854.214 85.6893 853.925 86.24C853.645 86.7907 853.183 87.3693 852.539 87.976C851.895 88.5827 851.027 89.25 849.935 89.978V89.992C850.551 89.964 851.013 89.95 851.321 89.95H854.555V91H848.339V90.09ZM859.987 81.62C860.724 81.62 861.326 81.774 861.793 82.082C862.26 82.39 862.638 82.8847 862.927 83.566L861.891 84.056C861.592 83.132 860.934 82.67 859.917 82.67C859.394 82.67 858.946 82.8427 858.573 83.188C858.2 83.524 857.915 83.9907 857.719 84.588C857.523 85.176 857.425 85.8433 857.425 86.59V86.842H857.481C857.621 86.2913 857.938 85.8713 858.433 85.582C858.928 85.2927 859.455 85.148 860.015 85.148C860.958 85.148 861.709 85.4187 862.269 85.96C862.838 86.5013 863.123 87.2293 863.123 88.144C863.123 89.0587 862.834 89.7867 862.255 90.328C861.686 90.8693 860.916 91.14 859.945 91.14C859.189 91.14 858.54 90.9393 857.999 90.538C857.467 90.1273 857.061 89.5673 856.781 88.858C856.51 88.1393 856.375 87.3133 856.375 86.38C856.375 85.372 856.529 84.5133 856.837 83.804C857.154 83.0853 857.584 82.544 858.125 82.18C858.676 81.8067 859.296 81.62 859.987 81.62ZM859.931 86.226C859.334 86.226 858.848 86.4033 858.475 86.758C858.102 87.1127 857.915 87.57 857.915 88.13C857.915 88.4847 858.004 88.8113 858.181 89.11C858.358 89.3993 858.601 89.6327 858.909 89.81C859.217 89.978 859.558 90.062 859.931 90.062C860.566 90.062 861.06 89.894 861.415 89.558C861.77 89.2127 861.947 88.7367 861.947 88.13C861.947 87.542 861.77 87.08 861.415 86.744C861.06 86.3987 860.566 86.226 859.931 86.226ZM868 91.14C867.198 91.14 866.544 90.9627 866.04 90.608C865.536 90.244 865.144 89.7167 864.864 89.026L865.956 88.452C866.115 88.984 866.353 89.39 866.67 89.67C866.997 89.95 867.45 90.09 868.028 90.09C868.663 90.09 869.162 89.9173 869.526 89.572C869.9 89.2267 870.086 88.7507 870.086 88.144C870.086 87.4907 869.918 86.9913 869.582 86.646C869.246 86.3007 868.761 86.128 868.126 86.128C867.165 86.128 866.479 86.4267 866.068 87.024L865.088 86.842L865.634 81.76H870.828V82.81H866.586L866.222 85.722L866.194 85.848H866.222C866.717 85.3347 867.422 85.078 868.336 85.078C869.214 85.078 869.918 85.3533 870.45 85.904C870.982 86.4453 871.248 87.164 871.248 88.06C871.248 88.6853 871.113 89.2313 870.842 89.698C870.572 90.1647 870.189 90.524 869.694 90.776C869.2 91.0187 868.635 91.14 868 91.14ZM876.149 91.14C875.346 91.14 874.693 90.9627 874.189 90.608C873.685 90.244 873.293 89.7167 873.013 89.026L874.105 88.452C874.264 88.984 874.502 89.39 874.819 89.67C875.146 89.95 875.598 90.09 876.177 90.09C876.812 90.09 877.311 89.9173 877.675 89.572C878.048 89.2267 878.235 88.7507 878.235 88.144C878.235 87.4907 878.067 86.9913 877.731 86.646C877.395 86.3007 876.91 86.128 876.275 86.128C875.314 86.128 874.628 86.4267 874.217 87.024L873.237 86.842L873.783 81.76H878.977V82.81H874.735L874.371 85.722L874.343 85.848H874.371C874.866 85.3347 875.57 85.078 876.485 85.078C877.362 85.078 878.067 85.3533 878.599 85.904C879.131 86.4453 879.397 87.164 879.397 88.06C879.397 88.6853 879.262 89.2313 878.991 89.698C878.72 90.1647 878.338 90.524 877.843 90.776C877.348 91.0187 876.784 91.14 876.149 91.14ZM884.633 91.14C883.569 91.14 882.729 90.7293 882.113 89.908C881.497 89.0773 881.189 87.9013 881.189 86.38C881.189 84.8587 881.497 83.6873 882.113 82.866C882.729 82.0353 883.569 81.62 884.633 81.62C885.697 81.62 886.537 82.0353 887.153 82.866C887.769 83.6873 888.077 84.8587 888.077 86.38C888.077 87.9013 887.769 89.0773 887.153 89.908C886.537 90.7293 885.697 91.14 884.633 91.14ZM884.633 90.132C885.371 90.132 885.935 89.8147 886.327 89.18C886.719 88.536 886.915 87.6027 886.915 86.38C886.915 85.1573 886.719 84.2287 886.327 83.594C885.935 82.95 885.371 82.628 884.633 82.628C883.896 82.628 883.331 82.95 882.939 83.594C882.547 84.2287 882.351 85.1573 882.351 86.38C882.351 87.6027 882.547 88.536 882.939 89.18C883.331 89.8147 883.896 90.132 884.633 90.132ZM893.342 91.14C892.278 91.14 891.438 90.7293 890.822 89.908C890.206 89.0773 889.898 87.9013 889.898 86.38C889.898 84.8587 890.206 83.6873 890.822 82.866C891.438 82.0353 892.278 81.62 893.342 81.62C894.406 81.62 895.246 82.0353 895.862 82.866C896.478 83.6873 896.786 84.8587 896.786 86.38C896.786 87.9013 896.478 89.0773 895.862 89.908C895.246 90.7293 894.406 91.14 893.342 91.14ZM893.342 90.132C894.08 90.132 894.644 89.8147 895.036 89.18C895.428 88.536 895.624 87.6027 895.624 86.38C895.624 85.1573 895.428 84.2287 895.036 83.594C894.644 82.95 894.08 82.628 893.342 82.628C892.605 82.628 892.04 82.95 891.648 83.594C891.256 84.2287 891.06 85.1573 891.06 86.38C891.06 87.6027 891.256 88.536 891.648 89.18C892.04 89.8147 892.605 90.132 893.342 90.132Z" fill="#165BAA"/>
</svg>
