<svg width="384" height="350" viewBox="0 0 384 350" fill="none" xmlns="http://www.w3.org/2000/svg">
<g clip-path="url(#clip0_121_3462)">
<path d="M21.1829 282.81C20.8186 269.955 23.3948 256.84 30.4208 245.468C37.4469 234.07 49.1569 224.546 63.4692 220.539C81.7628 215.386 101.592 219.55 120.666 221.866C145.856 224.937 173.205 224.338 194.465 212.446C211.042 203.182 222.049 188.063 238.001 178.044C266.938 159.881 309.64 162.093 338.733 180.074C367.826 198.056 383.439 229.36 383.465 260.015C383.491 294.078 364.521 327.491 334.361 349.662H51.3688C33.2833 330.691 21.9115 307.141 21.1829 282.81Z" stroke="#FFCC15" stroke-width="2.5" stroke-miterlimit="10"/>
<path d="M383.465 273.52C383.83 258.896 381.306 243.985 374.514 231.026C367.696 218.067 356.324 207.215 342.428 202.661C324.655 196.806 305.399 201.543 286.871 204.171C262.41 207.658 235.867 206.981 215.205 193.45C199.123 182.885 188.428 165.71 172.919 154.312C144.815 133.65 103.361 136.175 75.1012 156.628C46.841 177.082 31.696 212.706 31.6699 247.576C31.6439 286.323 50.0677 324.342 79.3428 349.557H354.138C371.729 328.037 382.763 301.234 383.465 273.52Z" fill="#FFCC15" fill-opacity="0.2"/>
<path d="M173.999 322.89C170.827 325.259 167.558 326.948 163.166 327.755L164.215 331.006C156.53 340.357 155.188 346.128 156.335 349.455L180.049 335.064L173.999 322.89Z" fill="#102048"/>
<path d="M168.338 308.902L158.579 313.388L163.19 327.755C167.606 326.948 170.875 325.234 174.023 322.89L168.338 308.902Z" fill="#F9B384"/>
<path d="M112.98 335.971V320.345L102.562 320.118L100.439 335.845C105.026 336.702 109.174 336.702 112.98 335.971Z" fill="#F9B384"/>
<path d="M100.416 335.845L99.9278 339.424C88.6074 343.179 85.021 346.053 84.2891 349.506H112.98V335.971C109.174 336.702 105.027 336.702 100.416 335.845Z" fill="#102048"/>
<path d="M147.258 195.434L127.179 220.79L125.764 222.579L123.495 247.682L116.103 329.343L96.9998 328.889C95.292 275.885 92.8278 220.79 98.4148 183.563L100.367 170.331L145.965 173.684L147.258 195.434Z" fill="#1A1A1A"/>
<path d="M61.8436 113.749L60.4042 112.06C59.5259 111.052 58.2572 110.472 56.9642 110.548L38.8125 111.329C38.7149 111.329 38.6661 111.48 38.7393 111.531C42.6673 114.681 47.5712 116.32 53.1582 116.899L58.7452 124.813L61.8436 113.749Z" fill="#F9B384"/>
<path d="M127.179 220.765L125.764 222.554L123.495 247.657C116.493 232.005 118.616 209.549 118.616 209.549L127.179 220.765Z" fill="#102048"/>
<path d="M147.259 195.434C152.236 234.248 162.336 275.961 174.73 316.64L156.822 323.042C134.889 274.499 126.106 248.237 118.616 209.574L147.259 195.434Z" fill="#1A1A1A"/>
<path d="M125.935 104.726L122.837 118.386L129.522 125.343L137.622 123.654L139.476 104.045L125.935 104.726Z" fill="#F9B384"/>
<path opacity="0.6" d="M102.66 181.472C111.785 183.664 124.154 189.033 139.793 184.168L141.745 176.758L104.124 175.75L102.66 181.472Z" fill="#102048"/>
<path d="M123.178 115.715C123.178 115.715 129.034 124.788 138.158 118.739L146.307 133.383L142.574 179.127C128.912 184.546 115.737 182.757 102.855 176.784L112.614 123.301L123.178 115.715Z" fill="white"/>
<g opacity="0.3">
<path d="M122.349 121.486C123.251 122.772 124.3 123.855 125.52 124.687C126.74 125.494 128.082 126.073 129.473 126.351C130.863 126.628 132.303 126.603 133.718 126.275C135.133 125.947 136.475 125.292 137.768 124.41C136.841 125.695 135.523 126.704 134.011 127.283C132.498 127.863 130.815 127.989 129.229 127.686C127.643 127.359 126.13 126.628 124.91 125.544C123.69 124.435 122.763 123.024 122.349 121.486Z" fill="#1A1A1A"/>
</g>
<path d="M123.423 115.866L111.004 115.816C107.028 115.841 103.148 116.95 99.7084 118.991L82.9718 128.972L61.8681 113.724L53.207 123.503L74.7255 142.532C78.1411 145.43 82.7034 146.388 86.9486 145.102L100.05 141.12L86.8754 190.394C96.122 193.091 103.27 194.855 111.956 191.578C116.665 180.463 124.935 153.924 123.423 115.866Z" fill="#FFCC15"/>
<path d="M125.448 90.9897C125.448 90.9897 121.911 91.5189 118.617 86.2009C115.543 81.2358 120.715 69.7428 129.694 74.5063C135.403 68.7851 143.551 71.3559 149.163 79.6731C149.163 79.6731 151.261 79.4211 153.31 82.0927C156.067 85.6969 154.896 97.4418 146.406 102.105L125.448 90.9897Z" fill="#102048"/>
<path d="M125.252 107.649C125.252 107.649 126.887 113.144 130.815 113.85C135.865 114.782 138.329 108.632 138.329 108.632L125.252 107.649Z" fill="#E28B6D"/>
<path d="M146.502 88.8475L145.478 98.9038C145.478 98.9038 143.745 105.028 137.817 109.893C131.888 114.757 123.935 109.565 123.544 102.609C123.544 102.533 123.544 102.458 123.52 102.382C123.422 100.492 123.398 98.7274 123.471 97.1143C123.691 90.4353 125.033 86.3271 125.033 86.3271L135.572 81.6896L146.502 88.8475Z" fill="#F9B384"/>
<path d="M145.136 97.5427C142.33 96.2825 141.233 93.3589 141.135 89.4523C135.133 90.8889 129.546 90.284 124.325 88.1165L121.495 82.7228L133.474 78.0349L147.137 81.7651L150.138 91.1157L145.136 97.5427Z" fill="#102048"/>
<path d="M136.255 96.3077C136.06 97.0638 135.499 97.5426 134.987 97.3914C134.474 97.2402 134.23 96.5345 134.425 95.7784C134.621 95.0223 135.182 94.5434 135.694 94.6946C136.206 94.8458 136.45 95.5515 136.255 96.3077Z" fill="#102048"/>
<path d="M128.072 94.7759C128.203 94.0223 127.89 93.3337 127.373 93.2378C126.855 93.1418 126.33 93.675 126.199 94.4285C126.068 95.1821 126.381 95.8707 126.898 95.9667C127.416 96.0626 127.941 95.5295 128.072 94.7759Z" fill="#102048"/>
<path d="M130.499 94.1653C130.718 94.8962 130.621 95.7279 130.255 96.4336C130.084 96.7865 129.815 97.1141 129.523 97.3662C129.23 97.6182 128.913 97.7946 128.693 97.9963C128.474 98.1979 128.303 98.4247 128.254 98.6516C128.205 98.8532 128.278 99.08 128.449 99.3825C128.815 99.9622 129.206 100.567 129.547 101.197L129.303 101.399C128.791 100.895 128.327 100.391 127.864 99.8109C127.644 99.5337 127.4 99.0548 127.498 98.5255C127.595 98.0467 127.888 97.6938 128.205 97.4166C128.522 97.1645 128.815 96.9881 129.059 96.7865C129.303 96.6101 129.498 96.358 129.669 96.106C130.011 95.5767 130.206 94.9214 130.181 94.2409L130.499 94.1653Z" fill="#E28B6D"/>
<path d="M133.499 93.0313C134.207 92.502 135.134 92.1239 136.11 92.25C136.597 92.3256 137.061 92.5272 137.427 92.8548C137.793 93.1573 138.061 93.5606 138.257 93.989L138.037 94.1402C137.403 93.5354 136.768 93.0313 135.988 92.9305C135.231 92.8044 134.402 93.0313 133.572 93.2833L133.499 93.0313Z" fill="#102048"/>
<path d="M125.789 91.6955C126.082 91.4183 126.423 91.1914 126.789 91.015C127.155 90.8386 127.594 90.763 128.034 90.7882C128.473 90.8386 128.912 91.0402 129.205 91.3427C129.522 91.6451 129.741 91.998 129.888 92.4012L129.668 92.5524C129.132 91.998 128.595 91.5443 127.936 91.4687C127.302 91.3931 126.594 91.6451 125.887 91.9223L125.789 91.6955Z" fill="#102048"/>
<path d="M127.839 103.213L132.791 103.365C132.645 104.373 132.254 105.204 131.571 105.809C130.669 106.616 129.254 106.515 128.497 105.583C127.985 104.902 127.741 104.121 127.839 103.213Z" fill="white"/>
<path opacity="0.4" d="M139.307 103.184C140.346 102.111 140.346 100.372 139.307 99.2991C138.269 98.2263 136.585 98.2263 135.546 99.2991C134.508 100.372 134.508 102.111 135.546 103.184C136.585 104.257 138.269 104.257 139.307 103.184Z" fill="#FC8879"/>
<path opacity="0.4" d="M125.423 99.7604C125.423 100.995 124.618 102.054 123.52 102.382C123.422 100.491 123.398 98.7271 123.471 97.114C124.569 97.4165 125.423 98.475 125.423 99.7604Z" fill="#FC8879"/>
<path d="M157.701 167.332L151.845 196.77L165.313 196.316L170.582 174.717C173.095 164.408 172.364 153.52 168.362 143.741C166.411 138.953 163.946 133.861 161.043 128.569C159.652 126.023 157.359 124.133 154.627 123.377L138.134 118.739C130.058 144.674 126.277 169.676 130.156 192.964L148.771 190.545C149.015 177.716 148.698 163.4 153.163 146.136C153.138 146.161 158.335 153.546 157.701 167.332Z" fill="#FFCC15"/>
<path d="M142.917 97.2653C145.137 95.5514 146.283 95.4254 147.747 96.736C149.504 98.3491 149.04 105.331 142.209 102.81L142.917 97.2653Z" fill="#F9B384"/>
<path d="M144.038 99.6345C143.965 99.2313 144.013 98.8028 144.184 98.4248C144.355 98.0467 144.648 97.719 144.989 97.4922C145.331 97.2654 145.746 97.1394 146.185 97.1646C146.6 97.1898 147.063 97.4418 147.234 97.8451L147.039 97.9963C146.77 97.7947 146.478 97.7442 146.209 97.7694C145.916 97.7947 145.624 97.8955 145.355 98.0719C144.819 98.3995 144.453 98.954 144.306 99.6597H144.038V99.6345Z" fill="#E28B6D"/>
<path d="M101.863 133.463L97.2246 150.626L97.8591 150.809L102.497 133.646L101.863 133.463Z" fill="#102048"/>
<path d="M151.333 155.461L150.698 155.36C151.186 152.008 154.163 140.515 154.285 140.011L154.919 140.188C154.87 140.288 151.821 152.134 151.333 155.461Z" fill="#102048"/>
<path d="M168.582 219.781C166.166 222.176 163.434 224.016 160.506 225.276C158.091 226.334 155.578 226.99 152.992 227.267C149.625 227.645 146.185 227.343 142.916 226.36C139.939 225.477 137.085 224.066 134.498 222.1C133.303 221.193 132.181 220.185 131.107 219.025C126.155 213.707 123.69 206.877 123.69 200.047C123.69 192.864 126.399 185.706 131.79 180.337C132.913 179.228 134.084 178.245 135.304 177.388C136.572 176.481 137.914 175.725 139.28 175.095C140.207 174.666 141.183 174.288 142.135 173.961C143.452 173.532 144.794 173.205 146.136 172.978C149.527 172.449 153.016 172.6 156.359 173.431C158.018 173.835 159.652 174.414 161.238 175.171C163.19 176.103 165.044 177.262 166.752 178.699C167.63 179.405 168.46 180.211 169.24 181.043C179.438 191.956 179.121 209.271 168.582 219.781Z" fill="#FBC343"/>
<path opacity="0.4" d="M165.459 184.874C165.605 185.05 165.752 185.227 165.898 185.403C172.9 194.149 172.315 207.129 164.264 215.144C163.41 215.975 162.531 216.732 161.58 217.412C159.262 219.076 156.7 220.185 154.041 220.789C150.479 221.596 146.771 221.42 143.282 220.311C140.33 219.378 137.548 217.765 135.157 215.497C135.06 215.421 134.987 215.345 134.889 215.245C127.423 206.499 127.887 193.141 136.085 184.975C136.841 184.219 137.646 183.538 138.475 182.933C140.72 181.27 143.184 180.136 145.746 179.48C150.601 178.245 155.773 178.825 160.311 181.144C162.165 182.101 163.898 183.362 165.459 184.874Z" fill="#BB9132"/>
<path opacity="0.4" d="M166.044 185.655C166.264 185.882 166.483 186.134 166.679 186.386C158.505 178.346 145.575 178.296 137.402 186.437C129.229 194.578 128.789 207.91 136.255 216.656C136.036 216.429 135.792 216.202 135.572 215.976C127.448 207.255 127.667 193.393 136.084 185.025C144.501 176.658 157.896 176.935 166.044 185.655Z" fill="#BB9132"/>
<path opacity="0.3" d="M146.184 173.003L145.794 179.48V179.506C145.257 179.632 144.72 179.808 144.208 179.984C144.11 180.01 144.037 180.035 143.94 180.085C143.866 180.11 143.793 180.136 143.696 180.161C143.671 180.161 143.671 180.161 143.647 180.186C142.939 180.438 142.256 180.741 141.573 181.093C141.427 181.169 141.28 181.245 141.134 181.32C141.036 181.371 140.939 181.421 140.841 181.497C140.646 181.623 140.451 181.723 140.256 181.849C140.207 181.875 140.158 181.9 140.109 181.95C140.06 181.976 140.012 182.001 139.963 182.026C139.743 182.152 139.548 182.278 139.329 182.429C139.304 182.454 139.255 182.48 139.231 182.48C139.133 182.555 139.036 182.606 138.938 182.681C138.792 182.782 138.645 182.883 138.523 182.984L139.329 175.145C140.256 174.717 141.232 174.339 142.183 174.011C143.476 173.532 144.818 173.205 146.184 173.003Z" fill="white"/>
<path opacity="0.15" d="M143.306 220.336L142.94 226.385C139.963 225.503 137.109 224.091 134.522 222.125L135.206 215.547V215.522C135.376 215.698 135.547 215.85 135.742 216.001C137.987 218.017 140.573 219.479 143.306 220.336Z" fill="white"/>
<path opacity="0.15" d="M166.801 178.699L165.923 185.302L165.899 185.403C165.752 185.227 165.606 185.05 165.459 184.874C163.898 183.336 162.166 182.101 160.336 181.144V181.119L161.287 175.17C163.215 176.103 165.069 177.288 166.801 178.699Z" fill="white"/>
<path opacity="0.3" d="M161.579 217.412L160.53 225.276C158.115 226.335 155.602 226.99 153.016 227.267L154.04 220.79C156.7 220.21 159.261 219.076 161.579 217.412Z" fill="white"/>
<g opacity="0.4">
<path d="M159.727 206.373L162.02 208.843L158.751 211.993L156.555 209.649C154.286 211.641 151.651 213.128 149.602 213.581L147.675 208.137C149.895 207.583 152.31 206.272 153.945 204.634C155.384 203.197 155.604 202.391 155.116 201.836C153.286 199.896 146.455 209.725 141.063 203.928C138.721 201.433 138.526 197.577 141.575 193.569L138.916 190.721L141.941 187.722L144.552 190.52C146.284 189.108 148.211 187.974 150.114 187.47L152.115 192.763C149.919 193.469 148.163 194.477 146.87 195.762C145.381 197.224 145.333 198.157 145.82 198.686C147.553 200.551 154.408 190.747 159.727 196.443C161.996 198.887 162.484 202.466 159.727 206.373Z" fill="#BB9132"/>
</g>
<path d="M159.213 205.818L161.507 208.263L158.506 211.263L156.334 208.919C154.066 210.91 151.455 212.371 149.406 212.825L147.503 207.432C149.723 206.877 152.114 205.566 153.748 203.928C155.188 202.517 155.407 201.685 154.919 201.156C153.114 199.215 146.307 208.994 140.94 203.248C138.622 200.752 138.402 196.922 141.452 192.939L139.208 190.545L142.208 187.546L144.404 189.915C146.136 188.503 148.064 187.394 149.918 186.89L151.919 192.158C149.723 192.864 147.991 193.847 146.698 195.157C145.234 196.619 145.161 197.526 145.648 198.056C147.381 199.896 154.188 190.142 159.506 195.838C161.678 198.207 161.946 201.937 159.213 205.818Z" fill="#FBC343"/>
<mask id="mask0_121_3462" style="mask-type:luminance" maskUnits="userSpaceOnUse" x="139" y="186" width="23" height="27">
<path d="M159.213 205.818L161.507 208.263L158.506 211.263L156.334 208.919C154.066 210.91 151.455 212.371 149.406 212.825L147.503 207.432C149.723 206.877 152.114 205.566 153.748 203.928C155.188 202.517 155.407 201.685 154.919 201.156C153.114 199.215 146.307 208.994 140.94 203.248C138.622 200.752 138.402 196.922 141.452 192.939L139.208 190.545L142.208 187.546L144.404 189.915C146.136 188.503 148.064 187.394 149.918 186.89L151.919 192.158C149.723 192.864 147.991 193.847 146.698 195.157C145.234 196.619 145.161 197.526 145.648 198.056C147.381 199.896 154.188 190.142 159.506 195.838C161.678 198.207 161.946 201.937 159.213 205.818Z" fill="white"/>
</mask>
<g mask="url(#mask0_121_3462)">
<path opacity="0.3" d="M137.501 164.56L130.133 236.467L140.526 237.525L144.942 164.812L137.501 164.56Z" fill="white"/>
<path opacity="0.3" d="M150.699 242.768L163.923 159.393L170.29 161.107L158.946 245.364L150.699 242.768Z" fill="white"/>
</g>
<path d="M154.236 194.981L152.528 200.198C152.528 200.198 147.819 206.222 148.478 206.978C149.869 208.566 153.48 204.71 153.48 204.71L150.552 212.397C150.381 212.901 150.698 213.455 151.186 213.556C152.772 213.934 156.09 214.262 159.091 211.842C162.995 208.692 162.068 201.08 162.068 201.08L163.727 195.46L154.236 194.981Z" fill="#F9B384"/>
<path d="M169.9 177.389L168.314 183.916L168.29 184.042L168.046 185.076L165.313 196.317L161.8 196.443L160.873 196.468L151.846 196.77L151.992 196.039L152.138 195.334L152.602 193.065L152.748 192.36L153.773 187.168L153.895 186.487L155.286 179.531L155.627 177.767L155.652 177.741L157.116 170.558C158.482 170.76 159.824 171.062 161.117 171.491C164.41 172.499 169.339 173.406 169.9 177.389Z" fill="#FFCC15"/>
<path d="M60.9893 56.2335C58.5007 44.3877 47.1071 36.9274 35.6404 39.6746C24.7592 42.2958 17.6839 53.4359 19.7089 64.8028C20.6848 70.2217 23.4905 74.7584 27.3209 77.9088C30.3462 80.404 32.4931 83.857 33.2982 87.7636L57.72 82.2691C56.8905 78.3625 57.4272 74.3047 59.1838 70.7509C61.3064 66.4159 62.0627 61.3499 60.9893 56.2335Z" fill="#FBC343"/>
<path d="M34.8596 60.9718L34.0545 60.5937C33.2249 60.1905 32.249 60.8458 32.3222 61.7783C32.3466 61.9295 32.371 62.106 32.4442 62.2572L43.3499 86.8562L48.4245 85.722V58.6782C48.4245 58.6278 48.4245 58.5774 48.4245 58.5018C48.3025 57.418 46.9119 57.0652 46.2531 57.9221L45.9604 58.3002C43.2523 61.6775 38.69 62.7865 34.8596 60.9718Z" stroke="white" stroke-width="5" stroke-miterlimit="10"/>
<path d="M49.5694 104.235C51.781 103.736 53.3458 102.252 53.0644 100.919C52.783 99.5864 50.762 98.91 48.5504 99.4084C46.3388 99.9067 44.774 101.391 45.0554 102.724C45.3368 104.057 47.3578 104.733 49.5694 104.235Z" fill="#102048"/>
<path d="M33.2988 87.7635L57.6962 82.2439L59.9164 92.7539L35.519 98.324L33.2988 87.7635Z" fill="#1A1A1A"/>
<path d="M35.4697 98.072L59.8915 92.5775L58.2569 96.5597C57.4761 98.4752 55.8415 99.8614 53.8653 100.315L44.1308 102.533C42.1546 102.987 40.0808 102.407 38.5926 100.996C37.1043 99.6094 35.4697 98.072 35.4697 98.072Z" fill="#1A1A1A"/>
<path d="M60.1838 87.7635L33.3955 93.8124C33.0052 93.9133 32.5904 93.636 32.5172 93.2327C32.4196 92.8295 32.688 92.401 33.0783 92.3254L59.8667 86.3017C60.257 86.2009 60.6718 86.4781 60.745 86.8814C60.8425 87.2594 60.5742 87.6879 60.1838 87.7635Z" fill="#FFCC15"/>
<path d="M61.3547 93.3587L34.5664 99.4076C34.1761 99.5085 33.7613 99.2312 33.6881 98.828C33.5905 98.4247 33.8589 97.9962 34.2492 97.9206L61.0376 91.8969C61.4279 91.7961 61.8427 92.0733 61.9159 92.4766C62.0134 92.8546 61.7695 93.2579 61.3547 93.3587Z" fill="#FFCC15"/>
<path d="M13 28.5345L24.2716 35.4908" stroke="#FBC343" stroke-width="14.3432" stroke-miterlimit="10" stroke-linecap="round" stroke-linejoin="round"/>
<path d="M47.1806 15.5042L41.374 29.4923" stroke="#FBC343" stroke-width="14.3432" stroke-miterlimit="10" stroke-linecap="round" stroke-linejoin="round"/>
<path d="M27.1748 15L32.1275 29.9207" stroke="#FBC343" stroke-width="14.3432" stroke-miterlimit="10" stroke-linecap="round" stroke-linejoin="round"/>
<path d="M268.732 223.922H212.186V230.922H268.732V223.922Z" fill="#FBC343"/>
<path opacity="0.4" d="M250.152 223.922H226.94V230.922H250.152V223.922Z" fill="#BB9132"/>
<path opacity="0.4" d="M221.918 223.922H216.558V230.922H221.918V223.922Z" fill="white"/>
<path opacity="0.4" d="M263.112 223.922H257.751V230.922H263.112V223.922Z" fill="white"/>
<path d="M268.732 237.922H212.186V244.922H268.732V237.922Z" fill="#FBC343"/>
<path opacity="0.4" d="M250.152 237.922H226.94V244.922H250.152V237.922Z" fill="#BB9132"/>
<path opacity="0.4" d="M221.918 237.922H216.558V244.922H221.918V237.922Z" fill="white"/>
<path opacity="0.4" d="M263.112 237.922H257.751V244.922H263.112V237.922Z" fill="white"/>
<path d="M266.729 230.922H210.183V237.922H266.729V230.922Z" fill="#FBC343"/>
<path opacity="0.4" d="M248.149 230.922H224.938V237.922H248.149V230.922Z" fill="#BB9132"/>
<path opacity="0.4" d="M219.915 230.922H214.555V237.922H219.915V230.922Z" fill="white"/>
<path opacity="0.4" d="M261.109 230.922H255.748V237.922H261.109V230.922Z" fill="white"/>
<path d="M268.732 251.896H212.186V258.896H268.732V251.896Z" fill="#FBC343"/>
<path opacity="0.4" d="M250.152 251.896H226.94V258.896H250.152V251.896Z" fill="#BB9132"/>
<path opacity="0.4" d="M221.918 251.896H216.558V258.896H221.918V251.896Z" fill="white"/>
<path opacity="0.4" d="M263.112 251.896H257.751V258.896H263.112V251.896Z" fill="white"/>
<path d="M271.595 244.896H215.049V251.896H271.595V244.896Z" fill="#FBC343"/>
<path opacity="0.4" d="M253.016 244.896H229.804V251.896H253.016V244.896Z" fill="#BB9132"/>
<path opacity="0.4" d="M224.781 244.896H219.421V251.896H224.781V244.896Z" fill="white"/>
<path opacity="0.4" d="M265.975 244.896H260.614V251.896H265.975V244.896Z" fill="white"/>
<path d="M268.732 265.896H212.186V272.896H268.732V265.896Z" fill="#FBC343"/>
<path opacity="0.4" d="M250.152 265.896H226.94V272.896H250.152V265.896Z" fill="#BB9132"/>
<path opacity="0.4" d="M221.918 265.896H216.558V272.896H221.918V265.896Z" fill="white"/>
<path opacity="0.4" d="M263.112 265.896H257.751V272.896H263.112V265.896Z" fill="white"/>
<path d="M266.156 258.896H209.609V265.896H266.156V258.896Z" fill="#FBC343"/>
<path opacity="0.4" d="M247.576 258.896H224.364V265.896H247.576V258.896Z" fill="#BB9132"/>
<path opacity="0.4" d="M219.342 258.896H213.981V265.896H219.342V258.896Z" fill="white"/>
<path opacity="0.4" d="M260.535 258.896H255.175V265.896H260.535V258.896Z" fill="white"/>
<path d="M268.732 279.896H212.186V286.896H268.732V279.896Z" fill="#FBC343"/>
<path opacity="0.4" d="M250.152 279.896H226.94V286.896H250.152V279.896Z" fill="#BB9132"/>
<path opacity="0.4" d="M221.918 279.896H216.558V286.896H221.918V279.896Z" fill="white"/>
<path opacity="0.4" d="M263.112 279.896H257.751V286.896H263.112V279.896Z" fill="white"/>
<path d="M268.732 272.896H212.186V279.896H268.732V272.896Z" fill="#FBC343"/>
<path opacity="0.4" d="M250.152 272.896H226.94V279.896H250.152V272.896Z" fill="#BB9132"/>
<path opacity="0.4" d="M221.918 272.896H216.558V279.896H221.918V272.896Z" fill="white"/>
<path opacity="0.4" d="M263.112 272.896H257.751V279.896H263.112V272.896Z" fill="white"/>
<path d="M264.569 293.896H208.022V300.896H264.569V293.896Z" fill="#FBC343"/>
<path opacity="0.4" d="M245.989 293.896H222.777V300.896H245.989V293.896Z" fill="#BB9132"/>
<path opacity="0.4" d="M217.755 293.896H212.395V300.896H217.755V293.896Z" fill="white"/>
<path opacity="0.4" d="M258.948 293.896H253.588V300.896H258.948V293.896Z" fill="white"/>
<path d="M268.732 286.896H212.186V293.896H268.732V286.896Z" fill="#FBC343"/>
<path opacity="0.4" d="M250.152 286.896H226.94V293.896H250.152V286.896Z" fill="#BB9132"/>
<path opacity="0.4" d="M221.918 286.896H216.558V293.896H221.918V286.896Z" fill="white"/>
<path opacity="0.4" d="M263.112 286.896H257.751V293.896H263.112V286.896Z" fill="white"/>
<path d="M268.732 307.922H212.186V314.922H268.732V307.922Z" fill="#FBC343"/>
<path opacity="0.4" d="M250.152 307.922H226.94V314.922H250.152V307.922Z" fill="#BB9132"/>
<path opacity="0.4" d="M221.918 307.922H216.558V314.922H221.918V307.922Z" fill="white"/>
<path opacity="0.4" d="M263.112 307.922H257.751V314.922H263.112V307.922Z" fill="white"/>
<path d="M268.732 300.922H212.186V307.922H268.732V300.922Z" fill="#FBC343"/>
<path opacity="0.4" d="M250.152 300.922H226.94V307.922H250.152V300.922Z" fill="#BB9132"/>
<path opacity="0.4" d="M221.918 300.922H216.558V307.922H221.918V300.922Z" fill="white"/>
<path opacity="0.4" d="M263.112 300.922H257.751V307.922H263.112V300.922Z" fill="white"/>
<path d="M268.732 321.922H212.186V328.922H268.732V321.922Z" fill="#FBC343"/>
<path opacity="0.4" d="M250.152 321.922H226.94V328.922H250.152V321.922Z" fill="#BB9132"/>
<path opacity="0.4" d="M221.918 321.922H216.558V328.922H221.918V321.922Z" fill="white"/>
<path opacity="0.4" d="M263.112 321.922H257.751V328.922H263.112V321.922Z" fill="white"/>
<path d="M268.732 314.922H212.186V321.922H268.732V314.922Z" fill="#FBC343"/>
<path opacity="0.4" d="M250.152 314.922H226.94V321.922H250.152V314.922Z" fill="#BB9132"/>
<path opacity="0.4" d="M221.918 314.922H216.558V321.922H221.918V314.922Z" fill="white"/>
<path opacity="0.4" d="M263.112 314.922H257.751V321.922H263.112V314.922Z" fill="white"/>
<path d="M268.732 335.922H212.186V342.922H268.732V335.922Z" fill="#FBC343"/>
<path opacity="0.4" d="M250.152 335.922H226.94V342.922H250.152V335.922Z" fill="#BB9132"/>
<path opacity="0.4" d="M221.918 335.922H216.558V342.922H221.918V335.922Z" fill="white"/>
<path opacity="0.4" d="M263.112 335.922H257.751V342.922H263.112V335.922Z" fill="white"/>
<path d="M268.732 328.922H212.186V335.922H268.732V328.922Z" fill="#FBC343"/>
<path opacity="0.4" d="M250.152 328.922H226.94V335.922H250.152V328.922Z" fill="#BB9132"/>
<path opacity="0.4" d="M221.918 328.922H216.558V335.922H221.918V328.922Z" fill="white"/>
<path opacity="0.4" d="M263.112 328.922H257.751V335.922H263.112V328.922Z" fill="white"/>
<path d="M268.732 342.948H212.186V349.948H268.732V342.948Z" fill="#FBC343"/>
<path opacity="0.4" d="M250.152 342.948H226.94V349.948H250.152V342.948Z" fill="#BB9132"/>
<path opacity="0.4" d="M221.918 342.948H216.558V349.948H221.918V342.948Z" fill="white"/>
<path opacity="0.4" d="M263.112 342.948H257.751V349.948H263.112V342.948Z" fill="white"/>
<path d="M342.688 251.896H286.142V258.896H342.688V251.896Z" fill="#FBC343"/>
<path opacity="0.4" d="M324.108 251.896H300.896V258.896H324.108V251.896Z" fill="#BB9132"/>
<path opacity="0.4" d="M295.874 251.896H290.514V258.896H295.874V251.896Z" fill="white"/>
<path opacity="0.4" d="M337.068 251.896H331.707V258.896H337.068V251.896Z" fill="white"/>
<path d="M335.74 265.896H279.193V272.896H335.74V265.896Z" fill="#FBC343"/>
<path opacity="0.4" d="M317.16 265.896H293.948V272.896H317.16V265.896Z" fill="#BB9132"/>
<path opacity="0.4" d="M288.926 265.896H283.565V272.896H288.926V265.896Z" fill="white"/>
<path opacity="0.4" d="M330.119 265.896H324.759V272.896H330.119V265.896Z" fill="white"/>
<path d="M333.164 258.896H276.617V265.896H333.164V258.896Z" fill="#FBC343"/>
<path opacity="0.4" d="M314.584 258.896H291.372V265.896H314.584V258.896Z" fill="#BB9132"/>
<path opacity="0.4" d="M286.35 258.896H280.989V265.896H286.35V258.896Z" fill="white"/>
<path opacity="0.4" d="M327.543 258.896H322.183V265.896H327.543V258.896Z" fill="white"/>
<path d="M335.74 279.896H279.193V286.896H335.74V279.896Z" fill="#FBC343"/>
<path opacity="0.4" d="M317.16 279.896H293.948V286.896H317.16V279.896Z" fill="#BB9132"/>
<path opacity="0.4" d="M288.926 279.896H283.565V286.896H288.926V279.896Z" fill="white"/>
<path opacity="0.4" d="M330.119 279.896H324.759V286.896H330.119V279.896Z" fill="white"/>
<path d="M332.877 272.896H276.331V279.896H332.877V272.896Z" fill="#FBC343"/>
<path opacity="0.4" d="M314.298 272.896H291.086V279.896H314.298V272.896Z" fill="#BB9132"/>
<path opacity="0.4" d="M286.064 272.896H280.703V279.896H286.064V272.896Z" fill="white"/>
<path opacity="0.4" d="M327.257 272.896H321.896V279.896H327.257V272.896Z" fill="white"/>
<path d="M335.74 293.896H279.193V300.896H335.74V293.896Z" fill="#FBC343"/>
<path opacity="0.4" d="M317.16 293.896H293.948V300.896H317.16V293.896Z" fill="#BB9132"/>
<path opacity="0.4" d="M288.926 293.896H283.565V300.896H288.926V293.896Z" fill="white"/>
<path opacity="0.4" d="M330.119 293.896H324.759V300.896H330.119V293.896Z" fill="white"/>
<path d="M335.74 286.896H279.193V293.896H335.74V286.896Z" fill="#FBC343"/>
<path opacity="0.4" d="M317.16 286.896H293.948V293.896H317.16V286.896Z" fill="#BB9132"/>
<path opacity="0.4" d="M288.926 286.896H283.565V293.896H288.926V286.896Z" fill="white"/>
<path opacity="0.4" d="M330.119 286.896H324.759V293.896H330.119V286.896Z" fill="white"/>
<path d="M341.283 307.922H284.736V314.922H341.283V307.922Z" fill="#FBC343"/>
<path opacity="0.4" d="M322.703 307.922H299.491V314.922H322.703V307.922Z" fill="#BB9132"/>
<path opacity="0.4" d="M294.469 307.922H289.108V314.922H294.469V307.922Z" fill="white"/>
<path opacity="0.4" d="M335.662 307.922H330.302V314.922H335.662V307.922Z" fill="white"/>
<path d="M335.74 300.922H279.193V307.922H335.74V300.922Z" fill="#FBC343"/>
<path opacity="0.4" d="M317.16 300.922H293.948V307.922H317.16V300.922Z" fill="#BB9132"/>
<path opacity="0.4" d="M288.926 300.922H283.565V307.922H288.926V300.922Z" fill="white"/>
<path opacity="0.4" d="M330.119 300.922H324.759V307.922H330.119V300.922Z" fill="white"/>
<path d="M335.74 321.922H279.193V328.922H335.74V321.922Z" fill="#FBC343"/>
<path opacity="0.4" d="M317.16 321.922H293.948V328.922H317.16V321.922Z" fill="#BB9132"/>
<path opacity="0.4" d="M288.926 321.922H283.565V328.922H288.926V321.922Z" fill="white"/>
<path opacity="0.4" d="M330.119 321.922H324.759V328.922H330.119V321.922Z" fill="white"/>
<path d="M335.74 314.922H279.193V321.922H335.74V314.922Z" fill="#FBC343"/>
<path opacity="0.4" d="M317.16 314.922H293.948V321.922H317.16V314.922Z" fill="#BB9132"/>
<path opacity="0.4" d="M288.926 314.922H283.565V321.922H288.926V314.922Z" fill="white"/>
<path opacity="0.4" d="M330.119 314.922H324.759V321.922H330.119V314.922Z" fill="white"/>
<path d="M335.74 335.922H279.193V342.922H335.74V335.922Z" fill="#FBC343"/>
<path opacity="0.4" d="M317.16 335.922H293.948V342.922H317.16V335.922Z" fill="#BB9132"/>
<path opacity="0.4" d="M288.926 335.922H283.565V342.922H288.926V335.922Z" fill="white"/>
<path opacity="0.4" d="M330.119 335.922H324.759V342.922H330.119V335.922Z" fill="white"/>
<path d="M335.74 328.922H279.193V335.922H335.74V328.922Z" fill="#FBC343"/>
<path opacity="0.4" d="M317.16 328.922H293.948V335.922H317.16V328.922Z" fill="#BB9132"/>
<path opacity="0.4" d="M288.926 328.922H283.565V335.922H288.926V328.922Z" fill="white"/>
<path opacity="0.4" d="M330.119 328.922H324.759V335.922H330.119V328.922Z" fill="white"/>
<path d="M335.74 342.948H279.193V349.948H335.74V342.948Z" fill="#FBC343"/>
<path opacity="0.4" d="M317.16 342.948H293.948V349.948H317.16V342.948Z" fill="#BB9132"/>
<path opacity="0.4" d="M288.926 342.948H283.565V349.948H288.926V342.948Z" fill="white"/>
<path opacity="0.4" d="M330.119 342.948H324.759V349.948H330.119V342.948Z" fill="white"/>
<path d="M309.715 246.451L264.483 212.512L260.282 218.112L305.514 252.051L309.715 246.451Z" fill="#FBC343"/>
<path opacity="0.4" d="M294.85 235.271L276.283 221.339L272.082 226.939L290.649 240.871L294.85 235.271Z" fill="#BB9132"/>
<path opacity="0.4" d="M272.269 218.341L267.981 215.124L263.78 220.723L268.068 223.94L272.269 218.341Z" fill="white"/>
<path opacity="0.4" d="M305.22 243.059L300.932 239.841L296.73 245.441L301.018 248.658L305.22 243.059Z" fill="white"/>
<path d="M2.05664 349.505H383.179" stroke="#102048" stroke-width="3.75" stroke-miterlimit="10"/>
<path d="M288.094 27.1152H187.075C188.741 19.5688 196.209 13.8699 205.161 13.8699C207.841 13.8699 210.391 14.3903 212.681 15.3011C216.012 6.2974 223.689 0 232.666 0C241.462 0 249.034 6.0632 252.469 14.7807C256.008 13.2193 260.12 12.3346 264.492 12.3346C276.202 12.3346 285.96 18.684 288.094 27.1152Z" fill="#FFCC15" fill-opacity="0.2"/>
<path d="M292.361 122.851H371.365C370.064 116.944 364.235 112.494 357.235 112.494C355.153 112.494 353.149 112.885 351.354 113.613C348.752 106.587 342.714 101.643 335.714 101.643C328.819 101.643 322.912 106.379 320.231 113.197C317.473 111.974 314.246 111.271 310.837 111.271C301.651 111.297 294.027 116.268 292.361 122.851Z" fill="#FFCC15" fill-opacity="0.2"/>
</g>
<defs>
<clipPath id="clip0_121_3462">
<rect width="383.803" height="350" fill="white"/>
</clipPath>
</defs>
</svg>
