<svg width="908" height="493" viewBox="0 0 908 493" fill="none" xmlns="http://www.w3.org/2000/svg">
<path d="M714.989 484.612C706.09 475.241 701.286 467.051 697.506 460.514C692.466 451.852 688.844 445.631 678.528 440.512C674.984 438.779 665.534 434.054 654.115 435.866C638.05 438.386 623.481 453.033 620.253 469.964C618.835 477.209 619.622 484.769 622.379 492.014H722.706C720.265 489.888 717.666 487.368 714.989 484.612Z" fill="#FFF0F0"/>
<path d="M716.564 23.2159C717.981 35.5796 725.148 47.9434 735.858 55.0309C745.938 61.6459 758.853 63.2996 772.24 59.6771C785.391 56.0546 796.81 47.8646 801.299 38.8084C803.189 34.9496 803.189 32.0359 803.268 28.9646C803.268 27.4684 803.268 25.8934 803.504 24.2396C787.833 21.5621 771.374 20.1446 753.97 20.0659C741.213 19.8296 728.691 21.0109 716.564 23.2159Z" fill="#FFF0F0"/>
<path d="M122.001 314.04C33.8012 332.546 14.665 413.895 11.0425 459.964C27.895 454.058 43.5662 445.474 57.9775 434.134C105.936 396.413 118.772 344.753 122.001 314.04Z" fill="#FFF0F0"/>
<path d="M763.184 105.825C765.231 106.061 767.279 106.14 769.247 106.14C809.016 106.14 838.075 68.0246 852.407 49.2821C854.77 46.1321 857.054 42.9034 859.18 39.6746C843.509 33.4534 826.814 28.4921 808.937 25.1059C808.78 26.3659 808.78 27.6259 808.78 28.8859C808.78 32.2721 808.701 36.1309 806.26 41.1709C801.141 51.6446 788.305 60.9371 773.736 64.9534C768.617 66.3709 763.499 67.0796 758.537 67.0796C749.166 67.0796 740.346 64.5596 732.865 59.6771C720.737 51.7234 712.784 38.1784 711.13 24.3184C703.649 25.8934 696.325 27.8621 689.159 30.1459C689.789 32.9809 690.576 35.8946 691.442 38.8084C700.971 68.6546 727.51 102.36 763.184 105.825Z" fill="#FFF0F0"/>
<path d="M485.747 222.532C485.59 225.525 485.59 228.517 485.826 231.51C487.401 248.992 497.245 265.215 513.467 277.185C529.454 288.918 549.141 294.51 563.552 291.359C569.852 290.021 573.239 287.343 576.782 284.587C581.035 281.201 585.445 277.736 594.422 276.712C595.997 276.554 597.494 276.476 598.99 276.476C610.251 276.476 618.362 281.594 626.237 286.556C634.742 291.911 642.696 296.951 654.509 295.848C668.841 294.509 682.386 285.138 687.347 273.168C688.214 271.121 692.151 260.568 687.82 249.307C683.567 238.203 674.039 234.738 659.706 229.62C649.784 226.076 637.42 221.587 623.166 213.24C607.337 203.947 598.045 195.048 589.934 187.252C579.46 177.251 571.9 170.006 555.441 166.935C549.771 165.911 534.73 163.155 519.452 170.242C518.98 170.478 518.507 170.715 518.114 170.951C508.034 185.441 499.529 199.065 492.756 210.877C490.709 214.5 488.346 218.437 485.747 222.532Z" fill="#FFF0F0"/>
<path d="M848.864 438.622C886.034 432.479 921.156 463.349 952.184 490.597C952.735 491.069 953.286 491.62 953.916 492.093H1047.16C1053.06 472.09 1059.76 449.332 1082.52 433.975C1086.69 431.141 1091.26 428.699 1096.06 426.73L1094.09 410.35C1084.48 341.287 1063.93 274.507 1032.82 213.554C998.095 145.514 945.333 76.1355 864.378 41.8793C862.015 45.5805 859.416 49.203 856.739 52.7468C849.415 62.2755 837.287 78.2618 821.537 91.0193C804.449 104.801 786.809 111.809 769.169 111.809C766.964 111.809 764.837 111.731 762.632 111.494C724.439 107.793 696.167 72.1193 686.166 40.6193C685.221 37.7055 684.512 34.8705 683.883 32.1143C614.819 56.133 560.324 112.833 524.099 162.524C538.352 158.114 551.267 160.477 556.544 161.422C574.656 164.729 583.161 172.841 593.871 183.157C601.825 190.796 610.802 199.379 626.08 208.357C639.861 216.468 651.91 220.799 661.675 224.264C676.952 229.777 687.977 233.714 693.096 247.18C698.136 260.411 693.49 272.774 692.545 275.137C686.796 288.997 671.44 299.707 655.139 301.203C653.8 301.361 652.54 301.361 651.28 301.361C639.625 301.361 631.356 296.163 623.324 291.044C614.819 285.689 606.865 280.649 595.052 281.988C587.65 282.854 584.185 285.611 580.169 288.682C576.467 291.596 572.215 294.903 564.734 296.557C548.826 300.022 527.406 294.116 510.16 281.437C492.599 268.522 481.967 250.882 480.235 231.824C480.235 231.43 480.156 231.037 480.156 230.564C445.27 280.885 371.639 348.296 221.778 316.874C184.056 308.999 153.108 308.29 127.593 312.779C124.521 344.279 111.606 398.696 61.2851 438.307C45.7713 450.513 28.8401 459.648 10.5701 465.79C9.70381 481.54 10.5701 491.936 10.5701 491.936H616.472C613.952 484.297 613.322 476.422 614.819 468.783C618.599 449.332 634.742 433.188 653.249 430.274C666.4 428.227 676.953 433.503 680.89 435.472C692.624 441.299 697.034 448.859 702.152 457.601C706.011 464.216 710.421 471.697 718.847 480.674C723.179 485.242 727.352 488.864 731.211 491.936H786.1C804.606 460.436 825.632 442.48 848.864 438.622Z" fill="#FFF0F0"/>
<path d="M849.809 444.056C828.861 447.521 809.725 463.665 792.636 492.094H945.569C916.195 466.342 883.199 438.544 849.809 444.056Z" fill="#FFF0F0"/>
<path d="M821.616 123.78C840.516 79.3648 882.411 93.3823 884.695 107.557C887.373 124.016 874.064 225.446 874.064 225.446C874.064 225.446 803.11 225.84 814.45 150.319C814.686 148.507 815.001 146.775 815.316 145.121C807.52 173.235 804.764 195.442 818.309 210.09C818.388 210.011 790.274 188.591 821.616 123.78Z" fill="#0B1E5B"/>
<path d="M543.786 95.7453C543.786 75.9791 527.721 59.9141 507.955 59.9141C492.126 59.9141 478.739 70.1516 474.014 84.3266L419.44 246.394C417.708 251.592 416.763 257.104 416.763 262.853C416.763 291.282 439.836 314.355 468.265 314.355C494.174 314.355 515.673 295.14 519.216 270.255L543.471 100.943C543.629 99.2103 543.786 97.4778 543.786 95.7453Z" fill="#BBD3F9"/>
<path d="M468.186 211.271C466.139 211.271 464.17 211.429 462.201 211.665L391.641 218.359L397.39 314.276H468.265C496.694 314.276 519.767 291.203 519.767 262.774C519.767 234.345 496.615 211.271 468.186 211.271Z" fill="#BBD3F9"/>
<path d="M440.23 323.49L418.495 207.255L304.15 215.76C269.5 218.359 242.174 247.26 242.174 282.619C242.174 319.631 272.178 349.635 309.19 349.635C326.121 349.635 341.556 343.335 353.369 333.019L440.23 323.49Z" fill="#0B1E5B"/>
<path d="M707.507 162.446C705.224 161.974 702.782 161.737 700.341 161.737C680.496 161.737 664.431 177.802 664.431 197.647C664.431 215.051 676.795 229.62 693.254 232.849L764.286 249.465L779.249 171.975L707.507 162.446Z" fill="#FF9494"/>
<path d="M814.214 172.448L752.474 164.966C747.749 164.415 744.284 169.219 746.41 173.471L747.749 176.149C749.481 179.692 748.615 183.945 745.544 186.386L741.764 189.536C738.929 191.899 737.905 195.915 739.322 199.301L741.685 205.05C743.339 209.066 741.764 213.634 737.905 215.76C733.18 218.359 732.077 224.58 735.542 228.675L735.779 228.99C738.614 232.376 738.377 237.416 735.227 240.566C732.471 243.244 733.731 247.969 737.511 248.835L783.501 259.781C790.746 264.191 799.172 266.79 808.307 266.79C834.531 266.79 855.715 245.528 855.715 219.383C855.715 195.285 837.681 175.361 814.214 172.448Z" fill="#7DACEF"/>
<path d="M897.374 173.235L966.28 211.428C966.28 211.428 869.969 219.303 799.488 183.315L879.025 171.975L897.374 173.235Z" fill="#FF9494"/>
<path d="M884.301 181.975C884.301 181.975 877.45 184.417 871.938 179.534" stroke="#0B1E5B" stroke-width="2.5" stroke-miterlimit="10" stroke-linecap="round" stroke-linejoin="round"/>
<path d="M900.051 283.957L912.021 304.432" stroke="#0B1E5B" stroke-width="1.5" stroke-miterlimit="10" stroke-linecap="round" stroke-linejoin="round"/>
<path d="M859.495 271.987L846.816 311.126L854.77 333.255" stroke="#0B1E5B" stroke-width="1.5" stroke-miterlimit="10" stroke-linecap="round" stroke-linejoin="round"/>
<path d="M376.285 282.619C376.285 245.606 346.281 215.603 309.269 215.603C308.481 215.603 307.694 215.603 306.828 215.681L306.749 215.603C161.376 215.603 118.143 491.228 118.143 491.228H362.976L366.126 341.603C366.52 333.649 366.363 326.01 365.733 318.765C372.348 308.291 376.285 295.849 376.285 282.619Z" fill="#0B1E5B"/>
<path d="M376.285 282.619C376.285 245.606 346.281 215.603 309.269 215.603C308.481 215.603 307.694 215.603 306.827 215.681L306.749 215.603C294.306 215.603 256.034 215.603 247.214 215.603C216.501 215.603 191.695 240.488 191.695 271.121C191.695 276.398 192.404 281.438 193.821 286.241C137.515 367.905 118.221 491.228 118.221 491.228H363.055L366.205 341.603C366.599 333.649 366.441 326.01 365.811 318.765C372.347 308.291 376.285 295.849 376.285 282.619Z" fill="#0B1E5B"/>
<path d="M363.764 287.658L365.89 345.382" stroke="#BBD3F9" stroke-width="2.5" stroke-miterlimit="10" stroke-linecap="round" stroke-linejoin="round"/>
<path d="M947.774 359.872L953.365 201.979C882.254 217.02 846.501 189.851 840.437 184.575C840.201 184.339 839.965 184.102 839.65 183.866C839.492 183.709 839.414 183.709 839.414 183.709C831.066 176.464 820.199 172.054 808.307 172.054C782.084 172.054 760.9 193.316 760.9 219.461C760.9 236.786 770.192 251.985 784.052 260.254L778.146 286.871L801.377 408.855H948.561L947.852 364.282L947.774 359.872Z" fill="#7DACEF"/>
<path d="M794.369 219.619L784.131 259.782" stroke="#0B1E5B" stroke-width="2.5" stroke-miterlimit="10" stroke-linecap="round" stroke-linejoin="round"/>
<path d="M853.195 261.514L840.123 297.424L851.778 333.334" stroke="#0B1E5B" stroke-width="2.5" stroke-miterlimit="10" stroke-linecap="round" stroke-linejoin="round"/>
<path d="M927.299 218.674C927.299 218.674 882.333 227.73 844.375 208.83" stroke="#0B1E5B" stroke-width="2.5" stroke-miterlimit="10" stroke-linecap="round" stroke-linejoin="round"/>
<path d="M989.669 399.563L868.315 307.662C863.196 303.567 856.739 301.204 849.73 301.204C833.193 301.204 819.805 314.592 819.805 331.129C819.805 338.768 822.64 345.698 827.286 350.974C827.838 351.525 828.31 352.155 828.94 352.628L883.041 408.855H998.961C996.52 405.39 993.37 402.24 989.669 399.563Z" fill="#FF9494"/>
<path d="M812.56 256.473L770.744 335.932V353.808L784.919 342.39L827.68 264.663C830.279 259.938 827.995 254.032 822.876 252.378C818.86 250.961 814.529 252.772 812.56 256.473Z" fill="#0B1E5B"/>
<path d="M876.19 317.268C868.315 302.463 854.928 291.438 838.941 286.398L817.285 280.649L790.274 302.621L785.155 309.944C782.871 316.402 787.203 327.663 790.983 333.412L831.381 354.674C836.421 358.612 842.8 360.974 849.651 360.974C866.189 360.974 879.576 347.587 879.576 331.049C879.576 326.088 878.395 321.363 876.19 317.268Z" fill="#FF9494"/>
<path d="M793.109 327.427L810.828 331.049" stroke="#0B1E5B" stroke-width="2.5" stroke-miterlimit="10" stroke-linecap="round" stroke-linejoin="round"/>
<path d="M791.927 315.063L815.71 312.779" stroke="#0B1E5B" stroke-width="2.5" stroke-miterlimit="10" stroke-linecap="round" stroke-linejoin="round"/>
<path d="M790.274 309.945L781.532 315.457L776.256 325.537L774.445 323.175C770.035 317.584 769.641 309.866 773.343 303.802L774.603 301.755C783.029 288.21 809.489 276.397 820.12 281.595L821.774 283.957L824.688 299.392L790.274 309.945Z" fill="#FF9494"/>
<path d="M787.833 307.583L811.221 295.928L825.318 297.581" stroke="#0B1E5B" stroke-width="2.5" stroke-miterlimit="10" stroke-linecap="round" stroke-linejoin="round"/>
<path d="M778.619 316.638L784.525 313.488" stroke="#0B1E5B" stroke-width="2.5" stroke-miterlimit="10" stroke-linecap="round" stroke-linejoin="round"/>
<path d="M896.429 151.579C895.169 126.379 885.404 114.172 870.52 107.4C855.636 100.627 848.706 128.347 848.864 145.672C849.021 162.997 865.323 161.107 865.323 161.107L864.22 178.275C863.984 187.882 871.702 195.757 881.309 195.757C891.232 195.757 899.028 187.41 898.319 177.487C897.61 166.147 897.138 164.572 896.429 151.579Z" fill="#FF9494"/>
<path d="M868.236 131.733C868.236 131.733 866.661 129.056 863.59 129.056" stroke="#0B1E5B" stroke-width="2" stroke-miterlimit="10" stroke-linecap="round" stroke-linejoin="round"/>
<path d="M864.378 141.341C864.378 141.341 863.669 147.168 860.125 143.31" stroke="#0B1E5B" stroke-width="2" stroke-miterlimit="10" stroke-linecap="round" stroke-linejoin="round"/>
<path d="M858.865 127.875L852.093 136.774L855.322 139.058" stroke="#0B1E5B" stroke-width="2" stroke-miterlimit="10" stroke-linecap="round" stroke-linejoin="round"/>
<path d="M855.006 126.614C855.006 126.614 856.345 125.748 858.865 127.874" stroke="#0B1E5B" stroke-width="2" stroke-miterlimit="10" stroke-linecap="round" stroke-linejoin="round"/>
<path d="M873.67 154.57C873.67 154.57 868.866 161.343 864.929 161.185V168.745C864.929 168.745 871.622 165.753 873.67 154.57Z" fill="#0B1E5B"/>
<path d="M868.158 103.935C874.221 97.8708 880.915 98.107 880.915 98.107C925.251 92.5945 913.754 189.929 948.798 164.021C950.136 162.997 951.475 162.131 952.814 161.264C982.66 133.466 1012.35 165.596 1012.35 165.596C994.709 149.61 980.613 152.445 973.525 155.516C991.008 157.563 1004.16 200.639 1004.16 200.639C955.649 199.773 943.836 220.091 943.836 220.091C896.508 267.813 878.238 135.828 878.238 135.828C869.733 133.702 868.473 120.551 868.473 120.551L864.929 125.67L844.926 121.417C848.785 102.832 868.158 103.935 868.158 103.935Z" fill="#0B1E5B"/>
<path d="M884.695 149.137C889.74 149.137 893.83 145.047 893.83 140.002C893.83 134.957 889.74 130.867 884.695 130.867C879.65 130.867 875.56 134.957 875.56 140.002C875.56 145.047 879.65 149.137 884.695 149.137Z" fill="#FF9494"/>
<path d="M889.893 138.664C889.893 138.664 886.9 132.6 881.388 136.537" stroke="#0B1E5B" stroke-width="2" stroke-miterlimit="10" stroke-linecap="round" stroke-linejoin="round"/>
<path d="M884.774 141.184C884.774 141.184 886.664 137.876 883.356 135.514" stroke="#0B1E5B" stroke-width="2" stroke-miterlimit="10" stroke-linecap="round" stroke-linejoin="round"/>
<path d="M725.699 172.29L627.655 74.3253C621.119 67.8678 612.141 63.8516 602.298 63.8516C582.453 63.8516 566.388 79.9166 566.388 99.7616C566.388 109.684 570.404 118.662 576.94 125.198L674.984 223.163C681.52 229.62 690.498 233.637 700.341 233.637C720.186 233.637 736.251 217.572 736.251 197.727C736.251 187.725 732.235 178.748 725.699 172.29Z" fill="#FF9494"/>
<path d="M635.057 85.0355L609.07 17.5467C608.597 16.3655 607.101 15.893 606.077 16.6017C599.856 20.3817 599.069 26.4455 600.88 33.9267L601.195 45.0305L577.019 4.39549C574.735 0.536737 569.853 -0.959513 566.309 1.24549C563.316 3.05674 562.292 6.91549 563.789 10.3017L580.405 51.9605L557.489 15.7355C555.205 12.113 550.48 10.853 547.094 12.9005C544.022 14.7905 543.077 18.728 544.81 22.193L562.056 58.3392L542.369 26.0517C539.927 22.0355 534.73 20.5392 530.95 22.823C527.485 24.9492 526.461 29.438 528.587 33.218L548.196 68.5767L537.644 58.3392C535.281 55.268 531.029 54.323 527.957 56.213C524.65 58.2605 523.941 62.7492 526.304 66.1355L537.171 79.4442C545.913 90.7055 556.465 102.833 574.892 122.914C581.507 130.71 591.351 135.672 602.297 135.672C622.142 135.672 638.207 119.607 638.207 99.7617C638.207 94.4855 637.105 89.5242 635.057 85.0355Z" fill="#FF9494"/>
<path d="M601.116 45.0301L580.877 11.0889" stroke="#0B1E5B" stroke-width="2.5" stroke-miterlimit="10" stroke-linecap="round" stroke-linejoin="round"/>
<path d="M601.116 53.8506L596.549 92.2806" stroke="#0B1E5B" stroke-width="2.5" stroke-miterlimit="10" stroke-linecap="round" stroke-linejoin="round"/>
<path d="M566.23 66.293L598.045 79.6805" stroke="#0B1E5B" stroke-width="2.5" stroke-miterlimit="10" stroke-linecap="round" stroke-linejoin="round"/>
<path d="M590.17 75.3484C588.201 72.0409 580.72 63.3785 562.214 76.3722C561.033 77.1597 559.536 76.1359 559.93 74.7184L569.931 37.0759C569.931 36.9972 570.01 36.9184 570.01 36.8397L578.358 19.7509C579.775 16.7584 579.381 13.3722 577.255 11.1672C573.948 7.7022 567.963 8.4897 564.97 12.821L553.236 29.5947C553.158 29.6734 553.158 29.7522 553.079 29.831C552.291 31.5635 549.693 30.5397 550.244 28.7285L550.401 28.0985C550.401 28.0197 550.48 27.941 550.48 27.8622L558.119 14.081C561.426 9.67095 558.276 3.9222 553 4.7097L545.598 5.8122C530.478 8.09595 509.845 21.8772 502.6 35.7372L477.558 76.2934C474.014 81.8847 471.888 88.4997 471.888 95.5872C471.888 115.353 487.953 131.418 507.719 131.418C518.744 131.418 528.588 126.457 535.124 118.661L569.144 95.0359C569.223 95.0359 569.223 94.9572 569.301 94.9572L589.698 77.1597C590.485 76.766 590.564 75.9784 590.17 75.3484Z" fill="#BBD3F9"/>
<path d="M538.983 61.3313L553.237 29.7525L565.128 12.8213" stroke="#0B1E5B" stroke-width="2.5" stroke-miterlimit="10" stroke-linecap="round" stroke-linejoin="round"/>
<path d="M522.288 57.3931L531.108 30.7756L545.834 5.89062" stroke="#0B1E5B" stroke-width="2.5" stroke-miterlimit="10" stroke-linecap="round" stroke-linejoin="round"/>
<path d="M505.829 51.802L514.019 31.1695L523.469 15.1045" stroke="#0B1E5B" stroke-width="2.5" stroke-miterlimit="10" stroke-linecap="round" stroke-linejoin="round"/>
<path d="M549.062 85.4287L565.128 74.4824" stroke="#0B1E5B" stroke-width="2.5" stroke-miterlimit="10" stroke-linecap="round" stroke-linejoin="round"/>
<path d="M179.961 357.903L144.839 330.734L107.354 323.096L57.5836 406.807C53.0948 413.579 50.4961 421.691 50.4961 430.432C50.4961 454.214 69.7899 473.508 93.5724 473.508C112.945 473.508 129.246 460.751 134.68 443.189L179.961 357.903Z" fill="#BBD3F9"/>
<path d="M247.135 215.523C239.024 215.523 231.306 217.256 224.297 220.406C187.6 235.762 138.932 275.846 101.054 324.12L190.435 362.628L218.234 318.528C226.66 323.647 236.504 326.561 247.056 326.561C277.769 326.561 302.575 301.676 302.575 271.042C302.575 240.408 277.847 215.523 247.135 215.523Z" fill="#0B1E5B"/>
<path d="M179.961 357.903L190.513 362.707L213.745 325.931" stroke="#BBD3F9" stroke-width="2.5" stroke-miterlimit="10" stroke-linecap="round" stroke-linejoin="round"/>
<path d="M316.199 399.247C316.199 378.615 299.425 361.841 278.792 361.841C277.06 361.841 275.327 361.998 273.674 362.235L87.5874 387.828C66.6399 390.742 50.4961 408.697 50.4961 430.432C50.4961 454.215 69.7899 473.508 93.5724 473.508C96.4861 473.508 99.3211 473.193 102.077 472.642L286.195 435.866C303.284 432.48 316.199 417.36 316.199 399.247Z" fill="#BBD3F9"/>
<path d="M177.835 375.386L133.577 381.528" stroke="#0B1E5B" stroke-width="2.5" stroke-miterlimit="10" stroke-linecap="round" stroke-linejoin="round"/>
<path d="M338.485 391.608L336.28 369.086C335.335 359.242 325.885 352.391 316.199 354.596L291.629 360.266C296.511 345.618 294.149 338.531 291.235 335.145C289.424 333.018 285.959 333.412 284.699 336.011L271.39 362.628C254.301 366.093 241.386 381.135 241.386 399.247C241.386 419.88 258.16 436.653 278.792 436.653C282.179 436.653 285.486 436.181 288.557 435.315L308.717 431.613C327.46 427.912 340.296 410.587 338.485 391.608Z" fill="#BBD3F9"/>
<path d="M338.564 397.436L318.246 412.319" stroke="#0B1E5B" stroke-width="2.5" stroke-miterlimit="10" stroke-linecap="round" stroke-linejoin="round"/>
<path d="M337.461 381.528L313.6 393.341" stroke="#0B1E5B" stroke-width="2.5" stroke-miterlimit="10" stroke-linecap="round" stroke-linejoin="round"/>
<path d="M335.335 365.069L310.922 375.622" stroke="#0B1E5B" stroke-width="2.5" stroke-miterlimit="10" stroke-linecap="round" stroke-linejoin="round"/>
<path d="M272.256 137.482C261.074 131.97 256.979 146.145 256.979 146.145C260.759 131.576 269.342 134.332 272.886 136.222C270.208 133.466 264.696 125.67 278.084 118.11C278.084 118.11 265.011 126.064 274.304 135.592C272.492 133.151 270.366 128.347 276.351 123.229C284.856 115.984 294.621 124.174 297.22 123.78C299.74 123.386 299.819 111.337 310.607 114.094C321.396 116.929 320.294 115.354 324.782 110.392C325.019 110.156 325.334 109.92 325.57 109.684C328.72 106.691 335.413 102.911 343.21 114.409C343.21 114.409 336.988 105.746 329.822 108.66C334.232 109.526 339.115 115.59 340.296 128.19C341.95 146.145 329.507 161.659 329.507 161.659L264.775 163.155C264.775 163.155 260.129 158.036 258.79 149.531C257.372 140.869 266.901 138.27 272.256 137.482Z" fill="#F77777"/>
<path d="M273.831 177.251C267.767 177.093 262.57 172.368 262.176 165.99C261.861 160.477 265.484 155.358 270.76 153.862C273.516 153.075 276.194 153.311 278.556 154.256C281.864 150.318 286.51 147.641 291.629 146.853L311.71 143.546C311.71 143.546 313.127 146.145 315.017 150.082C315.647 149.846 316.356 149.688 317.065 149.61C323.601 148.665 329.665 153.232 330.531 159.768C331.319 165.36 328.09 170.636 322.971 172.526C323.995 177.881 323.995 182.842 322.184 186.543C315.726 199.537 301.945 193.158 301.945 193.158L302.732 223.713C302.732 223.713 272.65 241.905 260.522 224.737L273.831 177.251Z" fill="#BBD3F9"/>
<path d="M303.362 157.8L309.347 168.352L305.646 168.825" stroke="#0B1E5B" stroke-width="2" stroke-miterlimit="10" stroke-linecap="round" stroke-linejoin="round"/>
<path d="M276.115 163.47C276.115 163.47 274.225 160.713 268.318 161.501" stroke="#0B1E5B" stroke-width="2" stroke-miterlimit="10" stroke-linecap="round" stroke-linejoin="round"/>
<path d="M272.335 168.51C272.335 168.51 269.5 164.415 274.461 162.21" stroke="#0B1E5B" stroke-width="2" stroke-miterlimit="10" stroke-linecap="round" stroke-linejoin="round"/>
<path d="M319.349 160.241C319.349 160.241 319.349 156.933 324.704 154.256" stroke="#0B1E5B" stroke-width="2" stroke-miterlimit="10" stroke-linecap="round" stroke-linejoin="round"/>
<path d="M325.412 162.21C325.412 162.21 325.412 157.17 320.057 158.194" stroke="#0B1E5B" stroke-width="2" stroke-miterlimit="10" stroke-linecap="round" stroke-linejoin="round"/>
<path d="M302.102 193.08C302.102 193.08 295.33 190.166 290.841 185.126C290.841 185.126 294.306 200.797 302.26 200.718L302.102 193.08Z" fill="#0B1E5B"/>
<path d="M307.378 153.705C307.378 153.705 310.45 152.681 313.678 153.469" stroke="#0B1E5B" stroke-width="2" stroke-miterlimit="10" stroke-linecap="round" stroke-linejoin="round"/>
<path d="M311.395 159.532C312.265 159.532 312.97 158.827 312.97 157.957C312.97 157.087 312.265 156.382 311.395 156.382C310.525 156.382 309.82 157.087 309.82 157.957C309.82 158.827 310.525 159.532 311.395 159.532Z" fill="#0B1E5B"/>
<path d="M293.361 158.588C293.361 158.588 295.723 156.304 298.952 155.674" stroke="#0B1E5B" stroke-width="2" stroke-miterlimit="10" stroke-linecap="round" stroke-linejoin="round"/>
<path d="M297.22 162.998C298.089 162.998 298.795 162.293 298.795 161.423C298.795 160.553 298.089 159.848 297.22 159.848C296.35 159.848 295.645 160.553 295.645 161.423C295.645 162.293 296.35 162.998 297.22 162.998Z" fill="#0B1E5B"/>
<path d="M306.749 177.881C306.749 177.881 301.079 181.74 296.826 174.889" stroke="#0B1E5B" stroke-width="2" stroke-miterlimit="10" stroke-linecap="round" stroke-linejoin="round"/>
<path d="M652.855 408.855H759.483C761.845 408.855 763.735 406.965 763.735 404.603C763.735 402.24 761.845 400.35 759.483 400.35H727.195L712.784 367.984C711.839 365.779 709.634 364.361 707.193 364.361H639.389C636.79 364.361 635.058 366.96 636.081 369.401L652.855 408.855Z" fill="#0B1E5B"/>
<path d="M681.914 391.373C684.35 391.373 686.324 389.398 686.324 386.963C686.324 384.527 684.35 382.553 681.914 382.553C679.478 382.553 677.504 384.527 677.504 386.963C677.504 389.398 679.478 391.373 681.914 391.373Z" fill="white"/>
<path d="M552.449 457.287H397.469C392.98 457.287 390.932 453.585 392.901 449.097L437.474 349.005C439.442 344.517 444.797 340.815 449.286 340.815H604.266C608.755 340.815 610.802 344.517 608.834 349.005L564.261 449.097C562.292 453.664 556.937 457.287 552.449 457.287Z" fill="#0B1E5B"/>
<path d="M531.659 486.582H480.944L467.871 457.287H518.665L531.659 486.582Z" fill="#0B1E5B"/>
<path d="M549.928 491.464H467.005C463.933 491.464 460.311 488.944 458.893 485.872C457.476 482.801 458.893 480.281 462.043 480.281H544.888C547.96 480.281 551.582 482.801 553 485.872C554.417 488.944 553 491.464 549.928 491.464Z" fill="#0B1E5B"/>
<path d="M505.907 410.903C510.648 410.903 514.491 407.06 514.491 402.319C514.491 397.578 510.648 393.735 505.907 393.735C501.167 393.735 497.324 397.578 497.324 402.319C497.324 407.06 501.167 410.903 505.907 410.903Z" fill="white"/>
<path d="M485.668 479.573H526.067" stroke="#BBD3F9" stroke-width="2.5" stroke-miterlimit="10" stroke-linecap="round" stroke-linejoin="round"/>
<path d="M474.014 457.287H514.412" stroke="#BBD3F9" stroke-width="2.5" stroke-miterlimit="10" stroke-linecap="round" stroke-linejoin="round"/>
<path d="M572.924 491.464H1.75" stroke="#0B1E5B" stroke-width="2.5" stroke-miterlimit="10" stroke-linecap="round" stroke-linejoin="round"/>
<path d="M1076.06 408.855H601.746" stroke="#0B1E5B" stroke-width="2.5" stroke-miterlimit="10" stroke-linecap="round" stroke-linejoin="round"/>
</svg>
