<svg width="45" height="45" viewBox="0 0 45 45" fill="none" xmlns="http://www.w3.org/2000/svg">
<circle cx="22.5" cy="22.5" r="21.5" fill="#F6F6F6" stroke="#1A1A1A" stroke-width="2"/>
<g clip-path="url(#clip0_121_53)">
<path d="M11.4999 24.0002H33.4999C34.3284 24.0002 35 23.3286 35 22.4998C35 21.6712 34.3286 20.9996 33.4999 20.9996H11.4999C10.6716 20.9998 10 21.6714 10 22.5C10 23.3286 10.6716 24.0002 11.4999 24.0002Z" fill="#FFCC15"/>
<path d="M20.9995 11.4999L20.9995 33.4999C20.9995 34.3284 21.6711 35 22.4998 35C23.3284 35 24 34.3286 24 33.4999L24 11.4999C23.9998 10.6716 23.3282 10 22.4996 10C21.6711 10 20.9995 10.6716 20.9995 11.4999Z" fill="#FFCC15"/>
</g>
<defs>
<clipPath id="clip0_121_53">
<rect width="45" height="45" fill="white" transform="translate(10 10)"/>
</clipPath>
</defs>
</svg>
