<svg xmlns="http://www.w3.org/2000/svg" width="50" height="50" viewBox="0 0 50 50" fill="none">
<path fill-rule="evenodd" clip-rule="evenodd" d="M25 0C29.6563 0.0531344 33.8629 1.19752 37.6196 3.43315C41.3316 5.62415 44.4193 8.73081 46.5877 12.456C48.8097 16.2354 49.9472 20.4674 50.0001 25.1521C49.8682 31.5618 47.8465 37.0364 43.9351 41.5758C40.0236 46.1151 35.014 48.9234 29.8282 50V32.0291H34.731L35.8398 24.9669H28.4157V20.3414C28.3745 19.3825 28.6778 18.4404 29.2706 17.6857C29.8644 16.9288 30.9099 16.531 32.4072 16.4923H36.8903V10.306C36.826 10.2853 36.2156 10.2035 35.0592 10.0605C33.7477 9.90702 32.4288 9.82506 31.1084 9.81495C28.1199 9.82874 25.7564 10.6717 24.0179 12.3439C22.2793 14.0157 21.3912 16.4343 21.3536 19.5999V24.9669H15.7039V32.0291H21.3536V50C14.986 48.9234 9.97644 46.1151 6.06501 41.5758C2.15358 37.0364 0.131982 31.5618 0 25.1521C0.0528048 20.4672 1.19027 16.2352 3.4124 12.456C5.58076 8.73081 8.66856 5.62416 12.3805 3.43315C16.1371 1.19795 20.3436 0.0535649 25 0Z" fill="#0866FF"/>
</svg>