<svg xmlns="http://www.w3.org/2000/svg" width="12" height="22" viewBox="0 0 12 22" fill="none">
<path d="M6.00905 9.10561e-05C5.74866 0.00420993 5.50017 0.109873 5.31655 0.294542L0.324666 5.28649C0.225249 5.37743 0.14526 5.48754 0.0895107 5.6102C0.0337618 5.73287 0.00340606 5.86556 0.000270524 6.00027C-0.00286502 6.13497 0.0212845 6.26889 0.0712655 6.39402C0.121246 6.51915 0.196026 6.63286 0.291103 6.72833C0.386181 6.8238 0.499591 6.89901 0.624509 6.94951C0.749427 7.00001 0.88327 7.02478 1.01798 7.0222C1.1527 7.01962 1.2855 6.98978 1.40839 6.93454C1.53129 6.8793 1.64173 6.79972 1.73309 6.70068L5.01419 3.41956L5.0222 20.9604C5.02799 21.2215 5.13576 21.4699 5.32243 21.6525C5.50911 21.835 5.75985 21.9373 6.02096 21.9373C6.28208 21.9373 6.53282 21.835 6.71949 21.6525C6.90616 21.4699 7.01393 21.2215 7.01973 20.9604L7.01172 3.40009L10.3065 6.70068C10.4954 6.88172 10.7477 6.98158 11.0094 6.97889C11.271 6.97619 11.5212 6.87117 11.7063 6.68628C11.8915 6.50139 11.9969 6.25131 11.9999 5.98967C12.003 5.72803 11.9035 5.47566 11.7227 5.28649L6.73082 0.294542C6.63639 0.199587 6.52384 0.124631 6.39985 0.0740493C6.27585 0.0234674 6.14295 -0.00171874 6.00905 9.10561e-05Z" fill="#1FDB00"/>
</svg>