<svg xmlns="http://www.w3.org/2000/svg" width="50" height="50" viewBox="0 0 50 50" fill="none">
  <g clip-path="url(#clip0_953_266)">
    <path d="M3.12537 3.40208C-0.803792 7.48333 0.000374436 11.8187 0.000374436 24.9896C0.000374436 35.9271 -1.90796 46.8917 8.07954 49.4729C11.1983 50.275 38.8316 50.275 41.9462 49.4687C46.1045 48.3958 49.4879 45.0229 49.9504 39.1417C50.015 38.3208 50.015 11.6729 49.9483 10.8354C49.4566 4.57083 45.6004 0.960412 40.5191 0.229162C39.3545 0.0604116 39.1212 0.0104116 33.1462 -5.07385e-06C11.9525 0.0104116 7.30662 -0.933339 3.12537 3.40208Z" fill="url(#paint0_linear_953_266)"/>
    <path d="M24.9961 6.53955C17.4315 6.53955 10.2482 5.86663 7.50443 12.9083C6.3711 15.8166 6.53568 19.5937 6.53568 25.002C6.53568 29.7479 6.3836 34.2083 7.50443 37.0937C10.2419 44.1395 17.4836 43.4645 24.9919 43.4645C32.2357 43.4645 39.7044 44.2187 42.4815 37.0937C43.6169 34.1562 43.4503 30.4354 43.4503 25.002C43.4503 17.7895 43.8482 13.1333 40.3503 9.63746C36.8086 6.0958 32.019 6.53955 24.9878 6.53955H24.9961ZM23.3419 9.86663C39.1211 9.84163 41.1294 8.08746 40.0211 32.4562C39.6273 41.075 33.0648 40.1291 24.9982 40.1291C10.2898 40.1291 9.86693 39.7083 9.86693 24.9937C9.86693 10.1083 11.0336 9.87496 23.3419 9.86246V9.86663ZM34.8503 12.9312C33.6273 12.9312 32.6357 13.9229 32.6357 15.1458C32.6357 16.3687 33.6273 17.3604 34.8503 17.3604C36.0732 17.3604 37.0648 16.3687 37.0648 15.1458C37.0648 13.9229 36.0732 12.9312 34.8503 12.9312ZM24.9961 15.5208C19.7607 15.5208 15.5169 19.7666 15.5169 25.002C15.5169 30.2375 19.7607 34.4812 24.9961 34.4812C30.2315 34.4812 34.4732 30.2375 34.4732 25.002C34.4732 19.7666 30.2315 15.5208 24.9961 15.5208ZM24.9961 18.8479C33.1315 18.8479 33.1419 31.1562 24.9961 31.1562C16.8628 31.1562 16.8503 18.8479 24.9961 18.8479Z" fill="white"/>
  </g>
  <defs>
    <linearGradient id="paint0_linear_953_266" x1="3.22125" y1="46.8064" x2="49.691" y2="6.58744" gradientUnits="userSpaceOnUse">
      <stop stop-color="#FFDD55"/>
      <stop offset="0.5" stop-color="#FF543E"/>
      <stop offset="1" stop-color="#C837AB"/>
    </linearGradient>
    <clipPath id="clip0_953_266">
      <rect width="50" height="50" fill="white"/>
    </clipPath>
  </defs>
</svg>