<svg width="24" height="24" viewBox="0 0 24 24" fill="none" xmlns="http://www.w3.org/2000/svg">
<path d="M15.9999 6.99956C15.9999 6.44727 16.4477 5.99956 16.9999 5.99956C17.5522 5.99956 17.9999 6.44727 17.9999 6.99956C17.9999 7.55184 17.5522 7.99956 16.9999 7.99956C16.4477 7.99956 15.9999 7.55184 15.9999 6.99956Z" fill="#1A1A1A"/>
<path fill-rule="evenodd" clip-rule="evenodd" d="M11.9999 7.24956C9.37659 7.24956 7.24994 9.3762 7.24994 11.9996C7.24994 14.6229 9.37659 16.7496 11.9999 16.7496C14.6233 16.7496 16.7499 14.6229 16.7499 11.9996C16.7499 9.3762 14.6233 7.24956 11.9999 7.24956ZM8.74994 11.9996C8.74994 10.2046 10.205 8.74956 11.9999 8.74956C13.7949 8.74956 15.2499 10.2046 15.2499 11.9996C15.2499 13.7945 13.7949 15.2496 11.9999 15.2496C10.205 15.2496 8.74994 13.7945 8.74994 11.9996Z" fill="#1A1A1A"/>
<path fill-rule="evenodd" clip-rule="evenodd" d="M17.2582 2.83257C13.7916 2.44513 10.2083 2.44513 6.74171 2.83257C4.72965 3.05745 3.10532 4.64246 2.86876 6.66499C2.45423 10.2093 2.45423 13.7898 2.86876 17.3341C3.10532 19.3567 4.72965 20.9417 6.74171 21.1665C10.2083 21.554 13.7916 21.554 17.2582 21.1665C19.2702 20.9417 20.8946 19.3567 21.1311 17.3341C21.5457 13.7898 21.5457 10.2093 21.1311 6.66499C20.8946 4.64246 19.2703 3.05745 17.2582 2.83257ZM6.90832 4.32329C10.2642 3.94823 13.7357 3.94823 17.0916 4.32329C18.4217 4.47195 19.4872 5.52156 19.6413 6.83924C20.0423 10.2678 20.0423 13.7313 19.6413 17.1599C19.4872 18.4775 18.4217 19.5272 17.0916 19.6758C13.7357 20.0509 10.2642 20.0509 6.90832 19.6758C5.57821 19.5272 4.51272 18.4775 4.35861 17.1599C3.95761 13.7313 3.95761 10.2678 4.35861 6.83924C4.51272 5.52156 5.57821 4.47195 6.90832 4.32329Z" fill="#1A1A1A"/>
</svg>
