<svg width="171" height="30" viewBox="0 0 171 30" fill="none" xmlns="http://www.w3.org/2000/svg">
<path d="M10.84 14.52C11.88 15 12.6667 15.7067 13.2 16.64C13.76 17.5733 14.04 18.7067 14.04 20.04V22.32C14.04 24.3467 13.44 25.9733 12.24 27.2C11.04 28.4 9.42667 29 7.4 29H0.32V0.999998H7.04C9.06667 0.999998 10.68 1.61333 11.88 2.84C13.08 4.04 13.68 5.65333 13.68 7.68V9.16C13.68 11.6667 12.7333 13.4533 10.84 14.52ZM4.56 5V12.6H6.44C7.45333 12.6 8.2 12.36 8.68 11.88C9.18667 11.3733 9.44 10.6133 9.44 9.6V7.6C9.44 6.77333 9.21333 6.13333 8.76 5.68C8.30667 5.22667 7.66667 5 6.84 5H4.56ZM9.8 19.6C9.8 18.5867 9.54667 17.84 9.04 17.36C8.56 16.8533 7.81333 16.6 6.8 16.6H4.56V25H7.2C8.02667 25 8.66667 24.7733 9.12 24.32C9.57333 23.8667 9.8 23.2267 9.8 22.4V19.6ZM24.3381 29.4C22.3115 29.4 20.6715 28.7867 19.4181 27.56C18.1648 26.3067 17.5381 24.6667 17.5381 22.64V7.36C17.5381 5.33333 18.1648 3.70666 19.4181 2.48C20.6715 1.22667 22.3115 0.599998 24.3381 0.599998C26.3648 0.599998 28.0048 1.22667 29.2581 2.48C30.5115 3.70666 31.1381 5.33333 31.1381 7.36V22.64C31.1381 24.6667 30.5115 26.3067 29.2581 27.56C28.0048 28.7867 26.3648 29.4 24.3381 29.4ZM24.3381 25.4C25.1381 25.4 25.7648 25.16 26.2181 24.68C26.6715 24.2 26.8981 23.52 26.8981 22.64V7.36C26.8981 6.48 26.6715 5.8 26.2181 5.32C25.7648 4.84 25.1381 4.6 24.3381 4.6C23.5381 4.6 22.9115 4.84 22.4581 5.32C22.0048 5.8 21.7781 6.48 21.7781 7.36V22.64C21.7781 23.52 22.0048 24.2 22.4581 24.68C22.9115 25.16 23.5381 25.4 24.3381 25.4ZM54.7172 0.999998V29H50.4772V9.8L46.5172 29H43.5572L39.5972 9.8V29H35.4372V0.999998H41.4372L45.1172 18.88L48.6372 0.999998H54.7172ZM69.8634 14.52C70.9034 15 71.6901 15.7067 72.2234 16.64C72.7834 17.5733 73.0634 18.7067 73.0634 20.04V22.32C73.0634 24.3467 72.4634 25.9733 71.2634 27.2C70.0634 28.4 68.4501 29 66.4234 29H59.3434V0.999998H66.0634C68.0901 0.999998 69.7034 1.61333 70.9034 2.84C72.1034 4.04 72.7034 5.65333 72.7034 7.68V9.16C72.7034 11.6667 71.7568 13.4533 69.8634 14.52ZM63.5834 5V12.6H65.4634C66.4768 12.6 67.2234 12.36 67.7034 11.88C68.2101 11.3733 68.4634 10.6133 68.4634 9.6V7.6C68.4634 6.77333 68.2368 6.13333 67.7834 5.68C67.3301 5.22667 66.6901 5 65.8634 5H63.5834ZM68.8234 19.6C68.8234 18.5867 68.5701 17.84 68.0634 17.36C67.5834 16.8533 66.8368 16.6 65.8234 16.6H63.5834V25H66.2234C67.0501 25 67.6901 24.7733 68.1434 24.32C68.5968 23.8667 68.8234 23.2267 68.8234 22.4V19.6ZM85.1644 22.8H80.6044L79.6844 29H75.4444L80.0844 0.999998H85.7644L90.4044 29H86.0844L85.1644 22.8ZM84.6044 18.72L82.8844 7L81.1644 18.72H84.6044ZM106.041 0.999998L100.361 17.28V29H96.1206V17.28L90.4406 0.999998H94.9606L98.2406 11.68L101.601 0.999998H106.041Z" fill="#FFCC15"/>
<path d="M119.668 14.52C120.708 15 121.495 15.7067 122.028 16.64C122.588 17.5733 122.868 18.7067 122.868 20.04V22.32C122.868 24.3467 122.268 25.9733 121.068 27.2C119.868 28.4 118.255 29 116.228 29H109.148V0.999998H115.868C117.895 0.999998 119.508 1.61333 120.708 2.84C121.908 4.04 122.508 5.65333 122.508 7.68V9.16C122.508 11.6667 121.561 13.4533 119.668 14.52ZM113.388 5V12.6H115.268C116.281 12.6 117.028 12.36 117.508 11.88C118.015 11.3733 118.268 10.6133 118.268 9.6V7.6C118.268 6.77333 118.041 6.13333 117.588 5.68C117.135 5.22667 116.495 5 115.668 5H113.388ZM118.628 19.6C118.628 18.5867 118.375 17.84 117.868 17.36C117.388 16.8533 116.641 16.6 115.628 16.6H113.388V25H116.028C116.855 25 117.495 24.7733 117.948 24.32C118.401 23.8667 118.628 23.2267 118.628 22.4V19.6ZM126.726 0.999998H138.766V5H130.966V12.8H137.166V16.8H130.966V25H138.766V29H126.726V0.999998ZM142.312 0.999998H154.352V5H146.552V12.8H152.752V16.8H146.552V25H154.352V29H142.312V0.999998ZM163.778 29.4C162.445 29.4 161.258 29.1067 160.218 28.52C159.178 27.9333 158.365 27.12 157.778 26.08C157.218 25.04 156.938 23.8533 156.938 22.52V21.52L161.018 21.08V22.12C161.018 23.1333 161.258 23.9333 161.738 24.52C162.218 25.1067 162.885 25.4 163.738 25.4C164.565 25.4 165.218 25.16 165.698 24.68C166.205 24.2 166.458 23.5467 166.458 22.72C166.458 21.8133 166.191 20.9467 165.658 20.12C165.151 19.2933 164.125 18.1467 162.578 16.68C160.498 14.7067 159.071 13.0667 158.298 11.76C157.551 10.4533 157.178 9.02667 157.178 7.48C157.178 5.37333 157.751 3.70666 158.898 2.48C160.045 1.22667 161.618 0.599998 163.618 0.599998C165.618 0.599998 167.191 1.22667 168.338 2.48C169.485 3.73333 170.058 5.41333 170.058 7.52V8.24L165.978 8.68V7.88C165.978 6.81333 165.778 6 165.378 5.44C164.978 4.88 164.405 4.6 163.658 4.6C162.911 4.6 162.338 4.82667 161.938 5.28C161.538 5.73333 161.338 6.4 161.338 7.28C161.338 8.16 161.605 9.01333 162.138 9.84C162.671 10.64 163.698 11.8 165.218 13.32C167.298 15.4 168.711 17.08 169.458 18.36C170.231 19.6133 170.618 21 170.618 22.52C170.618 23.8533 170.325 25.04 169.738 26.08C169.178 27.12 168.378 27.9333 167.338 28.52C166.298 29.1067 165.111 29.4 163.778 29.4Z" fill="#1A1A1A"/>
</svg>
