<?xml version="1.0" encoding="utf-8"?>
<!-- Generator: Adobe Illustrator 27.8.1, SVG Export Plug-In . SVG Version: 6.00 Build 0)  -->
<svg version="1.1" id="Layer_1" xmlns="http://www.w3.org/2000/svg" xmlns:xlink="http://www.w3.org/1999/xlink" x="0px" y="0px"
	 viewBox="0 0 296.7 58.5" style="enable-background:new 0 0 296.7 58.5;" xml:space="preserve">
<style type="text/css">
	.st0{fill:#FFCE17;}
	.st1{fill:#010101;}
</style>
<g>
	<path class="st0" d="M281.4,50.8c-4.7,0-8.7-1.7-12-5.2l3.9-4.8c1.2,1.4,2.5,2.4,4,3.1c1.5,0.7,2.9,1,4.3,1c1.5,0,2.7-0.3,3.5-1
		c0.8-0.6,1.2-1.5,1.2-2.5c0-1.1-0.4-2-1.3-2.6c-0.8-0.6-2.3-1.3-4.5-2c-1.5-0.5-2.7-1-3.7-1.5c-1-0.5-2-1.1-3.1-1.9
		c-1.1-0.8-1.8-1.8-2.4-2.9c-0.5-1.1-0.8-2.5-0.8-4c0-2.6,1-4.9,3.1-6.6c2-1.8,4.6-2.7,7.5-2.8c4,0,7.7,1.4,11.1,4.2l-3.8,4.9
		c-2.6-2.2-5-3.3-7.2-3.3c-1.2,0-2.1,0.3-2.9,0.9c-0.7,0.6-1.1,1.4-1.1,2.4c0,1,0.4,1.7,1.2,2.3c0.8,0.6,2.3,1.3,4.4,2.1
		c3.4,1.3,5.6,2.4,6.7,3.1c2.4,1.6,3.5,4,3.5,7c0,3.3-1.2,5.8-3.5,7.6C287.1,49.9,284.4,50.8,281.4,50.8z"/>
	<g>
		<rect x="254.7" y="31.1" class="st0" width="7" height="5.8"/>
		<polygon class="st0" points="265.6,44.6 265.6,50.4 243.5,50.4 243.5,17.4 264.6,17.4 264.6,23.2 249.9,23.2 249.9,31.1 250,31.1 
			250,36.9 249.9,36.9 249.9,44.6 		"/>
	</g>
	<path class="st0" d="M21.4,32c2.1,0.5,3.8,1.5,5,3c1.2,1.5,1.7,3.3,1.7,5.4c0,2.7-0.9,4.9-2.8,6.6c-1.8,1.7-4.5,2.5-8,2.5H3.7v-33
		h11.9c3.5,0,6.2,0.7,8,2c1.8,1.4,2.8,3.4,2.8,6c0,1.6-0.4,3.1-1.2,4.4C24.3,30.4,23.1,31.3,21.4,32L21.4,32z M10.1,22.3v7.8h4.7
		c1.4,0,2.6-0.3,3.5-1c1-0.7,1.4-1.6,1.4-2.9c0-2.6-1.8-3.9-5.4-3.9H10.1z M15.4,43.8c1.8,0,3.2-0.4,4.3-1.1
		c1.1-0.7,1.6-1.8,1.6-3.1c0-1.3-0.5-2.4-1.5-3.1c-1-0.8-2.4-1.1-4.3-1.1h-5.3v8.5H15.4z"/>
	<path class="st0" d="M48.5,49.9c-5,0-9-1.6-12.1-4.8c-3.1-3.2-4.7-7.2-4.7-12.1c0-4.9,1.6-9,4.7-12.2s7.2-4.8,12.1-4.8
		c4.9,0,8.9,1.6,12.1,4.7c3.1,3.1,4.7,7.2,4.7,12.2c0,5-1.6,9.1-4.7,12.2C57.4,48.4,53.4,49.9,48.5,49.9z M48.6,43.9
		c2.9,0,5.2-1,7.1-3.1c1.9-2,2.8-4.6,2.8-7.7c0-3.1-0.9-5.7-2.8-7.7c-1.9-2-4.3-3.1-7.1-3.1c-2.9,0-5.4,1-7.3,3.1
		c-1.9,2.1-2.8,4.6-2.8,7.7c0,3,0.9,5.6,2.8,7.7C43.2,42.8,45.6,43.9,48.6,43.9z"/>
	<path class="st0" d="M129.6,32c2.1,0.5,3.8,1.5,5,3c1.2,1.5,1.7,3.3,1.7,5.4c0,2.7-0.9,4.9-2.8,6.6c-1.8,1.7-4.5,2.5-8,2.5h-13.7
		v-33h11.9c3.5,0,6.2,0.7,8,2c1.8,1.4,2.8,3.4,2.8,6c0,1.6-0.4,3.1-1.2,4.4C132.6,30.4,131.3,31.3,129.6,32L129.6,32z M118.3,22.3
		v7.8h4.7c1.4,0,2.6-0.3,3.5-1c1-0.7,1.4-1.6,1.4-2.9c0-2.6-1.8-3.9-5.4-3.9H118.3z M123.6,43.8c1.8,0,3.2-0.4,4.3-1.1
		c1.1-0.7,1.6-1.8,1.6-3.1c0-1.3-0.5-2.4-1.5-3.1c-1-0.8-2.4-1.1-4.3-1.1h-5.3v8.5H123.6z"/>
	<g>
		<polygon class="st0" points="104.7,17.3 93.3,37.5 93.4,37.5 90.1,43.3 85.9,43.3 77.8,29 77.7,29 77.7,49.6 71.2,49.6 71.2,16.6 
			77.8,16.6 87.9,35.3 88,35.3 98.1,16.6 104.7,16.6 		"/>
		<polygon class="st0" points="104.7,27.1 104.7,49.6 98.2,49.6 98.2,38.6 		"/>
	</g>
	<g>
		<polygon class="st0" points="160.4,43 160.4,43 160.7,43.7 		"/>
		<polygon class="st0" points="158.5,37.4 158.5,37.4 157.9,35.5 		"/>
		<polygon class="st0" points="149.6,37.4 149.6,37.4 150.1,35.8 		"/>
		<polygon class="st0" points="169.5,49.6 162.6,49.6 160.7,43.7 160.4,43 158.5,37.4 158.5,37.4 157.9,35.5 154.1,24.4 154,24.4 
			150.1,35.8 150.1,35.8 149.6,37.4 147.7,43 147.5,43.5 145.5,49.6 138.7,49.6 150.9,16.6 157.2,16.6 		"/>
		<polygon class="st0" points="160.7,43.7 160.7,43.7 160.7,43.7 		"/>
		<polygon class="st0" points="150.1,35.8 150.1,35.8 150.1,35.8 		"/>
	</g>
	<g>
		<path class="st0" d="M215.6,32.9c-0.7-0.4-1.5-0.7-2.4-0.9v0c0.9-0.4,1.7-0.8,2.4-1.4V32.9z"/>
		<rect x="226.8" y="31.1" class="st0" width="7" height="5.8"/>
		<path class="st0" d="M225,18.3c-0.6-0.4-1.3-0.6-2-0.9h13.7v5.9H227c0.1-0.1,0.1-0.1,0.2-0.2c0.4-0.5,0.6-1,0.6-1.6
			c0-0.6-0.2-1.1-0.7-1.6C226.5,19.2,225.8,18.7,225,18.3z"/>
		<path d="M226.9,21.5c0,0.3-0.1,0.7-0.4,1c-0.2,0.3-0.4,0.5-0.7,0.7H222v1.3c-0.6-0.1-1.2-0.3-1.8-0.7c-1.2-0.8-2.1-1.7-2.8-2.9
			c0,0,0,0,0,0c-0.1-0.2-0.2-0.3-0.3-0.5c-0.2-0.3-0.3-0.6-0.4-0.9c-0.3-0.6-0.4-1.1-0.4-1.4c0-0.2,0-0.3,0.1-0.4
			c0.1-0.1,0.2-0.2,0.5-0.3c0.1,0,0.1,0,0.2,0h2.5c1.6,0.2,3.4,0.7,5,1.6c0.7,0.4,1.3,0.9,1.8,1.4C226.8,20.8,226.9,21.1,226.9,21.5
			z"/>
		<path class="st0" d="M237.7,44.6v5.8h-22.1v-2.3c0.6-0.3,1.1-0.7,1.5-1.1c1.8-1.7,2.8-3.9,2.8-6.6c0-2.2-0.6-4-1.7-5.4
			c-0.7-0.8-1.5-1.5-2.6-2.1v-2.4c0.5-0.5,1-1,1.4-1.6c0.8-1.3,1.2-2.8,1.2-4.4c0-0.5,0-1-0.1-1.4c0.5,0.5,1.1,1,1.7,1.4
			c0.7,0.5,1.5,0.7,2.3,0.8v5.8h0v5.8h0v7.7H237.7z"/>
		<path class="st0" d="M190.3,25.4L190.3,25.4l-2.8,4.8c-1.2-1.8-2.3-3.6-3.5-5.4c-0.1-0.1-0.2-0.3-0.3-0.4l1.5-2.7
			c0,0.5,0.2,0.9,0.6,1.3C186.9,24.5,188.5,25.4,190.3,25.4z"/>
		<path class="st0" d="M187.9,18.3c-0.5,0.3-0.9,0.6-1.3,0.9l1.4-2.6h5.2C191.5,16.8,189.7,17.3,187.9,18.3z"/>
		<path class="st0" d="M184.7,34.9c0,0.1,0,0.2,0,0.3c0,4.8-0.1,9.6-0.1,14.4H178V35.1l-10.9-18.5h7.5l6.7,12L184.7,34.9z"/>
		<path class="st1" d="M206.3,56c0.1,0,0.3,0,0.4,0c0.3-1,0.6-2,0.9-3.2h-2.2C205.7,54,206,55,206.3,56z"/>
		<path class="st0" d="M213.2,39.6c0,1.4-0.5,2.4-1.6,3.1c-1.1,0.7-2.5,1.1-4.3,1.1h-5.3v-8.5h5.3c1.9,0,3.4,0.4,4.3,1.1
			C212.7,37.3,213.2,38.3,213.2,39.6z"/>
		<path class="st1" d="M211.6,49.5c-1.5,1.7-3.3,2.7-5.2,2.7c-1.8,0-3.6-0.9-5-2.5h7.9C210.1,49.6,210.9,49.6,211.6,49.5z"/>
		<path class="st0" d="M211.7,26.2c0,1.3-0.5,2.2-1.4,2.9c-1,0.7-2.1,1-3.5,1h-4.7v-7.8h4.3C209.9,22.4,211.7,23.6,211.7,26.2z"/>
		<path class="st1" d="M213.2,4.5c-0.2,0-4.1,0.9-4.1,3.9l0,0.2c2.3,1,3.9,3.3,3.9,6c0,0.9-0.2,1.8-0.5,2.6c-0.2,0-0.3-0.1-0.5-0.1
			c-0.3-0.1-0.5-0.1-0.8-0.2c-1.1-0.2-2.3-0.3-3.6-0.3h-7.5c-0.2-0.6-0.3-1.3-0.3-2c0-2.6,1.5-4.8,3.6-5.9c0-0.1-0.1-0.2-0.1-0.3
			c0-3.1-4-3.9-4.1-3.9c-0.5-0.1-0.8-0.6-0.7-1.2c0.1-0.5,0.6-0.8,1.1-0.7c1.9,0.4,5.4,2,5.6,5.5c0.4-0.1,0.7-0.1,1.1-0.1
			c0.3,0,0.6,0,0.8,0c0.2-3.5,3.7-5.1,5.6-5.4c0.5-0.1,1,0.3,1.1,0.8C214,3.8,213.7,4.3,213.2,4.5z"/>
		<path d="M196.6,18.1c0,0.3-0.1,0.8-0.4,1.4c-0.8,1.8-1.9,3.3-3.6,4.4c-0.6,0.4-1.2,0.6-1.8,0.7c0,0,0,0,0,0c0,0,0,0-0.1,0
			c-0.2,0-0.4,0-0.5,0c-1.5,0-2.9-0.8-3.9-2.1c-0.3-0.4-0.4-0.7-0.4-1c0-0.4,0.1-0.7,0.5-1.1c0.5-0.6,1.2-1.1,1.8-1.4
			c1.9-1,4-1.6,5.8-1.7c0.1,0,0.1,0,0.2,0h0.3c0.2,0,0.4,0,0.5,0c0.5,0,0.9,0.1,1.1,0.2c0.1,0.1,0.2,0.1,0.3,0.2
			C196.6,17.8,196.6,17.9,196.6,18.1z"/>
		<path d="M226.9,21.5c0,0.3-0.1,0.7-0.4,1c-0.2,0.3-0.4,0.5-0.7,0.7c-0.9,0.8-2,1.3-3.2,1.3c-0.2,0-0.4,0-0.6,0
			c-0.6-0.1-1.2-0.3-1.8-0.7c-1.2-0.8-2.1-1.7-2.8-2.9c0,0,0,0,0,0c-0.1-0.2-0.2-0.3-0.3-0.5c-0.2-0.3-0.3-0.6-0.4-0.9
			c-0.3-0.6-0.4-1.1-0.4-1.4c0-0.2,0-0.3,0.1-0.4c0.1-0.1,0.2-0.2,0.5-0.3c0.1,0,0.1,0,0.2,0c0.3-0.1,0.7-0.1,1.2-0.1h0.3
			c0,0,0,0,0,0c0.3,0,0.7,0,1,0.1c1.6,0.2,3.4,0.7,5,1.6c0.7,0.4,1.3,0.9,1.8,1.4C226.8,20.8,226.9,21.1,226.9,21.5z"/>
	</g>
</g>
</svg>
