<svg width="68" height="68" viewBox="0 0 68 68" fill="none" xmlns="http://www.w3.org/2000/svg">
<g id="paper-plane 1" clip-path="url(#clip0_121_19)">
<path id="Vector" d="M24.792 49.9006V63.0416C24.792 63.9596 25.3813 64.7728 26.254 65.0618C26.4722 65.1326 26.696 65.1666 26.917 65.1666C27.58 65.1666 28.2203 64.855 28.6283 64.2996L36.3152 53.839L24.792 49.9006Z" fill="#FFCC15"/>
<path id="Vector_2" d="M67.1076 0.394084C66.456 -0.0677489 65.6003 -0.130082 64.892 0.241084L1.14196 33.5328C0.388293 33.9266 -0.0565407 34.7313 0.00579269 35.5784C0.0709594 36.4284 0.634793 37.1538 1.43663 37.4286L19.1591 43.4863L56.902 11.2146L27.696 46.4018L57.3978 56.5536C57.6188 56.6273 57.8511 56.6669 58.0835 56.6669C58.4688 56.6669 58.8513 56.5621 59.1885 56.3581C59.7268 56.0294 60.0923 55.4769 60.1858 54.8564L67.9775 2.43975C68.0936 1.64642 67.7593 0.858751 67.1076 0.394084Z" fill="#FFCC15"/>
</g>
<defs>
<clipPath id="clip0_121_19">
<rect width="68" height="68" fill="white"/>
</clipPath>
</defs>
</svg>
