<svg width="64" height="64" viewBox="0 0 64 64" fill="none" xmlns="http://www.w3.org/2000/svg">
<path d="M21.5734 31.0136H9.06673C9.28006 18.5602 11.7334 16.5069 19.3867 11.9735C20.2667 11.4402 20.56 10.3202 20.0267 9.41356C19.4934 8.53356 18.3733 8.24026 17.4666 8.77359C8.4533 14.1069 5.30664 17.3602 5.30664 32.8802V47.2536C5.30664 51.8136 9.01338 55.4936 13.5467 55.4936H21.5467C26.24 55.4936 29.7866 51.9469 29.7866 47.2536V39.2536C29.8133 34.5602 26.2667 31.0136 21.5734 31.0136Z" fill="url(#paint0_linear_148_111)"/>
<path opacity="0.4" d="M50.4268 31.0136H37.9201C38.1334 18.5602 40.5869 16.5069 48.2402 11.9735C49.1202 11.4402 49.4135 10.3202 48.8802 9.41356C48.3469 8.53356 47.2268 8.24026 46.3201 8.77359C37.3068 14.1069 34.1602 17.3602 34.1602 32.8802V47.2536C34.1602 51.8136 37.8669 55.4936 42.4002 55.4936H50.4002C55.0936 55.4936 58.6401 51.9469 58.6401 47.2536V39.2536C58.6668 34.5602 55.1201 31.0136 50.4268 31.0136Z" fill="url(#paint1_linear_148_111)"/>
<defs>
<linearGradient id="paint0_linear_148_111" x1="3.83647" y1="57.1968" x2="35.6675" y2="49.0358" gradientUnits="userSpaceOnUse">
<stop stop-color="#02ED5E"/>
<stop offset="1" stop-color="#0B76E0"/>
</linearGradient>
<linearGradient id="paint1_linear_148_111" x1="32.69" y1="57.1968" x2="64.521" y2="49.0358" gradientUnits="userSpaceOnUse">
<stop stop-color="#02ED5E"/>
<stop offset="1" stop-color="#0B76E0"/>
</linearGradient>
</defs>
</svg>
