<svg width="500" height="365" viewBox="0 0 500 365" fill="none" xmlns="http://www.w3.org/2000/svg">
<g clip-path="url(#clip0_339_1555)">
<path d="M444.71 274.609H263.96C260.73 274.609 258.1 271.983 258.1 268.757V5.85166C258.1 2.62626 260.73 0 263.96 0H444.71C447.94 0 450.57 2.62626 450.57 5.85166V268.747C450.57 271.973 447.94 274.599 444.71 274.599V274.609ZM263.96 0.249644C260.87 0.249644 258.35 2.76606 258.35 5.85166V268.747C258.35 271.833 260.87 274.349 263.96 274.349H444.71C447.8 274.349 450.32 271.833 450.32 268.747V5.85166C450.32 2.76606 447.8 0.249644 444.71 0.249644H263.96Z" fill="#F0F0F0"/>
<path d="M236.28 274.609H55.5299C52.2999 274.609 49.6699 271.983 49.6699 268.757V5.85166C49.6699 2.62626 52.2999 0 55.5299 0H236.28C239.51 0 242.14 2.62626 242.14 5.85166V268.747C242.14 271.973 239.51 274.599 236.28 274.599V274.609ZM55.5299 0.249644C52.4399 0.249644 49.9199 2.76606 49.9199 5.85166V268.747C49.9199 271.833 52.4399 274.349 55.5299 274.349H236.28C239.37 274.349 241.89 271.833 241.89 268.747V5.85166C241.89 2.76606 239.37 0.249644 236.28 0.249644H55.5299Z" fill="#F0F0F0"/>
<path d="M500 335.592H0V335.842H500V335.592Z" fill="#F0F0F0"/>
<path d="M348.64 91.969L344.16 127.508L313.05 96.4426L348.64 91.969Z" fill="#F5F5F5"/>
<path d="M277.05 172.285L339.99 109.434L330.8 100.257L277.05 153.931V172.285Z" fill="#F5F5F5"/>
<path d="M110.48 223.601C116.93 235.984 112.11 251.252 99.71 257.703C98.0201 258.582 96.27 259.251 94.49 259.72C92.26 260.309 89.99 260.589 87.75 260.559C85.75 260.539 83.76 260.279 81.83 259.79C81.24 259.64 80.66 259.47 80.08 259.281C77.55 258.442 75.14 257.214 72.97 255.616C72.55 255.306 72.1301 254.977 71.7301 254.637C69.2601 252.56 67.14 249.984 65.56 246.948C65.42 246.669 65.28 246.389 65.14 246.109C59.32 233.887 64.2001 219.158 76.3301 212.857C79.3101 211.309 82.4601 210.41 85.6201 210.111C86.2301 210.051 86.84 210.021 87.45 210.001C90.11 209.941 92.75 210.3 95.27 211.059C95.83 211.229 96.37 211.409 96.92 211.609C98.85 212.327 100.7 213.286 102.41 214.464C104.17 215.683 105.8 217.131 107.23 218.788C108.28 220.007 109.22 221.335 110.04 222.783C110.2 223.052 110.35 223.332 110.49 223.601H110.48Z" fill="#F5F5F5"/>
<path d="M106.39 226.767C106.13 226.328 105.86 225.888 105.57 225.479C104.27 223.591 102.69 221.974 100.91 220.666C99.0899 219.318 97.0598 218.299 94.9198 217.63C94.3698 217.46 93.8098 217.31 93.2498 217.181C90.6498 216.601 87.9198 216.531 85.2398 217.021C84.5798 217.141 83.9298 217.29 83.2798 217.48C81.9998 217.85 80.7498 218.339 79.5298 218.978C69.9098 223.981 65.9899 235.674 70.5099 245.4C70.3598 245.131 70.2098 244.861 70.0598 244.582C64.9098 234.696 68.7698 222.473 78.6698 217.33C88.5698 212.188 100.81 216.042 105.96 225.928C106.11 226.208 106.24 226.487 106.37 226.757L106.39 226.767Z" fill="#E0E0E0"/>
<path d="M97.3598 253.189C97.1398 253.299 96.9298 253.409 96.7098 253.509C96.4898 253.619 96.2698 253.719 96.0498 253.808C95.9898 253.838 95.9398 253.858 95.8798 253.878C95.6398 253.978 95.3998 254.078 95.1598 254.168C95.1198 254.178 95.0898 254.198 95.0498 254.208C94.2598 254.497 93.4498 254.747 92.6398 254.937C92.3698 254.997 92.0898 255.067 91.8098 255.107C91.2598 255.216 90.7098 255.296 90.1598 255.356L89.9298 255.376C89.8198 255.386 89.7098 255.396 89.5998 255.396C89.4998 255.406 89.4098 255.416 89.3098 255.416C89.1698 255.426 89.0198 255.436 88.8798 255.436C88.6598 255.446 88.4398 255.456 88.2098 255.456C87.9198 255.456 87.6398 255.456 87.3498 255.446C87.0698 255.446 86.7798 255.426 86.4998 255.396C86.2698 255.376 86.0398 255.356 85.7998 255.326C85.6498 255.316 85.4998 255.286 85.3398 255.266C85.2198 255.256 85.0898 255.236 84.9698 255.216C84.8298 255.196 84.6798 255.166 84.5498 255.146C84.3198 255.107 84.0998 255.067 83.8698 255.017C83.6698 254.977 83.4698 254.937 83.2798 254.877C83.2398 254.877 83.1898 254.857 83.1498 254.847C82.8698 254.777 82.5898 254.707 82.3098 254.617C82.0498 254.547 81.7898 254.457 81.5298 254.368C81.5198 254.368 81.4998 254.368 81.4898 254.358C81.3298 254.308 81.1798 254.248 81.0298 254.198C80.8698 254.138 80.7198 254.078 80.5698 254.018C80.4198 253.958 80.2798 253.908 80.1298 253.838C79.9698 253.768 79.8098 253.699 79.6598 253.629C79.5098 253.559 79.3598 253.489 79.2098 253.419C79.0598 253.349 78.9198 253.279 78.7698 253.199C78.4698 253.049 78.1698 252.89 77.8698 252.71C77.7498 252.64 77.6298 252.57 77.5098 252.5C77.2198 252.331 76.9298 252.141 76.6498 251.951C76.5098 251.861 76.3698 251.771 76.2398 251.671C75.8098 251.372 75.3998 251.042 74.9898 250.713C74.8798 250.623 74.7798 250.523 74.6698 250.433C74.4298 250.224 74.1998 250.014 73.9798 249.804C73.9698 249.804 73.9598 249.784 73.9498 249.774C73.7198 249.554 73.4998 249.335 73.2898 249.105C73.1898 248.995 73.0898 248.895 72.9898 248.786C72.9398 248.736 72.8998 248.676 72.8498 248.626C72.7498 248.516 72.6498 248.396 72.5498 248.276C72.5298 248.256 72.5198 248.236 72.5098 248.226C72.3898 248.097 72.2798 247.957 72.1798 247.817C72.0598 247.667 71.9398 247.517 71.8298 247.358C71.7098 247.208 71.5998 247.048 71.4898 246.888C71.3998 246.758 71.3098 246.639 71.2298 246.509C71.1698 246.429 71.1198 246.349 71.0698 246.269C70.9998 246.159 70.9198 246.039 70.8498 245.92C70.7398 245.75 70.6398 245.58 70.5398 245.41C66.0198 235.684 69.9398 223.991 79.5598 218.988C80.7798 218.359 82.0298 217.86 83.3098 217.49C83.9498 217.31 84.6098 217.151 85.2698 217.031C87.9498 216.541 90.6798 216.611 93.2798 217.191C93.8398 217.31 94.3998 217.46 94.9498 217.64C97.0898 218.309 99.1198 219.328 100.94 220.676C102.72 221.984 104.3 223.601 105.6 225.489C105.89 225.908 106.16 226.338 106.42 226.777C110.94 236.503 107.02 248.196 97.3998 253.199L97.3598 253.189Z" fill="#F0F0F0"/>
<path d="M95.8198 244.142L97.3698 247.118L93.5798 249.085L92.0998 246.239C89.3298 247.477 86.3498 248.107 84.2198 247.947L83.8598 242.275C86.1798 242.395 88.8898 241.845 90.9598 240.767C92.7598 239.828 93.2098 239.119 92.8698 238.48C91.6398 236.124 82.2298 243.423 78.5898 236.423C77.0098 233.387 77.8798 229.703 81.9698 226.787L80.4498 223.861L84.2398 221.894L85.7398 224.76C87.8298 223.911 90.0298 223.422 91.9998 223.482L92.4798 229.064C90.1398 229.084 88.1498 229.543 86.5098 230.392C84.6598 231.35 84.3398 232.199 84.6798 232.838C85.8498 235.095 95.2698 227.815 98.8798 234.736C100.39 237.631 99.6098 241.246 95.8198 244.132V244.142Z" fill="#E0E0E0"/>
<path d="M95.1899 243.204L96.7399 246.179L92.9499 248.146L91.4699 245.301C88.6999 246.539 85.7199 247.168 83.5899 247.008L83.2299 241.336C85.5499 241.456 88.2599 240.907 90.3299 239.828C92.1299 238.89 92.5799 238.181 92.2399 237.542C91.0099 235.185 81.5999 242.485 77.9599 235.485C76.3799 232.449 77.2499 228.764 81.3399 225.848L79.8199 222.922L83.6099 220.955L85.1099 223.821C87.1999 222.972 89.3999 222.483 91.3799 222.543L91.8599 228.125C89.5199 228.145 87.5299 228.604 85.8899 229.453C84.0399 230.412 83.7199 231.261 84.0599 231.9C85.2299 234.156 94.6499 226.867 98.2599 233.797C99.7699 236.693 98.9899 240.308 95.1999 243.194L95.1899 243.204Z" fill="#F5F5F5"/>
<path d="M417.52 143.056C413.76 156.507 399.8 164.366 386.33 160.621C384.49 160.112 382.75 159.403 381.14 158.544C379.11 157.456 377.27 156.108 375.64 154.56C374.19 153.172 372.92 151.634 371.84 149.956C371.51 149.447 371.2 148.928 370.91 148.389C369.63 146.052 368.72 143.516 368.23 140.869C368.13 140.35 368.05 139.831 367.99 139.312C367.6 136.106 367.82 132.781 368.74 129.486C368.82 129.186 368.91 128.886 369.01 128.587C373.12 115.685 386.76 108.256 399.92 111.921C403.16 112.819 406.08 114.317 408.58 116.244C409.06 116.614 409.53 117.003 409.99 117.413C411.97 119.18 413.65 121.247 414.98 123.514C415.27 124.013 415.55 124.523 415.81 125.042C416.73 126.889 417.42 128.846 417.86 130.874C418.32 132.961 418.52 135.127 418.42 137.324C418.35 138.922 418.13 140.54 417.74 142.157C417.67 142.467 417.59 142.767 417.51 143.066L417.52 143.056Z" fill="#F5F5F5"/>
<path d="M412.36 142.587C412.48 142.088 412.57 141.588 412.65 141.089C412.99 138.822 412.94 136.565 412.54 134.399C412.13 132.172 411.34 130.045 410.24 128.097C409.96 127.598 409.65 127.109 409.33 126.63C407.82 124.433 405.88 122.525 403.59 121.048C403.03 120.688 402.44 120.349 401.85 120.049C400.67 119.45 399.41 118.961 398.09 118.591C387.64 115.685 376.78 121.557 373.43 131.742C373.51 131.443 373.58 131.143 373.66 130.844C376.66 120.109 387.84 113.818 398.59 116.804C409.34 119.799 415.64 130.963 412.65 141.698C412.57 141.998 412.48 142.297 412.38 142.587H412.36Z" fill="#E0E0E0"/>
<path d="M387.699 155.738C387.459 155.678 387.239 155.609 387.009 155.529C386.779 155.449 386.549 155.379 386.319 155.299C386.259 155.279 386.209 155.259 386.149 155.239C385.899 155.149 385.659 155.049 385.429 154.959C385.389 154.939 385.359 154.929 385.319 154.919C384.539 154.59 383.789 154.22 383.069 153.811C382.829 153.671 382.579 153.531 382.349 153.372C381.869 153.072 381.419 152.763 380.969 152.423L380.789 152.283C380.699 152.213 380.619 152.153 380.529 152.074C380.449 152.014 380.379 151.954 380.299 151.894C380.189 151.804 380.079 151.704 379.969 151.614C379.799 151.474 379.629 151.325 379.469 151.175C379.259 150.985 379.049 150.785 378.849 150.586C378.649 150.386 378.449 150.176 378.259 149.967C378.099 149.797 377.949 149.617 377.789 149.437C377.689 149.327 377.589 149.208 377.499 149.088C377.419 148.998 377.339 148.898 377.259 148.798C377.169 148.688 377.079 148.569 376.999 148.459C376.859 148.279 376.719 148.089 376.589 147.899C376.469 147.73 376.359 147.57 376.249 147.4C376.219 147.36 376.199 147.32 376.169 147.29C376.019 147.051 375.859 146.801 375.709 146.551C375.569 146.322 375.439 146.082 375.309 145.842C375.309 145.832 375.299 145.822 375.289 145.812C375.209 145.673 375.139 145.523 375.059 145.373C374.979 145.223 374.919 145.074 374.849 144.924C374.779 144.784 374.709 144.644 374.649 144.494C374.579 144.335 374.509 144.185 374.449 144.025C374.389 143.875 374.329 143.725 374.269 143.566C374.209 143.416 374.159 143.266 374.099 143.106C373.979 142.787 373.879 142.467 373.779 142.138C373.739 141.998 373.699 141.868 373.659 141.738C373.559 141.409 373.479 141.079 373.409 140.75C373.369 140.59 373.329 140.43 373.299 140.27C373.189 139.751 373.109 139.242 373.049 138.713C373.029 138.573 373.019 138.433 372.999 138.293C372.969 137.984 372.939 137.674 372.929 137.355C372.929 137.345 372.929 137.325 372.929 137.315C372.909 137.005 372.899 136.685 372.899 136.376C372.899 136.236 372.899 136.086 372.899 135.937C372.899 135.867 372.899 135.787 372.899 135.717C372.899 135.557 372.899 135.407 372.919 135.257C372.919 135.238 372.919 135.208 372.919 135.188C372.919 135.008 372.939 134.838 372.959 134.658C372.969 134.469 372.989 134.269 373.019 134.079C373.039 133.889 373.059 133.7 373.089 133.51C373.109 133.36 373.129 133.2 373.159 133.051C373.169 132.951 373.189 132.861 373.209 132.761C373.229 132.631 373.259 132.491 373.289 132.352C373.329 132.162 373.369 131.962 373.409 131.772C376.759 121.587 387.619 115.715 398.069 118.621C399.389 118.991 400.649 119.48 401.829 120.079C402.429 120.389 403.009 120.718 403.569 121.078C405.859 122.556 407.799 124.463 409.309 126.66C409.629 127.129 409.939 127.628 410.219 128.128C411.329 130.075 412.109 132.202 412.519 134.429C412.919 136.596 412.979 138.852 412.629 141.119C412.559 141.618 412.459 142.118 412.339 142.617C408.989 152.803 398.129 158.674 387.679 155.768L387.699 155.738Z" fill="#F0F0F0"/>
<path d="M392.76 148.069L391.86 151.304L387.75 150.156L388.61 147.07C385.74 146.082 383.13 144.504 381.68 142.946L385.3 138.553C386.91 140.22 389.27 141.668 391.52 142.297C393.47 142.846 394.29 142.627 394.48 141.928C395.2 139.361 383.33 138.293 385.45 130.684C386.37 127.389 389.53 125.292 394.51 125.951L395.4 122.775L399.51 123.923L398.64 127.039C400.74 127.848 402.69 128.986 404.09 130.374L400.63 134.778C398.9 133.2 397.14 132.172 395.36 131.682C393.35 131.123 392.54 131.523 392.35 132.222C391.67 134.668 403.53 135.777 401.43 143.286C400.55 146.431 397.51 148.538 392.77 148.069H392.76Z" fill="#E0E0E0"/>
<path d="M392.939 146.961L392.039 150.196L387.929 149.048L388.789 145.962C385.919 144.973 383.309 143.396 381.859 141.838L385.479 137.444C387.089 139.112 389.449 140.56 391.699 141.189C393.649 141.738 394.469 141.518 394.659 140.819C395.379 138.253 383.509 137.185 385.629 129.575C386.549 126.28 389.709 124.183 394.689 124.842L395.579 121.667L399.689 122.815L398.819 125.931C400.919 126.739 402.869 127.878 404.269 129.266L400.809 133.67C399.079 132.092 397.319 131.063 395.539 130.574C393.529 130.015 392.719 130.414 392.529 131.113C391.849 133.56 403.709 134.668 401.609 142.177C400.729 145.323 397.689 147.43 392.949 146.961H392.939Z" fill="#F5F5F5"/>
<path d="M152.05 55.0714L147.57 90.6108L116.46 59.5351L152.05 55.0714Z" fill="#F5F5F5"/>
<path d="M49.9404 165.854L143.4 72.5266L134.21 63.3496L49.9404 147.5V165.854Z" fill="#F5F5F5"/>
<path d="M88.02 25.5336C88.02 26.2825 87.42 26.8817 86.67 26.8817H81.33V32.2141C81.33 32.953 80.73 33.5522 79.99 33.5522C79.25 33.5522 78.64 32.953 78.64 32.2141V26.8817H73.3C72.56 26.8817 71.96 26.2825 71.96 25.5436C71.96 24.7947 72.56 24.1955 73.3 24.1955H78.64V18.8631C78.64 18.1242 79.24 17.525 79.99 17.525C80.74 17.525 81.33 18.1242 81.33 18.8631V24.1955H86.67C87.42 24.1955 88.02 24.7947 88.02 25.5336Z" fill="#F5F5F5"/>
<path d="M425.53 37.9559C425.53 38.7048 424.93 39.304 424.18 39.304H418.84V44.6364C418.84 45.3753 418.24 45.9745 417.5 45.9745C416.76 45.9745 416.15 45.3753 416.15 44.6364V39.304H410.81C410.07 39.304 409.47 38.7049 409.47 37.9659C409.47 37.217 410.07 36.6178 410.81 36.6178H416.15V31.2854C416.15 30.5465 416.75 29.9473 417.5 29.9473C418.25 29.9473 418.84 30.5465 418.84 31.2854V36.6178H424.18C424.93 36.6178 425.53 37.217 425.53 37.9559Z" fill="#F5F5F5"/>
<path d="M324.99 213.526C324.99 214.275 324.39 214.874 323.64 214.874H318.3V220.206C318.3 220.945 317.7 221.544 316.96 221.544C316.22 221.544 315.61 220.945 315.61 220.206V214.874H310.27C309.53 214.874 308.93 214.275 308.93 213.536C308.93 212.787 309.53 212.188 310.27 212.188H315.61V206.855C315.61 206.116 316.21 205.517 316.96 205.517C317.71 205.517 318.3 206.116 318.3 206.855V212.188H323.64C324.39 212.188 324.99 212.787 324.99 213.526Z" fill="#F5F5F5"/>
<path d="M427.12 83.7307C425.22 79.297 420.42 71.0188 410.5 68.7521C401.43 66.685 394.57 78.1387 388.94 78.9775C383.31 79.8163 383.94 77.2899 372.69 73.0759C363.07 69.471 356.61 78.8477 354.33 83.7307H427.12Z" fill="#F5F5F5"/>
<path d="M224.26 32.4937C224.26 32.4937 224.26 22.4081 214.34 21.9887C209.6 21.789 203.81 25.6634 200.15 19.5322C195.9 12.4123 188.47 8.16836 181.78 10.9244C174.39 13.9701 170.2 25.6335 162.98 24.6848C155.76 23.7262 141.99 18.933 134.87 32.5037H224.26V32.4937Z" fill="#F5F5F5"/>
<path d="M247.49 365C364.575 365 459.49 362.286 459.49 358.939C459.49 355.591 364.575 352.877 247.49 352.877C130.406 352.877 35.4902 355.591 35.4902 358.939C35.4902 362.286 130.406 365 247.49 365Z" fill="#F0F0F0"/>
<path d="M369.681 312.535C376.131 331.677 365.821 352.408 346.651 358.849C344.031 359.727 341.381 360.297 338.741 360.566C335.421 360.916 332.121 360.796 328.921 360.257C326.061 359.777 323.281 358.958 320.641 357.83C319.831 357.491 319.041 357.111 318.251 356.712C314.821 354.954 311.661 352.657 308.921 349.881C308.381 349.342 307.861 348.783 307.361 348.204C304.291 344.689 301.851 340.525 300.261 335.831C300.121 335.402 299.981 334.973 299.851 334.533C294.281 315.76 304.551 295.808 323.291 289.507C327.901 287.96 332.601 287.38 337.181 287.66C338.061 287.71 338.941 287.8 339.811 287.92C343.621 288.429 347.311 289.537 350.741 291.175C351.501 291.535 352.241 291.924 352.971 292.333C355.571 293.801 357.991 295.579 360.171 297.646C362.421 299.773 364.421 302.209 366.091 304.905C367.311 306.883 368.361 308.99 369.211 311.236C369.371 311.656 369.531 312.085 369.671 312.515L369.681 312.535Z" fill="#FFCC15"/>
<path d="M369.681 312.535C376.131 331.677 365.821 352.408 346.651 358.849C344.031 359.727 341.381 360.297 338.741 360.566C335.421 360.916 332.121 360.796 328.921 360.257C326.061 359.777 323.281 358.958 320.641 357.83C319.831 357.491 319.041 357.111 318.251 356.712C314.821 354.954 311.661 352.657 308.921 349.881C308.381 349.342 307.861 348.783 307.361 348.204C304.291 344.689 301.851 340.525 300.261 335.831C300.121 335.402 299.981 334.973 299.851 334.533C294.281 315.76 304.551 295.808 323.291 289.507C327.901 287.96 332.601 287.38 337.181 287.66C338.061 287.71 338.941 287.8 339.811 287.92C343.621 288.429 347.311 289.537 350.741 291.175C351.501 291.535 352.241 291.924 352.971 292.333C355.571 293.801 357.991 295.579 360.171 297.646C362.421 299.773 364.421 302.209 366.091 304.905C367.311 306.883 368.361 308.99 369.211 311.236C369.371 311.656 369.531 312.085 369.671 312.515L369.681 312.535Z" fill="#FFCC15"/>
<path opacity="0.6" d="M363.12 316.159C362.85 315.47 362.56 314.791 362.24 314.132C360.81 311.147 358.91 308.48 356.66 306.214C354.36 303.877 351.68 301.97 348.78 300.542C348.03 300.172 347.27 299.833 346.49 299.523C342.9 298.115 339.03 297.406 335.08 297.506C334.11 297.536 333.14 297.606 332.18 297.726C330.28 297.965 328.38 298.395 326.49 299.024C311.62 304.027 303.4 319.854 307.68 334.773C307.53 334.354 307.37 333.934 307.23 333.505C302.08 318.236 310.35 301.62 325.64 296.487C340.94 291.355 357.57 299.603 362.71 314.871C362.86 315.301 362.99 315.73 363.11 316.149L363.12 316.159Z" fill="black"/>
<path d="M343.44 337.14L344.99 341.743L339.14 343.71L337.66 339.317C333.42 340.465 329.02 340.695 326.01 339.996L326.76 331.807C330.05 332.506 334.05 332.316 337.25 331.238C340.03 330.299 340.83 329.391 340.5 328.392C339.27 324.747 324.19 333.085 320.55 322.261C318.97 317.577 321.05 312.495 327.54 309.249L326.02 304.726L331.87 302.759L333.36 307.192C336.53 306.453 339.79 306.234 342.6 306.763L342.04 314.841C338.69 314.352 335.75 314.552 333.22 315.401C330.36 316.359 329.72 317.498 330.06 318.496C331.23 321.981 346.32 313.683 349.93 324.378C351.44 328.851 349.51 333.844 343.45 337.12L343.44 337.14Z" fill="#FFCC15"/>
<path d="M170.54 161.45C165.97 181.122 146.3 193.374 126.6 188.811C123.91 188.192 121.35 187.283 118.96 186.135C115.95 184.697 113.21 182.859 110.76 180.722C108.58 178.815 106.64 176.658 104.98 174.322C104.47 173.603 103.99 172.874 103.54 172.125C101.54 168.829 100.06 165.215 99.1803 161.42C99.0103 160.681 98.8603 159.932 98.7303 159.183C97.9603 154.58 98.0703 149.757 99.1903 144.933C99.2903 144.494 99.4003 144.055 99.5303 143.615C104.65 124.712 123.88 113.109 143.14 117.562C147.88 118.661 152.19 120.628 155.94 123.264C156.66 123.774 157.37 124.303 158.05 124.862C161.03 127.289 163.58 130.165 165.65 133.36C166.1 134.059 166.53 134.778 166.94 135.517C168.38 138.123 169.51 140.909 170.28 143.805C171.08 146.801 171.5 149.916 171.5 153.092C171.5 155.409 171.29 157.765 170.83 160.112C170.75 160.561 170.65 161.001 170.55 161.44L170.54 161.45Z" fill="#FFCC15"/>
<path d="M170.54 161.45C165.97 181.122 146.3 193.374 126.6 188.811C123.91 188.192 121.35 187.283 118.96 186.135C115.95 184.697 113.21 182.859 110.76 180.722C108.58 178.815 106.64 176.658 104.98 174.322C104.47 173.603 103.99 172.874 103.54 172.125C101.54 168.829 100.06 165.215 99.1803 161.42C99.0103 160.681 98.8603 159.932 98.7303 159.183C97.9603 154.58 98.0703 149.757 99.1903 144.933C99.2903 144.494 99.4003 144.055 99.5303 143.615C104.65 124.712 123.88 113.109 143.14 117.562C147.88 118.661 152.19 120.628 155.94 123.264C156.66 123.774 157.37 124.303 158.05 124.862C161.03 127.289 163.58 130.165 165.65 133.36C166.1 134.059 166.53 134.778 166.94 135.517C168.38 138.123 169.51 140.909 170.28 143.805C171.08 146.801 171.5 149.916 171.5 153.092C171.5 155.409 171.29 157.765 170.83 160.112C170.75 160.561 170.65 161.001 170.55 161.44L170.54 161.45Z" fill="#FFCC15"/>
<path opacity="0.6" d="M163.05 161.1C163.19 160.371 163.29 159.643 163.37 158.914C163.72 155.618 163.5 152.363 162.78 149.257C162.05 146.072 160.77 143.036 159.05 140.3C158.61 139.591 158.13 138.902 157.63 138.233C155.31 135.157 152.39 132.521 148.98 130.534C148.14 130.055 147.28 129.605 146.39 129.196C144.64 128.407 142.8 127.768 140.87 127.319C125.58 123.784 110.27 132.961 106.08 147.889C106.17 147.45 106.26 147.011 106.36 146.571C110 130.874 125.76 121.057 141.48 124.702C157.2 128.347 167.03 144.075 163.38 159.772C163.28 160.212 163.17 160.651 163.05 161.08V161.1Z" fill="black"/>
<path d="M135.271 168.65L134.171 173.383L128.151 171.995L129.201 167.481C124.991 166.233 121.121 164.126 118.921 161.959L123.861 155.379C126.291 157.695 129.801 159.623 133.091 160.391C135.951 161.05 137.111 160.691 137.351 159.672C138.221 155.918 121.001 155.129 123.581 144.005C124.701 139.192 129.141 135.946 136.361 136.585L137.441 131.942L143.461 133.33L142.401 137.893C145.491 138.922 148.371 140.44 150.491 142.367L145.771 148.958C143.171 146.781 140.571 145.423 137.961 144.814C135.021 144.135 133.881 144.764 133.641 145.792C132.811 149.377 150.021 150.216 147.471 161.21C146.401 165.814 142.141 169.049 135.261 168.67L135.271 168.65Z" fill="#FFCC15"/>
<path d="M420.1 277.145L430.88 287.91L360.41 358.27H378.8L440.08 297.097L451.22 308.211L455.7 272.671L420.1 277.145Z" fill="#FFCC15"/>
<g opacity="0.3">
<path d="M420.1 277.145L430.88 287.91L360.41 358.27H378.8L440.08 297.097L451.22 308.211L455.7 272.671L420.1 277.145Z" fill="white"/>
</g>
<path d="M149.63 245.57L160.41 256.335L58.3203 358.27H76.7103L169.61 265.522L180.75 276.636L185.23 241.096L149.63 245.57Z" fill="#FFCC15"/>
<g opacity="0.3">
<path d="M149.63 245.57L160.41 256.335L58.3203 358.27H76.7103L169.61 265.522L180.75 276.636L185.23 241.096L149.63 245.57Z" fill="white"/>
</g>
<path d="M192.8 55.441L195.71 54.6122L193.86 48.1614L190.5 49.12C189.54 48.0415 188.34 47.1928 186.98 46.6535V43.2584H180.26V46.6535C179.2 47.0729 178.23 47.6821 177.4 48.441L174.44 47.003L171.49 53.0344L174.44 54.4724C174.42 54.712 174.41 54.9617 174.41 55.2013C174.41 56.829 174.84 58.3569 175.58 59.675H175.57L173.36 62.431L178.61 66.6251L180.76 63.9389C181.66 64.2285 182.61 64.3883 183.61 64.3883C184.33 64.3883 185.04 64.2984 185.71 64.1386L187.65 66.8647L193.13 62.9803L191.24 60.3241C192.19 58.926 192.75 57.2484 192.8 55.441ZM177.56 55.2013C177.56 51.8761 180.27 49.1699 183.6 49.1699C186.93 49.1699 189.64 51.8761 189.64 55.2013C189.64 58.5266 186.93 61.2328 183.6 61.2328C180.27 61.2328 177.56 58.5266 177.56 55.2013Z" fill="#FFCC15"/>
<path opacity="0.6" d="M192.8 55.441L195.71 54.6122L193.86 48.1614L190.5 49.12C189.54 48.0415 188.34 47.1928 186.98 46.6535V43.2584H180.26V46.6535C179.2 47.0729 178.23 47.6821 177.4 48.441L174.44 47.003L171.49 53.0344L174.44 54.4724C174.42 54.712 174.41 54.9617 174.41 55.2013C174.41 56.829 174.84 58.3569 175.58 59.675H175.57L173.36 62.431L178.61 66.6251L180.76 63.9389C181.66 64.2285 182.61 64.3883 183.61 64.3883C184.33 64.3883 185.04 64.2984 185.71 64.1386L187.65 66.8647L193.13 62.9803L191.24 60.3241C192.19 58.926 192.75 57.2484 192.8 55.441ZM177.56 55.2013C177.56 51.8761 180.27 49.1699 183.6 49.1699C186.93 49.1699 189.64 51.8761 189.64 55.2013C189.64 58.5266 186.93 61.2328 183.6 61.2328C180.27 61.2328 177.56 58.5266 177.56 55.2013Z" fill="white"/>
<path d="M337.581 181.831L340.491 181.002L338.641 174.551L335.281 175.51C334.321 174.431 333.121 173.583 331.761 173.043V169.648H325.041V173.043C323.981 173.463 323.011 174.072 322.181 174.831L319.221 173.393L316.271 179.424L319.221 180.862C319.201 181.102 319.191 181.351 319.191 181.591C319.191 183.219 319.621 184.747 320.361 186.065H320.351L318.141 188.821L323.391 193.015L325.541 190.329C326.441 190.618 327.391 190.778 328.391 190.778C329.111 190.778 329.821 190.688 330.491 190.528L332.431 193.255L337.911 189.37L336.021 186.714C336.971 185.316 337.531 183.638 337.581 181.831ZM322.341 181.591C322.341 178.266 325.051 175.56 328.381 175.56C331.711 175.56 334.421 178.266 334.421 181.591C334.421 184.916 331.711 187.623 328.381 187.623C325.051 187.623 322.341 184.916 322.341 181.591Z" fill="#FFCC15"/>
<path opacity="0.6" d="M337.581 181.831L340.491 181.002L338.641 174.551L335.281 175.51C334.321 174.431 333.121 173.583 331.761 173.043V169.648H325.041V173.043C323.981 173.463 323.011 174.072 322.181 174.831L319.221 173.393L316.271 179.424L319.221 180.862C319.201 181.102 319.191 181.351 319.191 181.591C319.191 183.219 319.621 184.747 320.361 186.065H320.351L318.141 188.821L323.391 193.015L325.541 190.329C326.441 190.618 327.391 190.778 328.391 190.778C329.111 190.778 329.821 190.688 330.491 190.528L332.431 193.255L337.911 189.37L336.021 186.714C336.971 185.316 337.531 183.638 337.581 181.831ZM322.341 181.591C322.341 178.266 325.051 175.56 328.381 175.56C331.711 175.56 334.421 178.266 334.421 181.591C334.421 184.916 331.711 187.623 328.381 187.623C325.051 187.623 322.341 184.916 322.341 181.591Z" fill="white"/>
<path d="M408.5 182.77L404.02 218.309L393.47 207.774L289.2 311.886H181.92L135.46 358.27H117.08L176.53 298.904H283.82L384.27 198.587L372.91 187.243L408.5 182.77Z" fill="#FFCC15"/>
<path d="M262.461 276.985V291.834L268.461 292.313L271.401 278.413L262.461 276.985Z" fill="#FF8B7B"/>
<path d="M266.721 290.915C266.721 290.915 268.611 287.29 269.721 287.68C270.831 288.069 271.291 292.453 271.291 292.453C271.291 292.453 277.341 294.47 279.031 294.58C280.721 294.69 282.091 295.649 282.311 298.944H261.641C261.641 298.944 261.781 291.494 261.821 290.216C261.861 288.938 263.681 290.536 263.681 290.536L266.721 290.905V290.915Z" fill="#263238"/>
<path d="M261.87 293.062C263.32 293.941 263.99 295.699 262.99 297.416C262.88 297.606 263.14 297.776 263.25 297.586C264.35 295.699 263.67 293.761 262.07 292.783C261.9 292.683 261.7 292.962 261.87 293.062Z" fill="white"/>
<path d="M261.841 297.766C267.241 297.826 272.651 297.876 278.051 297.936C279.311 297.946 280.561 297.966 281.821 297.976C282.031 297.976 282.071 297.646 281.861 297.646C276.461 297.586 271.051 297.536 265.651 297.476C264.391 297.466 263.141 297.446 261.881 297.436C261.671 297.436 261.631 297.766 261.841 297.766Z" fill="white"/>
<path d="M270.391 293.761C271.241 292.753 272.471 292.463 273.411 293.232C273.561 293.362 273.761 293.072 273.611 292.953C272.541 292.084 271.091 292.453 270.131 293.602C269.991 293.771 270.251 293.941 270.391 293.771V293.761Z" fill="white"/>
<path d="M272.111 294.301C272.961 293.292 274.191 293.002 275.131 293.771C275.281 293.901 275.481 293.611 275.331 293.492C274.261 292.623 272.811 292.992 271.851 294.141C271.711 294.31 271.971 294.48 272.111 294.311V294.301Z" fill="white"/>
<path d="M273.88 294.83C274.73 293.821 275.96 293.532 276.9 294.3C277.05 294.43 277.25 294.141 277.1 294.021C276.03 293.152 274.58 293.522 273.62 294.67C273.48 294.84 273.74 295.009 273.88 294.84V294.83Z" fill="white"/>
<path d="M258.851 129.825C259.021 132.471 258.661 140.609 259.021 144.983C259.701 153.311 260.601 164.106 261.321 174.921C262.161 187.443 262.761 199.985 262.461 208.682C261.691 231.021 261.861 281.659 261.861 281.659H271.571C271.571 281.659 282.971 231.33 285.101 208.682C286.881 189.899 285.941 141.528 285.641 129.835H258.861L258.851 129.825Z" fill="#263238"/>
<path opacity="0.2" d="M259.021 144.973C259.701 153.301 260.601 164.096 261.321 174.911C266.101 160.791 261.661 139.451 261.661 139.451L259.021 144.973Z" fill="black"/>
<path d="M261.021 281.998H272.411L273.241 278.363L260.721 278.213L261.021 281.998Z" fill="#FFCC15"/>
<path d="M208.871 274.219L206.601 288.898L212.461 290.286L217.491 276.995L208.871 274.219Z" fill="#FF8B7B"/>
<path d="M210.95 288.639C210.95 288.639 213.37 285.354 214.41 285.903C215.45 286.452 215.23 290.866 215.23 290.866C215.23 290.866 220.9 293.782 222.56 294.151C224.22 294.51 225.42 295.669 225.13 298.964L204.7 295.809C204.7 295.809 205.98 288.469 206.21 287.211C206.44 285.953 208 287.81 208 287.81L210.95 288.639Z" fill="#263238"/>
<path d="M205.83 290.007C207.12 291.095 207.53 292.933 206.27 294.48C206.13 294.65 206.36 294.86 206.5 294.68C207.87 292.983 207.5 290.966 206.06 289.757C205.91 289.627 205.66 289.877 205.82 290.007H205.83Z" fill="white"/>
<path d="M205.08 294.66L221.08 297.296C222.32 297.496 223.56 297.706 224.8 297.906C225.01 297.936 225.1 297.626 224.89 297.586C219.56 296.707 214.22 295.829 208.89 294.95C207.65 294.75 206.41 294.54 205.17 294.341C204.96 294.311 204.87 294.62 205.08 294.66Z" fill="white"/>
<path d="M214.15 292.004C215.14 291.136 216.41 291.046 217.21 291.934C217.34 292.084 217.58 291.835 217.45 291.685C216.53 290.656 215.04 290.816 213.91 291.795C213.74 291.944 213.98 292.144 214.14 291.994L214.15 292.004Z" fill="white"/>
<path d="M215.76 292.793C216.75 291.924 218.02 291.834 218.82 292.723C218.95 292.873 219.19 292.623 219.06 292.473C218.14 291.445 216.65 291.604 215.52 292.583C215.35 292.733 215.59 292.932 215.75 292.783L215.76 292.793Z" fill="white"/>
<path d="M217.42 293.592C218.41 292.723 219.68 292.633 220.48 293.522C220.61 293.672 220.85 293.422 220.72 293.272C219.8 292.244 218.31 292.403 217.18 293.382C217.01 293.532 217.25 293.732 217.41 293.582L217.42 293.592Z" fill="white"/>
<path d="M243.05 210.63C237.05 232.569 216.88 280.031 216.88 280.031L207.32 278.363C207.32 278.363 217.28 228.984 221.87 207.105C226.01 187.363 230.56 142.018 232.03 128.517L264.13 131.403C262.42 142.966 248.02 192.416 243.04 210.62L243.05 210.63Z" fill="#263238"/>
<path d="M206.431 278.574L217.661 280.521L219.101 277.086L206.601 274.809L206.431 278.574Z" fill="#FFCC15"/>
<path d="M230.171 128.527C230.041 129.945 232.921 133.1 234.331 133.16L284.161 134.029C285.661 134.099 287.411 133.07 287.371 131.572C286.861 113.927 282.741 53.2339 281.351 49.4094C279.641 44.7061 270.161 43.0185 266.021 42.639C260.051 42.0898 253.161 42.2695 246.381 42.5991C243.191 42.7488 240.281 43.0384 237.861 43.338C234.191 43.7874 231.621 47.1925 232.211 50.8373C233.321 57.7075 233.981 64.5678 234.321 71.2283C234.341 71.5578 234.351 71.8873 234.371 72.2069C234.481 74.5036 234.581 76.7804 234.591 79.0172C234.591 79.4665 234.611 79.9159 234.591 80.3553C234.371 103.203 231.401 114.397 230.141 128.527H230.171Z" fill="white"/>
<path d="M250.01 134.259C243.35 134.668 225.72 134.259 225.72 131.483C225.72 126.849 232.06 94.8048 232.66 88.3939C232.75 87.4153 232.84 86.0872 232.94 84.4995C233.11 81.5537 233.28 77.7191 233.44 73.605C233.93 60.7833 234.33 45.2055 234.33 45.2055C234.33 45.2055 234.72 41.6805 250.22 42.4294C250.22 42.4294 254.08 61.2426 254.22 77.799C254.35 94.3554 252.27 134.119 250.01 134.259Z" fill="#FFCC15"/>
<path d="M266.031 42.6392C266.031 42.6392 272.861 60.6835 272.111 88.0146C271.361 115.346 271.021 135.247 271.021 135.247C271.021 135.247 287.381 136.266 288.811 133.819C289.591 132.491 287.691 108.655 286.611 94.6751C285.391 78.7678 282.911 52.655 281.981 49.5094C280.371 44.0872 266.021 42.6292 266.021 42.6292L266.031 42.6392Z" fill="#FFCC15"/>
<path d="M347.08 38.1656C342.28 42.3796 337.38 46.4239 332.31 50.3183C329.79 52.2755 327.21 54.1728 324.58 56.0601C323.26 56.9988 321.92 57.9075 320.53 58.8262C319.11 59.7349 317.74 60.6336 315.98 61.5423C315.16 61.9917 313.77 62.5509 312.57 62.8405C311.42 63.1101 310.35 63.2798 309.37 63.3697C307.39 63.5694 305.59 63.5894 303.83 63.5395C300.33 63.3997 297 63.0701 293.73 62.5808C290.9 62.1714 288.13 61.6721 285.38 61.1029C284.74 60.9731 284.11 60.8333 283.47 60.6935C280.5 60.0444 277.55 59.2955 274.57 58.4567L277.51 45.4852C280.83 46.7434 283.91 47.3625 286.89 47.9916C289.88 48.6607 292.87 49.2898 295.84 49.839C298.8 50.3682 301.75 50.8775 304.55 51.1272C305.94 51.257 307.31 51.3468 308.48 51.3169C309.07 51.3069 309.57 51.257 309.97 51.207C310.31 51.1471 310.42 51.1671 311.01 50.9274C312.12 50.4881 313.48 49.809 314.79 49.13C316.12 48.441 317.46 47.6821 318.81 46.9431C321.52 45.4652 324.22 43.8775 326.94 42.3297C332.36 39.1842 337.85 36.0287 343.34 32.9331L347.08 38.1656Z" fill="#FFCC15"/>
<path opacity="0.2" d="M285.38 61.103C284.74 60.9731 284.11 60.8333 283.47 60.6935L282.5 53.6036L285.38 61.103Z" fill="black"/>
<path d="M354.821 25.7633C354.821 25.7633 355.711 28.6991 355.051 30.2669C354.391 31.8247 351.271 32.6036 351.271 32.6036C351.271 32.6036 353.031 27.8104 354.821 25.7633Z" fill="#FF8B7B"/>
<path opacity="0.2" d="M354.821 25.7633C354.821 25.7633 355.711 28.6991 355.051 30.2669C354.391 31.8247 351.271 32.6036 351.271 32.6036C351.271 32.6036 353.031 27.8104 354.821 25.7633Z" fill="black"/>
<path d="M354.49 28.5793C353.4 29.3881 352.57 30.7961 351.7 32.254C353.18 32.7533 355.58 31.545 356.12 32.1442C356.64 32.6934 355.16 33.7719 352.71 34.9602C351.44 35.5793 351 37.0173 349.31 37.6164C347.62 38.1456 347.07 38.1956 347.07 38.1956C345.22 37.4966 343.2 32.9331 343.2 32.9331L347.64 29.5379C347.64 29.5379 351.73 26.4423 353.46 25.8132C355.18 25.1941 359.7 22.2583 360.01 23.0072C360.45 24.0557 357.38 26.4423 354.48 28.5793H354.49Z" fill="#FF8B7B"/>
<path opacity="0.2" d="M241.79 62.611L232.94 84.4998C233.11 81.554 233.28 77.7195 233.44 73.6054L241.79 62.611Z" fill="black"/>
<path d="M266.59 8.48791C262.93 7.58919 259.01 8.14839 255.86 10.2154C253.8 11.5635 252.09 13.4908 252.4 16.0771C253.12 22.1285 255.84 32.0943 255.84 32.0943L275.36 20.2012C275.36 20.2012 278.26 16.6463 273.74 11.913C272.28 10.3852 269.31 9.15695 266.6 8.49789L266.59 8.48791Z" fill="#263238"/>
<path d="M264.77 46.0844C264.65 45.5452 264.56 44.976 264.52 44.3968C264.47 43.7078 264.48 42.9988 264.57 42.2898L265.52 38.8048C265.52 38.8048 265.54 38.7549 265.55 38.7349L259.88 32.5337L255.98 28.2598C256.2 32.7534 254.83 38.2456 253.2 42.9389C253.46 45.0259 263.29 50.628 264.77 46.1044V46.0844Z" fill="#FF8B7B"/>
<path d="M274.299 31.555C274.089 32.3139 273.859 33.0629 273.609 33.7918C271.389 40.2826 263.339 40.8118 258.379 35.9787C258.379 35.9787 258.379 35.9587 258.369 35.9587C257.929 35.5294 257.509 35.06 257.119 34.5408C253.969 30.3467 254.789 27.1413 255.329 19.8517C255.859 12.582 263.689 8.08845 270.279 11.8631C276.359 15.3481 276.419 23.9658 274.309 31.545L274.299 31.555Z" fill="#FF8B7B"/>
<path d="M260.79 15.1784C260.79 15.1784 267.86 20.4608 276.05 18.0643C280.22 16.846 279.52 8.32812 276.24 6.67048C273.57 5.3224 271.4 8.59774 271.4 8.59774C271.4 8.59774 268.14 6.48075 262.64 6.72041C257.14 6.96007 254.86 10.1256 254.86 10.1256C254.86 10.1256 252.02 9.97577 251.19 12.7918C250.45 15.2982 253.2 20.0814 253.2 20.0814L260.79 15.1784Z" fill="#263238"/>
<path d="M266.969 23.7262C266.889 24.2954 267.129 24.7947 267.499 24.8446C267.869 24.8945 268.239 24.4751 268.309 23.9059C268.389 23.3368 268.149 22.8375 267.779 22.7875C267.409 22.7376 267.039 23.157 266.969 23.7262Z" fill="#263238"/>
<path d="M269.69 32.7534C269.81 32.7534 269.88 32.7534 269.89 32.7534C270.01 32.7434 270.1 32.6336 270.09 32.5138C270.08 32.3939 269.97 32.314 269.85 32.314C269.73 32.324 266.87 32.5637 266.44 29.3183C266.42 29.1985 266.31 29.1086 266.2 29.1286C266.08 29.1486 266 29.2584 266.01 29.3682C266.43 32.5138 268.97 32.7434 269.7 32.7434L269.69 32.7534Z" fill="#263238"/>
<path d="M255.229 20.5409C255.229 20.5409 257.429 20.6607 257.509 22.538C257.589 24.4153 257.399 24.665 257.399 24.665L260.069 24.8447C260.069 24.8447 258.559 19.2327 260.459 19.3326C262.349 19.4324 259.589 15.2883 262.199 14.5494C264.989 13.7605 272.209 13.431 275.009 17.8447C275.009 17.8447 274.279 13.5009 270.819 11.1442C267.359 8.7876 260.369 8.25835 257.529 11.6735C254.689 15.0886 255.229 20.5409 255.229 20.5409Z" fill="#263238"/>
<path d="M251.56 24.2654C251.84 26.2126 252.99 27.8503 254.3 28.7989C256.27 30.2269 258.1 28.6691 258.26 26.3724C258.4 24.3053 257.55 21.07 255.23 20.5507C252.95 20.0414 251.24 22.0386 251.56 24.2654Z" fill="#FF8B7B"/>
<path d="M272.87 24.4052C272.79 24.9744 273.03 25.4737 273.4 25.5236C273.77 25.5736 274.14 25.1542 274.21 24.585C274.29 24.0158 274.05 23.5165 273.68 23.4666C273.31 23.4166 272.94 23.836 272.87 24.4052Z" fill="#263238"/>
<path d="M274.97 23.0172C274.87 22.9972 274.79 22.9273 274.75 22.8175C274.6 22.3581 274.36 22.0386 274.03 21.8688C273.48 21.5992 272.85 21.7989 272.84 21.8089C272.69 21.8588 272.52 21.779 272.47 21.6292C272.42 21.4794 272.5 21.3096 272.65 21.2597C272.68 21.2497 273.52 20.9701 274.29 21.3496C274.77 21.5892 275.11 22.0186 275.31 22.6377C275.36 22.7875 275.27 22.9573 275.12 22.9972C275.07 23.0172 275.02 23.0172 274.97 22.9972V23.0172Z" fill="#263238"/>
<path d="M265.49 22.1085C265.49 22.1085 265.4 22.1085 265.36 22.0785C265.21 22.0186 265.15 21.8388 265.21 21.699C265.23 21.6691 265.59 20.8602 266.4 20.5607C266.9 20.3709 267.45 20.4209 268.04 20.6905C268.19 20.7604 268.25 20.9301 268.18 21.0799C268.11 21.2297 267.94 21.2896 267.79 21.2197C267.35 21.01 266.96 20.9701 266.61 21.0999C266.03 21.3096 265.75 21.9187 265.75 21.9287C265.7 22.0286 265.6 22.0985 265.5 22.0985L265.49 22.1085Z" fill="#263238"/>
<path d="M270.26 24.4952C270.26 24.4952 271.9 28.3597 272.03 29.3383C272.12 30.0073 269.99 29.9973 269.99 29.9973L270.26 24.4952Z" fill="#FF5652"/>
<path d="M232.75 46.7634C229.38 52.615 226.21 58.5865 223.12 64.588C221.56 67.5837 220.05 70.6094 218.52 73.6051L216.27 78.1087L215.15 80.3056L214.59 81.3741L214.32 81.8733C214.23 82.0431 214.2 82.123 214.14 82.2628L213.99 82.6223L213.88 82.9119C213.8 83.1116 213.75 83.2913 213.7 83.4411L213.56 83.9104C213.23 85.0788 213.04 86.0075 212.86 86.9461C212.69 87.8748 212.54 88.7635 212.4 89.6523C212.13 91.4197 211.9 93.1473 211.71 94.8748C211.32 98.3199 210.99 101.725 210.73 105.14C210.2 111.96 209.84 118.751 209.76 125.601C209.73 127.718 211.43 129.456 213.55 129.476C215.37 129.495 216.9 128.257 217.32 126.57V126.55C218.96 119.989 220.44 113.378 221.93 106.828C222.69 103.552 223.41 100.287 224.2 97.0717C224.6 95.464 224.98 93.8663 225.39 92.3284C225.59 91.5595 225.8 90.8006 226.02 90.0816C226.23 89.3727 226.47 88.6637 226.66 88.2243C226.68 88.1644 226.7 88.1344 226.72 88.0945C226.74 88.0446 226.76 88.0246 226.76 88.0346H226.77L226.75 88.0945L226.71 88.1943C226.68 88.2742 226.64 88.3441 226.6 88.414C226.52 88.5438 226.62 88.3941 226.63 88.3741L226.73 88.2243L226.93 87.9147L227.32 87.2956L228.7 85.0788L231.37 80.705C233.1 77.7792 234.85 74.8733 236.53 71.9275C239.92 66.0559 243.21 60.1443 246.29 54.1029C248.22 50.3183 246.71 45.6849 242.92 43.7576C239.25 41.8903 234.79 43.2384 232.75 46.7634Z" fill="#FFCC15"/>
<path d="M201.2 144.594V138.343C201.2 138.123 201.38 137.953 201.59 137.953H204.99V136.945H201.59C200.82 136.945 200.19 137.574 200.19 138.343V144.594H201.2Z" fill="#263238"/>
<path d="M224.71 138.343V144.594H225.72V138.343C225.72 137.574 225.09 136.945 224.32 136.945H220.92V137.953H224.32C224.54 137.953 224.71 138.133 224.71 138.343Z" fill="#263238"/>
<path d="M239.05 147.24V178.795C239.05 180.263 237.86 181.451 236.39 181.451H190.78C189.31 181.451 188.12 180.263 188.12 178.795V147.24C188.12 145.772 189.31 144.594 190.78 144.594H236.39C237.86 144.594 239.05 145.772 239.05 147.24Z" fill="#263238"/>
<g opacity="0.5">
<path d="M239.05 147.24V178.795C239.05 180.263 237.86 181.451 236.39 181.451H190.78C189.31 181.451 188.12 180.263 188.12 178.795V147.24C188.12 145.772 189.31 144.594 190.78 144.594H236.39C237.86 144.594 239.05 145.772 239.05 147.24Z" fill="white"/>
</g>
<path d="M232.36 144.594H230.34V181.451H232.36V144.594Z" fill="#263238"/>
<path d="M196.84 144.594H194.82V181.451H196.84V144.594Z" fill="#263238"/>
<path d="M216.64 127.888C216.64 127.888 219.9 135.237 219.54 136.895C219.17 138.562 216.97 135.487 216.97 135.487L216.64 127.888Z" fill="#FF8B7B"/>
<path d="M221.96 135.757H203.59V139.122H221.96V135.757Z" fill="#263238"/>
<path opacity="0.3" d="M221.96 135.757H203.59V139.122H221.96V135.757Z" fill="white"/>
<path d="M209.94 126.779L207.39 134.259C206.88 136.406 213.8 139.531 216.47 137.684C218.58 136.226 216.75 127.538 216.75 127.538C214.53 126.16 212.45 125.911 209.93 126.779H209.94Z" fill="#FF8B7B"/>
<path d="M207.4 134.259C206.87 136.645 207.18 141.329 211 141.808C212.71 142.028 213.53 141.868 213.53 141.868C213.53 141.868 214.81 142.417 215.91 142.068C217.83 141.448 217.11 136.625 217.11 136.625L207.4 134.259Z" fill="#FF8B7B"/>
<path d="M254.35 39.2841C254.35 39.2841 248.91 38.1257 247.73 42.6393V57.5481L250.86 61.4525L248.39 63.919L248.32 83.0717L254.1 85.0589C254.21 79.7265 255.09 70.1601 253.75 56.0103C252.91 47.073 254.34 39.2941 254.34 39.2941L254.35 39.2841Z" fill="#FFCC15"/>
<path opacity="0.3" d="M254.35 39.2841C254.35 39.2841 248.91 38.1257 247.73 42.6393V57.5481L250.86 61.4525L248.39 63.919L248.32 83.0717L254.1 85.0589C254.21 79.7265 255.09 70.1601 253.75 56.0103C252.91 47.073 254.34 39.2941 254.34 39.2941L254.35 39.2841Z" fill="black"/>
<path d="M264.57 42.2798C264.57 42.2798 267.12 44.8661 268.39 50.7776C269.66 56.6892 272.22 82.5424 272.15 85.8277L277.87 81.5338L275.55 61.0131L272.16 58.916L275.01 55.1714C275.01 55.1714 272.39 45.7448 270.7 43.3382C269.01 40.9417 265.1 40.3225 265.1 40.3225L264.57 42.2698V42.2798Z" fill="#FFCC15"/>
<path opacity="0.3" d="M264.57 42.2798C264.57 42.2798 267.12 44.8661 268.39 50.7776C269.66 56.6892 272.22 82.5424 272.15 85.8277L277.87 81.5338L275.55 61.0131L272.16 58.916L275.01 55.1714C275.01 55.1714 272.39 45.7448 270.7 43.3382C269.01 40.9417 265.1 40.3225 265.1 40.3225L264.57 42.2698V42.2798Z" fill="black"/>
</g>
<defs>
<clipPath id="clip0_339_1555">
<rect width="500" height="365" fill="white"/>
</clipPath>
</defs>
</svg>
