<svg width="27" height="27" viewBox="0 0 27 27" fill="none" xmlns="http://www.w3.org/2000/svg">
<path fill-rule="evenodd" clip-rule="evenodd" d="M4.25 0.5625C2.35152 0.5625 0.8125 2.10152 0.8125 4C0.8125 5.89848 2.35152 7.4375 4.25 7.4375C6.14848 7.4375 7.6875 5.89848 7.6875 4C7.6875 2.10152 6.14848 0.5625 4.25 0.5625ZM2.6875 4C2.6875 3.13705 3.38705 2.4375 4.25 2.4375C5.11295 2.4375 5.8125 3.13705 5.8125 4C5.8125 4.86295 5.11295 5.5625 4.25 5.5625C3.38705 5.5625 2.6875 4.86295 2.6875 4Z" fill="url(#paint0_linear_1776_20203)"/>
<path fill-rule="evenodd" clip-rule="evenodd" d="M0.8125 9C0.8125 8.48223 1.23223 8.0625 1.75 8.0625H6.75C7.26777 8.0625 7.6875 8.48223 7.6875 9V25.25C7.6875 25.7678 7.26777 26.1875 6.75 26.1875H1.75C1.23223 26.1875 0.8125 25.7678 0.8125 25.25V9ZM2.6875 9.9375V24.3125H5.8125V9.9375H2.6875Z" fill="url(#paint1_linear_1776_20203)"/>
<path fill-rule="evenodd" clip-rule="evenodd" d="M9.5625 9C9.5625 8.48223 9.98223 8.0625 10.5 8.0625H15.5C16.0178 8.0625 16.4375 8.48223 16.4375 9V9.54253L16.9816 9.30935C17.917 8.90845 18.9174 8.65706 19.9291 8.56508C23.3978 8.24975 26.4375 10.9755 26.4375 14.4753V25.25C26.4375 25.7678 26.0178 26.1875 25.5 26.1875H20.5C19.9822 26.1875 19.5625 25.7678 19.5625 25.25V16.5C19.5625 16.0856 19.3979 15.6882 19.1049 15.3951C18.8118 15.1021 18.4144 14.9375 18 14.9375C17.5856 14.9375 17.1882 15.1021 16.8951 15.3951C16.6021 15.6882 16.4375 16.0856 16.4375 16.5V25.25C16.4375 25.7678 16.0178 26.1875 15.5 26.1875H10.5C9.98223 26.1875 9.5625 25.7678 9.5625 25.25V9ZM11.4375 9.9375V24.3125H14.5625V16.5C14.5625 15.5883 14.9247 14.714 15.5693 14.0693C16.214 13.4247 17.0883 13.0625 18 13.0625C18.9117 13.0625 19.786 13.4247 20.4307 14.0693C21.0753 14.714 21.4375 15.5883 21.4375 16.5V24.3125H24.5625V14.4753C24.5625 12.0948 22.4863 10.2153 20.0988 10.4324C19.2813 10.5067 18.4731 10.7101 17.7202 11.0327L15.8693 11.826C15.5796 11.9501 15.247 11.9204 14.9839 11.7469C14.7208 11.5735 14.5625 11.2794 14.5625 10.9643V9.9375H11.4375Z" fill="url(#paint2_linear_1776_20203)"/>
<defs>
<linearGradient id="paint0_linear_1776_20203" x1="-0.726431" y1="27.1164" x2="27.8606" y2="13.0486" gradientUnits="userSpaceOnUse">
<stop stop-color="#02ED5E"/>
<stop offset="1" stop-color="#0B76E0"/>
</linearGradient>
<linearGradient id="paint1_linear_1776_20203" x1="-0.726431" y1="27.1164" x2="27.8606" y2="13.0486" gradientUnits="userSpaceOnUse">
<stop stop-color="#02ED5E"/>
<stop offset="1" stop-color="#0B76E0"/>
</linearGradient>
<linearGradient id="paint2_linear_1776_20203" x1="-0.726431" y1="27.1164" x2="27.8606" y2="13.0486" gradientUnits="userSpaceOnUse">
<stop stop-color="#02ED5E"/>
<stop offset="1" stop-color="#0B76E0"/>
</linearGradient>
</defs>
</svg>
