<svg width="26" height="26" viewBox="0 0 26 26" fill="none" xmlns="http://www.w3.org/2000/svg">
<path fill-rule="evenodd" clip-rule="evenodd" d="M18.9813 15.4452C18.6739 15.2781 17.1621 14.4688 16.8788 14.3545C16.5955 14.2401 16.3887 14.1804 16.1683 14.4843C15.9476 14.7869 15.3205 15.4647 15.1303 15.6655C14.9395 15.8663 14.7559 15.885 14.4485 15.7175C14.1411 15.5507 13.1436 15.1844 11.9874 14.0814C11.0872 13.2231 10.497 12.1818 10.3257 11.8638C10.1543 11.5462 10.3244 11.3839 10.4871 11.2351C10.6335 11.1008 10.8142 10.8833 10.9777 10.7077C11.1408 10.5321 11.1985 10.4047 11.3105 10.2011C11.4229 9.9974 11.3775 9.81403 11.3051 9.65585C11.2324 9.49722 10.6637 7.94445 10.4262 7.31246C10.1887 6.68087 9.92382 6.77455 9.74105 6.76763C9.55835 6.76077 9.35026 6.72709 9.14132 6.71938C8.93243 6.71168 8.59026 6.77657 8.29145 7.07758C7.99257 7.37735 7.15493 8.09942 7.0973 9.62909C7.03967 11.1584 8.10586 12.6784 8.25467 12.8909C8.40342 13.1043 10.2913 16.4196 13.4289 17.7834C16.5669 19.1463 16.5828 18.731 17.1589 18.7001C17.7353 18.6701 19.041 18.017 19.3296 17.3011C19.6182 16.5855 19.6415 15.9628 19.568 15.8302C19.4943 15.6979 19.2884 15.612 18.9813 15.4452ZM13.227 22.8158C11.1518 22.8158 9.21941 22.198 7.60586 21.1397L3.67967 22.3867L4.95599 18.6223C3.73283 16.9506 3.01046 14.8968 3.01046 12.6784C3.01046 7.0877 7.59362 2.54003 13.227 2.54003C18.8607 2.54003 23.4438 7.0877 23.4438 12.6784C23.4438 18.2681 18.8607 22.8158 13.227 22.8158ZM13.227 0.5C6.44895 0.5 0.95421 5.95233 0.95421 12.6784C0.95421 14.9791 1.59803 17.1307 2.71533 18.9667L0.5 25.5L7.2952 23.3416C9.05342 24.3062 11.0754 24.8563 13.227 24.8563C20.0049 24.8563 25.5001 19.4035 25.5001 12.6784C25.5001 5.95233 20.0049 0.5 13.227 0.5Z" fill="url(#paint0_linear_1776_20207)"/>
<defs>
<linearGradient id="paint0_linear_1776_20207" x1="-1.0014" y1="26.4062" x2="26.8885" y2="12.6814" gradientUnits="userSpaceOnUse">
<stop stop-color="#02ED5E"/>
<stop offset="1" stop-color="#0B76E0"/>
</linearGradient>
</defs>
</svg>
