<svg xmlns="http://www.w3.org/2000/svg" width="59" height="42" viewBox="0 0 59 42" fill="none">
  <path d="M57.7844 6.4639C57.1042 3.93641 55.1115 1.94412 52.5845 1.26352C47.9675 0 29.4994 0 29.4994 0C29.4994 0 11.0318 0 6.41484 1.21536C3.93641 1.89551 1.89506 3.93686 1.21491 6.4639C0 11.0805 0 20.6548 0 20.6548C0 20.6548 0 30.2773 1.21491 34.8456C1.89551 37.3727 3.88779 39.3654 6.41529 40.046C11.0805 41.3096 29.4999 41.3096 29.4999 41.3096C29.4999 41.3096 47.9675 41.3096 52.5845 40.0942C55.112 39.414 57.1042 37.4213 57.7848 34.8943C58.9998 30.2773 58.9998 20.7034 58.9998 20.7034C58.9998 20.7034 59.0484 11.0805 57.7844 6.4639Z" fill="#FF0000"/>
  <path d="M23.6191 29.4998L38.9763 20.6547L23.6191 11.8096V29.4998Z" fill="white"/>
</svg>